%FSLAX46Y46*%
%MOMM*%
%ADD12C,0.200000*%
%ADD14C,0.232500*%
%ADD15C,0.250000*%
%ADD13C,0.400000*%
%AMPS60*
21,1,1.000000,0.800000,0.000000,0.000000,0.000000*
%
%ADD60PS60*%
%AMPS117*
21,1,1.000000,0.800000,0.000000,0.000000,90.000000*
%
%ADD117PS117*%
%AMPS99*
21,1,1.000000,0.800000,0.000000,0.000000,270.000000*
%
%ADD99PS99*%
%AMPS64*
1,1,1.400000,0.000000,0.000000*
%
%ADD64PS64*%
%AMPS30*
1,1,1.700000,0.000000,0.000000*
%
%ADD30PS30*%
%AMPS89*
1,1,1.700000,0.000000,0.000000*
%
%ADD89PS89*%
%AMPS31*
1,1,1.700000,0.000000,0.000000*
%
%ADD31PS31*%
%AMPS83*
1,1,1.700000,0.000000,0.000000*
%
%ADD83PS83*%
%AMPS66*
1,1,1.400000,0.000000,0.000000*
%
%ADD66PS66*%
%AMPS34*
1,1,1.700000,0.000000,0.000000*
%
%ADD34PS34*%
%AMPS65*
1,1,1.400000,0.000000,0.000000*
%
%ADD65PS65*%
%AMPS33*
1,1,1.700000,0.000000,0.000000*
%
%ADD33PS33*%
%AMPS90*
1,1,1.700000,0.000000,0.000000*
%
%ADD90PS90*%
%AMPS32*
1,1,1.700000,0.000000,0.000000*
%
%ADD32PS32*%
%AMPS82*
1,1,1.700000,0.000000,0.000000*
%
%ADD82PS82*%
%AMPS29*
1,1,1.700000,0.000000,0.000000*
%
%ADD29PS29*%
%AMPS69*
21,1,0.700000,1.000000,0.000000,0.000000,90.000000*
%
%ADD69PS69*%
%AMPS102*
21,1,0.700000,1.000000,0.000000,0.000000,180.000000*
%
%ADD102PS102*%
%AMPS115*
21,1,0.700000,1.000000,0.000000,0.000000,270.000000*
%
%ADD115PS115*%
%AMPS77*
21,1,0.800000,0.800000,0.000000,0.000000,0.000000*
%
%ADD77PS77*%
%AMPS35*
21,1,0.800000,0.800000,0.000000,0.000000,90.000000*
%
%ADD35PS35*%
%AMPS16*
21,1,0.800000,0.800000,0.000000,0.000000,180.000000*
%
%ADD16PS16*%
%AMPS61*
21,1,0.800000,0.800000,0.000000,0.000000,270.000000*
%
%ADD61PS61*%
%AMPS71*
21,1,0.450000,1.050000,0.000000,0.000000,0.000000*
%
%ADD71PS71*%
%AMPS70*
21,1,0.450000,1.050000,0.000000,0.000000,180.000000*
%
%ADD70PS70*%
%AMPS78*
21,1,1.000000,1.250000,0.000000,0.000000,0.000000*
%
%ADD78PS78*%
%AMPS79*
21,1,1.000000,1.250000,0.000000,0.000000,90.000000*
%
%ADD79PS79*%
%AMPS62*
21,1,1.000000,1.250000,0.000000,0.000000,180.000000*
%
%ADD62PS62*%
%AMPS68*
21,1,1.000000,1.250000,0.000000,0.000000,270.000000*
%
%ADD68PS68*%
%AMPS36*
21,1,0.600000,0.500000,0.000000,0.000000,0.000000*
%
%ADD36PS36*%
%AMPS18*
21,1,0.600000,0.500000,0.000000,0.000000,90.000000*
%
%ADD18PS18*%
%AMPS17*
21,1,0.600000,0.500000,0.000000,0.000000,180.000000*
%
%ADD17PS17*%
%AMPS19*
21,1,0.600000,0.500000,0.000000,0.000000,270.000000*
%
%ADD19PS19*%
%AMPS40*
21,1,0.700000,1.300000,0.000000,0.000000,0.000000*
%
%ADD40PS40*%
%AMPS91*
21,1,0.510000,0.400000,0.000000,0.000000,90.000000*
%
%ADD91PS91*%
%AMPS25*
21,1,0.510000,0.400000,0.000000,0.000000,180.000000*
%
%ADD25PS25*%
%AMPS42*
21,1,0.510000,0.400000,0.000000,0.000000,270.000000*
%
%ADD42PS42*%
%AMPS109*
21,1,0.900000,0.700000,0.000000,0.000000,180.000000*
%
%ADD109PS109*%
%AMPS58*
21,1,0.800000,0.750000,0.000000,0.000000,0.000000*
%
%ADD58PS58*%
%AMPS26*
21,1,0.800000,0.750000,0.000000,0.000000,180.000000*
%
%ADD26PS26*%
%AMPS101*
21,1,0.800000,0.750000,0.000000,0.000000,270.000000*
%
%ADD101PS101*%
%AMPS44*
21,1,1.200000,1.000000,0.000000,0.000000,0.000000*
%
%ADD44PS44*%
%AMPS88*
21,1,1.200000,1.000000,0.000000,0.000000,90.000000*
%
%ADD88PS88*%
%AMPS116*
21,1,1.200000,1.000000,0.000000,0.000000,180.000000*
%
%ADD116PS116*%
%AMPS107*
21,1,0.300000,0.700000,0.000000,0.000000,180.000000*
%
%ADD107PS107*%
%AMPS114*
21,1,0.600000,1.500000,0.000000,0.000000,0.000000*
%
%ADD114PS114*%
%AMPS97*
21,1,0.600000,1.500000,0.000000,0.000000,90.000000*
%
%ADD97PS97*%
%AMPS113*
21,1,0.600000,1.500000,0.000000,0.000000,180.000000*
%
%ADD113PS113*%
%AMPS98*
21,1,0.600000,1.500000,0.000000,0.000000,270.000000*
%
%ADD98PS98*%
%AMPS57*
21,1,0.400000,0.600000,0.000000,0.000000,0.000000*
%
%ADD57PS57*%
%AMPS43*
21,1,0.400000,0.600000,0.000000,0.000000,90.000000*
%
%ADD43PS43*%
%AMPS45*
21,1,0.400000,0.600000,0.000000,0.000000,180.000000*
%
%ADD45PS45*%
%AMPS41*
21,1,0.400000,0.600000,0.000000,0.000000,270.000000*
%
%ADD41PS41*%
%AMPS47*
21,1,0.200000,0.700000,0.000000,0.000000,0.000000*
%
%ADD47PS47*%
%AMPS48*
21,1,0.200000,0.700000,0.000000,0.000000,90.000000*
%
%ADD48PS48*%
%AMPS46*
21,1,0.200000,0.700000,0.000000,0.000000,180.000000*
%
%ADD46PS46*%
%AMPS49*
21,1,0.200000,0.700000,0.000000,0.000000,270.000000*
%
%ADD49PS49*%
%AMPS100*
21,1,0.500000,0.900000,0.000000,0.000000,0.000000*
%
%ADD100PS100*%
%AMPS103*
21,1,0.500000,0.900000,0.000000,0.000000,90.000000*
%
%ADD103PS103*%
%AMPS59*
21,1,0.500000,0.900000,0.000000,0.000000,180.000000*
%
%ADD59PS59*%
%AMPS76*
21,1,0.830000,0.630000,0.000000,0.000000,90.000000*
%
%ADD76PS76*%
%AMPS75*
21,1,0.830000,0.630000,0.000000,0.000000,270.000000*
%
%ADD75PS75*%
%AMPS37*
21,1,1.000000,1.600000,0.000000,0.000000,90.000000*
%
%ADD37PS37*%
%AMPS56*
21,1,1.750000,1.750000,0.000000,0.000000,0.000000*
%
%ADD56PS56*%
%AMPS20*
21,1,3.700000,3.700000,0.000000,0.000000,0.000000*
%
%ADD20PS20*%
%AMPS128*
1,1,0.600000,0.000000,0.000000*
%
%ADD128PS128*%
%AMPS135*
1,1,0.600000,0.000000,0.000000*
%
%ADD135PS135*%
%AMPS130*
1,1,0.600000,0.000000,0.000000*
%
%ADD130PS130*%
%AMPS132*
1,1,0.600000,0.000000,0.000000*
%
%ADD132PS132*%
%AMPS133*
1,1,0.600000,0.000000,0.000000*
%
%ADD133PS133*%
%AMPS134*
1,1,0.600000,0.000000,0.000000*
%
%ADD134PS134*%
%AMPS136*
1,1,0.600000,0.000000,0.000000*
%
%ADD136PS136*%
%AMPS129*
1,1,0.600000,0.000000,0.000000*
%
%ADD129PS129*%
%AMPS126*
1,1,0.600000,0.000000,0.000000*
%
%ADD126PS126*%
%AMPS131*
1,1,0.600000,0.000000,0.000000*
%
%ADD131PS131*%
%AMPS137*
1,1,0.600000,0.000000,0.000000*
%
%ADD137PS137*%
%AMPS108*
4,1,4,
-0.550000,0.750000,
0.550000,0.750000,
0.550000,-1.750000,
-0.550000,-1.750000,
-0.550000,0.750000,
0
*
1,1,1.100000,0.000000,-1.750000*
1,1,1.100000,0.000000,0.750000*
%
%ADD108PS108*%
%AMPS110*
4,1,4,
-0.550000,0.750000,
0.550000,0.750000,
0.550000,-1.750000,
-0.550000,-1.750000,
-0.550000,0.750000,
0
*
1,1,1.100000,0.000000,-1.750000*
1,1,1.100000,0.000000,0.750000*
%
%ADD110PS110*%
%AMPS112*
21,1,1.000000,1.100000,0.000000,0.000000,270.000000*
1,1,1.100000,0.000000,-0.500000*
1,1,1.100000,0.000000,0.500000*
%
%ADD112PS112*%
%AMPS111*
21,1,1.000000,1.100000,0.000000,0.000000,270.000000*
1,1,1.100000,0.000000,-0.500000*
1,1,1.100000,0.000000,0.500000*
%
%ADD111PS111*%
%AMPS63*
21,1,1.640000,1.500000,0.000000,0.000000,270.000000*
1,1,1.500000,0.000000,-0.820000*
1,1,1.500000,0.000000,0.820000*
%
%ADD63PS63*%
%AMPS67*
21,1,1.640000,1.500000,0.000000,0.000000,270.000000*
1,1,1.500000,0.000000,-0.820000*
1,1,1.500000,0.000000,0.820000*
%
%ADD67PS67*%
%AMPS125*
1,1,0.500000,0.000000,0.000000*
%
%ADD125PS125*%
%AMPS124*
1,1,0.500000,0.000000,0.000000*
%
%ADD124PS124*%
%AMPS123*
1,1,0.500000,0.000000,0.000000*
%
%ADD123PS123*%
%AMPS127*
1,1,0.500000,0.000000,0.000000*
%
%ADD127PS127*%
%AMPS85*
1,1,0.100000,0.175000,0.075000*
1,1,0.100000,-0.175000,-0.075000*
1,1,0.100000,-0.175000,0.075000*
21,1,0.250000,0.350000,0.000000,0.000000,90.000000*
21,1,0.150000,0.450000,0.000000,0.000000,90.000000*
1,1,0.100000,0.175000,-0.075000*
%
%ADD85PS85*%
%AMPS84*
1,1,0.100000,-0.175000,-0.075000*
1,1,0.100000,0.175000,0.075000*
1,1,0.100000,0.175000,-0.075000*
21,1,0.250000,0.350000,0.000000,0.000000,270.000000*
21,1,0.150000,0.450000,0.000000,0.000000,270.000000*
1,1,0.100000,-0.175000,0.075000*
%
%ADD84PS84*%
%AMPS122*
1,1,0.400000,-2.600000,-2.600000*
1,1,0.400000,2.600000,2.600000*
1,1,0.400000,2.600000,-2.600000*
21,1,5.600000,5.200000,0.000000,0.000000,270.000000*
21,1,5.200000,5.600000,0.000000,0.000000,270.000000*
1,1,0.400000,-2.600000,2.600000*
%
%ADD122PS122*%
%AMPS50*
1,1,0.100000,0.100000,-0.275000*
1,1,0.100000,-0.100000,0.275000*
1,1,0.100000,0.100000,0.275000*
21,1,0.300000,0.550000,0.000000,0.000000,0.000000*
21,1,0.200000,0.650000,0.000000,0.000000,0.000000*
1,1,0.100000,-0.100000,-0.275000*
%
%ADD50PS50*%
%AMPS51*
1,1,0.100000,-0.100000,0.275000*
1,1,0.100000,0.100000,-0.275000*
1,1,0.100000,-0.100000,-0.275000*
21,1,0.300000,0.550000,0.000000,0.000000,180.000000*
21,1,0.200000,0.650000,0.000000,0.000000,180.000000*
1,1,0.100000,0.100000,0.275000*
%
%ADD51PS51*%
%AMPS119*
1,1,0.100000,0.100000,-0.225000*
1,1,0.100000,-0.100000,0.225000*
1,1,0.100000,0.100000,0.225000*
21,1,0.300000,0.450000,0.000000,0.000000,0.000000*
21,1,0.200000,0.550000,0.000000,0.000000,0.000000*
1,1,0.100000,-0.100000,-0.225000*
%
%ADD119PS119*%
%AMPS120*
1,1,0.100000,0.225000,0.100000*
1,1,0.100000,-0.225000,-0.100000*
1,1,0.100000,-0.225000,0.100000*
21,1,0.300000,0.450000,0.000000,0.000000,90.000000*
21,1,0.200000,0.550000,0.000000,0.000000,90.000000*
1,1,0.100000,0.225000,-0.100000*
%
%ADD120PS120*%
%AMPS121*
1,1,0.100000,-0.100000,0.225000*
1,1,0.100000,0.100000,-0.225000*
1,1,0.100000,-0.100000,-0.225000*
21,1,0.300000,0.450000,0.000000,0.000000,180.000000*
21,1,0.200000,0.550000,0.000000,0.000000,180.000000*
1,1,0.100000,0.100000,0.225000*
%
%ADD121PS121*%
%AMPS118*
1,1,0.100000,-0.225000,-0.100000*
1,1,0.100000,0.225000,0.100000*
1,1,0.100000,0.225000,-0.100000*
21,1,0.300000,0.450000,0.000000,0.000000,270.000000*
21,1,0.200000,0.550000,0.000000,0.000000,270.000000*
1,1,0.100000,-0.225000,0.100000*
%
%ADD118PS118*%
%AMPS24*
1,1,0.100000,0.070000,-0.475000*
1,1,0.100000,-0.070000,0.475000*
1,1,0.100000,0.070000,0.475000*
21,1,0.240000,0.950000,0.000000,0.000000,0.000000*
21,1,0.140000,1.050000,0.000000,0.000000,0.000000*
1,1,0.100000,-0.070000,-0.475000*
%
%ADD24PS24*%
%AMPS22*
1,1,0.100000,0.475000,0.070000*
1,1,0.100000,-0.475000,-0.070000*
1,1,0.100000,-0.475000,0.070000*
21,1,0.240000,0.950000,0.000000,0.000000,90.000000*
21,1,0.140000,1.050000,0.000000,0.000000,90.000000*
1,1,0.100000,0.475000,-0.070000*
%
%ADD22PS22*%
%AMPS21*
1,1,0.100000,-0.070000,0.475000*
1,1,0.100000,0.070000,-0.475000*
1,1,0.100000,-0.070000,-0.475000*
21,1,0.240000,0.950000,0.000000,0.000000,180.000000*
21,1,0.140000,1.050000,0.000000,0.000000,180.000000*
1,1,0.100000,0.070000,0.475000*
%
%ADD21PS21*%
%AMPS23*
1,1,0.100000,-0.475000,-0.070000*
1,1,0.100000,0.475000,0.070000*
1,1,0.100000,0.475000,-0.070000*
21,1,0.240000,0.950000,0.000000,0.000000,270.000000*
21,1,0.140000,1.050000,0.000000,0.000000,270.000000*
1,1,0.100000,-0.475000,0.070000*
%
%ADD23PS23*%
%AMPS73*
1,1,0.200000,0.490000,-0.825000*
1,1,0.200000,-0.490000,0.825000*
1,1,0.200000,0.490000,0.825000*
21,1,1.180000,1.650000,0.000000,0.000000,0.000000*
21,1,0.980000,1.850000,0.000000,0.000000,0.000000*
1,1,0.200000,-0.490000,-0.825000*
%
%ADD73PS73*%
%AMPS87*
1,1,0.200000,-0.650000,1.150000*
1,1,0.200000,0.650000,-1.150000*
1,1,0.200000,-0.650000,-1.150000*
21,1,1.500000,2.300000,0.000000,0.000000,180.000000*
21,1,1.300000,2.500000,0.000000,0.000000,180.000000*
1,1,0.200000,0.650000,1.150000*
%
%ADD87PS87*%
%AMPS38*
1,1,0.100000,0.100000,-0.285000*
1,1,0.100000,-0.100000,0.285000*
1,1,0.100000,0.100000,0.285000*
21,1,0.300000,0.570000,0.000000,0.000000,0.000000*
21,1,0.200000,0.670000,0.000000,0.000000,0.000000*
1,1,0.100000,-0.100000,-0.285000*
%
%ADD38PS38*%
%AMPS39*
1,1,0.100000,-0.100000,0.285000*
1,1,0.100000,0.100000,-0.285000*
1,1,0.100000,-0.100000,-0.285000*
21,1,0.300000,0.570000,0.000000,0.000000,180.000000*
21,1,0.200000,0.670000,0.000000,0.000000,180.000000*
1,1,0.100000,0.100000,0.285000*
%
%ADD39PS39*%
%AMPS104*
1,1,0.200000,1.300000,0.300000*
1,1,0.200000,-1.300000,-0.300000*
1,1,0.200000,-1.300000,0.300000*
21,1,0.800000,2.600000,0.000000,0.000000,90.000000*
21,1,0.600000,2.800000,0.000000,0.000000,90.000000*
1,1,0.200000,1.300000,-0.300000*
%
%ADD104PS104*%
%AMPS74*
1,1,0.200000,0.050000,-0.825000*
1,1,0.200000,-0.050000,0.825000*
1,1,0.200000,0.050000,0.825000*
21,1,0.300000,1.650000,0.000000,0.000000,0.000000*
21,1,0.100000,1.850000,0.000000,0.000000,0.000000*
1,1,0.200000,-0.050000,-0.825000*
%
%ADD74PS74*%
%AMPS86*
1,1,0.200000,0.150000,0.275000*
1,1,0.200000,-0.150000,-0.275000*
1,1,0.200000,-0.150000,0.275000*
21,1,0.750000,0.300000,0.000000,0.000000,90.000000*
21,1,0.550000,0.500000,0.000000,0.000000,90.000000*
1,1,0.200000,0.150000,-0.275000*
%
%ADD86PS86*%
%AMPS105*
1,1,0.200000,1.600000,-0.550000*
1,1,0.200000,-1.600000,0.550000*
1,1,0.200000,1.600000,0.550000*
21,1,3.400000,1.100000,0.000000,0.000000,0.000000*
21,1,3.200000,1.300000,0.000000,0.000000,0.000000*
1,1,0.200000,-1.600000,-0.550000*
%
%ADD105PS105*%
%AMPS106*
1,1,0.200000,-1.600000,0.550000*
1,1,0.200000,1.600000,-0.550000*
1,1,0.200000,-1.600000,-0.550000*
21,1,3.400000,1.100000,0.000000,0.000000,180.000000*
21,1,3.200000,1.300000,0.000000,0.000000,180.000000*
1,1,0.200000,1.600000,0.550000*
%
%ADD106PS106*%
%AMPS92*
1,1,0.100000,0.070000,-0.375000*
1,1,0.100000,-0.070000,0.375000*
1,1,0.100000,0.070000,0.375000*
21,1,0.240000,0.750000,0.000000,0.000000,0.000000*
21,1,0.140000,0.850000,0.000000,0.000000,0.000000*
1,1,0.100000,-0.070000,-0.375000*
%
%ADD92PS92*%
%AMPS93*
1,1,0.100000,0.375000,0.070000*
1,1,0.100000,-0.375000,-0.070000*
1,1,0.100000,-0.375000,0.070000*
21,1,0.240000,0.750000,0.000000,0.000000,90.000000*
21,1,0.140000,0.850000,0.000000,0.000000,90.000000*
1,1,0.100000,0.375000,-0.070000*
%
%ADD93PS93*%
%AMPS94*
1,1,0.100000,-0.070000,0.375000*
1,1,0.100000,0.070000,-0.375000*
1,1,0.100000,-0.070000,-0.375000*
21,1,0.240000,0.750000,0.000000,0.000000,180.000000*
21,1,0.140000,0.850000,0.000000,0.000000,180.000000*
1,1,0.100000,0.070000,0.375000*
%
%ADD94PS94*%
%AMPS95*
1,1,0.100000,-0.375000,-0.070000*
1,1,0.100000,0.375000,0.070000*
1,1,0.100000,0.375000,-0.070000*
21,1,0.240000,0.750000,0.000000,0.000000,270.000000*
21,1,0.140000,0.850000,0.000000,0.000000,270.000000*
1,1,0.100000,-0.375000,0.070000*
%
%ADD95PS95*%
%AMPS27*
1,1,0.100000,0.450000,0.162500*
1,1,0.100000,-0.450000,-0.162500*
1,1,0.100000,-0.450000,0.162500*
21,1,0.425000,0.900000,0.000000,0.000000,90.000000*
21,1,0.325000,1.000000,0.000000,0.000000,90.000000*
1,1,0.100000,0.450000,-0.162500*
%
%ADD27PS27*%
%AMPS28*
1,1,0.100000,-0.450000,-0.162500*
1,1,0.100000,0.450000,0.162500*
1,1,0.100000,0.450000,-0.162500*
21,1,0.425000,0.900000,0.000000,0.000000,270.000000*
21,1,0.325000,1.000000,0.000000,0.000000,270.000000*
1,1,0.100000,-0.450000,0.162500*
%
%ADD28PS28*%
%AMPS72*
1,1,0.200000,0.050000,-0.525000*
1,1,0.200000,-0.050000,0.525000*
1,1,0.200000,0.050000,0.525000*
21,1,0.300000,1.050000,0.000000,0.000000,0.000000*
21,1,0.100000,1.250000,0.000000,0.000000,0.000000*
1,1,0.200000,-0.050000,-0.525000*
%
%ADD72PS72*%
%AMPS80*
1,1,0.200000,0.350000,0.100000*
1,1,0.200000,-0.350000,-0.100000*
1,1,0.200000,-0.350000,0.100000*
21,1,0.400000,0.700000,0.000000,0.000000,90.000000*
21,1,0.200000,0.900000,0.000000,0.000000,90.000000*
1,1,0.200000,0.350000,-0.100000*
%
%ADD80PS80*%
%AMPS81*
1,1,0.200000,-0.350000,-0.100000*
1,1,0.200000,0.350000,0.100000*
1,1,0.200000,0.350000,-0.100000*
21,1,0.400000,0.700000,0.000000,0.000000,270.000000*
21,1,0.200000,0.900000,0.000000,0.000000,270.000000*
1,1,0.200000,-0.350000,0.100000*
%
%ADD81PS81*%
%AMPS10*
1,1,6.000000,0.000000,0.000000*
%
%ADD10PS10*%
%AMPS11*
1,1,6.000000,0.000000,0.000000*
%
%ADD11PS11*%
%AMPS55*
1,1,0.300000,0.000000,0.250000*
4,1,4,
-0.150000,-0.400000,
-0.150000,0.250000,
0.150000,0.250000,
0.150000,-0.400000,
-0.150000,-0.400000,
0
*
%
%ADD55PS55*%
%AMPS54*
1,1,0.300000,-0.250000,0.000000*
4,1,4,
0.400000,-0.150000,
-0.250000,-0.150000,
-0.250000,0.150000,
0.400000,0.150000,
0.400000,-0.150000,
0
*
%
%ADD54PS54*%
%AMPS53*
1,1,0.300000,0.000000,-0.250000*
4,1,4,
0.150000,0.400000,
0.150000,-0.250000,
-0.150000,-0.250000,
-0.150000,0.400000,
0.150000,0.400000,
0
*
%
%ADD53PS53*%
%AMPS52*
1,1,0.300000,0.250000,0.000000*
4,1,4,
-0.400000,0.150000,
0.250000,0.150000,
0.250000,-0.150000,
-0.400000,-0.150000,
-0.400000,0.150000,
0
*
%
%ADD52PS52*%
%AMPS96*
21,1,5.900000,5.900000,0.000000,0.000000,270.000000*
%
%ADD96PS96*%
G01*
G01*
%LPD*%
D12*
X9250000Y28750000D02*
X9250000Y29425000D01*
D12*
X15500000Y12900000D02*
X15500000Y13750000D01*
D13*
X5500000Y70250000D02*
X4000000Y70250000D01*
D12*
X-3640000Y2640000D02*
X-3750000Y2750000D01*
D12*
X-3675000Y40675000D02*
X-2150000Y39150000D01*
D12*
X-5550000Y14750000D02*
X-3540000Y14750000D01*
D12*
X4050000Y47000000D02*
X4050000Y46300000D01*
D12*
X-2750000Y54775308D02*
X-3237346Y55262654D01*
D12*
X-3750000Y49250000D02*
X-2750000Y49250000D01*
D12*
X-17000000Y30700000D02*
X-17700000Y30700000D01*
D12*
X18375000Y23000000D02*
X19197892Y23000000D01*
D12*
X17950000Y14800000D02*
X16474990Y16275010D01*
D12*
X-16000000Y20000000D02*
X-15500000Y20500000D01*
D12*
X-4950000Y18300000D02*
X-4750000Y18500000D01*
D12*
X-17000000Y40250000D02*
X-17250000Y40000000D01*
D12*
X-10635000Y45050000D02*
X-10635000Y43315000D01*
D13*
X-450000Y61799936D02*
X750056Y62999992D01*
D12*
X-15824990Y33774990D02*
X-16250000Y34200000D01*
D12*
X9600000Y31900000D02*
X10200000Y31900000D01*
D12*
X-3540000Y12250000D02*
X-3520000Y12230000D01*
D12*
X13200000Y59300000D02*
X13250000Y59250000D01*
D12*
X-10000000Y8250000D02*
X-10000000Y10250000D01*
D12*
X-1750000Y27101002D02*
X-1750000Y27797892D01*
D12*
X11950000Y42500000D02*
X11050336Y42500000D01*
D12*
X750000Y1125000D02*
X750000Y4750000D01*
D12*
X-2250000Y69750000D02*
X-2250000Y70750000D01*
D13*
X-6700000Y61050000D02*
X-7000000Y60750000D01*
D12*
X-4950000Y17750000D02*
X-4950000Y18300000D01*
D12*
X4800509Y56262665D02*
X6531587Y54531587D01*
D12*
X21500000Y64500000D02*
X17500000Y64500000D01*
D12*
X-5625000Y51150000D02*
X-6250000Y51775000D01*
D12*
X13200000Y61950000D02*
X13250000Y62000000D01*
D12*
X20700000Y26800000D02*
X20750000Y26750000D01*
D12*
X-2250000Y66750000D02*
X-2250000Y65750000D01*
D12*
X-12750000Y6900000D02*
X-12450000Y6600000D01*
D12*
X-22750000Y45500000D02*
X-25040000Y45500000D01*
D12*
X-3250000Y53825000D02*
X-3250000Y54250000D01*
D12*
X2000000Y66000000D02*
X2000000Y65750000D01*
D12*
X-1000000Y59000000D02*
X-1500000Y59500000D01*
D12*
X-4300000Y28550000D02*
X-4250000Y28500000D01*
D12*
X12800000Y54800000D02*
X12500000Y54500000D01*
D12*
X-16750000Y10550000D02*
X-16750000Y11500000D01*
D12*
X16300000Y49050000D02*
X17000000Y49750000D01*
D12*
X-16000000Y34674999D02*
X-15325001Y34000000D01*
D12*
X2950000Y47000000D02*
X2000000Y47000000D01*
D12*
X13200000Y50800000D02*
X13250000Y50750000D01*
D12*
X5500000Y52750000D02*
X5500000Y52500000D01*
D12*
X-16250000Y46700000D02*
X-17300000Y46700000D01*
D12*
X-4750000Y53825000D02*
X-4750000Y54601002D01*
D12*
X-19200000Y8950000D02*
X-19250000Y9000000D01*
D12*
X20134626Y45175010D02*
X21250000Y44059636D01*
D12*
X1000000Y48000000D02*
X1000000Y48500000D01*
D12*
X7000000Y45580000D02*
X7000000Y48000000D01*
D12*
X750000Y60300000D02*
X2000000Y60300000D01*
D12*
X-7450000Y9700000D02*
X-8000000Y10250000D01*
D12*
X11625000Y21000000D02*
X12750000Y21000000D01*
D12*
X20094990Y63405010D02*
X20094990Y61255010D01*
D12*
X-18200000Y45900000D02*
X-18200000Y45300000D01*
D12*
X22750000Y63250000D02*
X21500000Y64500000D01*
D12*
X-18250000Y10550000D02*
X-18250000Y11500000D01*
D12*
X3000000Y14500000D02*
X3250000Y14750000D01*
D12*
X-24200000Y65500000D02*
X-23250000Y65500000D01*
D12*
X19450000Y29799998D02*
X19350000Y29899998D01*
D12*
X-10300000Y15200000D02*
X-10000000Y15500000D01*
D13*
X750056Y62999992D02*
X1749992Y62999992D01*
D12*
X-3025000Y51275000D02*
X-3250000Y51500000D01*
D12*
X-2250000Y55000000D02*
X-2000000Y55250000D01*
D12*
X-15000000Y52250000D02*
X-15000000Y51950000D01*
D12*
X-1725000Y50525000D02*
X-1725000Y51475000D01*
D12*
X14250000Y26625000D02*
X14250000Y24000000D01*
D12*
X10000000Y12050000D02*
X9600000Y12050000D01*
D12*
X-16300000Y38550000D02*
X-16000000Y38250000D01*
D12*
X-11930010Y19570000D02*
X-13500010Y18000000D01*
D12*
X-4325000Y51176054D02*
X-5250000Y52101054D01*
D12*
X-17000000Y44300000D02*
X-17000000Y45000000D01*
D12*
X7600000Y20650000D02*
X8650000Y20650000D01*
D12*
X-18200000Y46300000D02*
X-20950000Y46300000D01*
D12*
X6499944Y35750008D02*
X6499944Y37199944D01*
D12*
X-7750000Y31750000D02*
X-7800000Y31800000D01*
D12*
X-14750000Y10500000D02*
X-14300000Y10050000D01*
D12*
X-6000000Y27430000D02*
X-6000000Y33000000D01*
D14*
X2839574Y41783750D02*
X4136250Y41783750D01*
D12*
X-17000000Y40950000D02*
X-17000000Y40250000D01*
D12*
X-1725000Y51475000D02*
X-2250000Y52000000D01*
D12*
X-11930000Y19570000D02*
X-11930010Y19570000D01*
D12*
X-14200000Y62700000D02*
X-14250000Y62750000D01*
D12*
X-4750000Y38000000D02*
X-4750000Y37000000D01*
D12*
X15450000Y52750000D02*
X15450000Y53450000D01*
D12*
X-13250000Y61700000D02*
X-13250000Y62750000D01*
D12*
X6500000Y67500000D02*
X6500000Y66690000D01*
D12*
X10851002Y43750000D02*
X11351002Y44250000D01*
D12*
X10424999Y45174999D02*
X10254999Y45174999D01*
D12*
X6000000Y16250000D02*
X5500000Y16750000D01*
D12*
X-2050000Y43200000D02*
X-2000000Y43250000D01*
D12*
X3500000Y67500000D02*
X3750000Y67750000D01*
D12*
X-14500000Y54990000D02*
X-12924990Y53414990D01*
D12*
X-8900000Y6600000D02*
X-9900000Y6600000D01*
D12*
X-12924990Y53414990D02*
X-12924990Y47515374D01*
D12*
X-2250000Y1125000D02*
X-2250000Y3000000D01*
D12*
X-13499989Y29999989D02*
X-12175010Y28675010D01*
D12*
X-13074979Y30324979D02*
X-13074979Y43524979D01*
D13*
X-9250056Y61499944D02*
X-10250008Y61499944D01*
D14*
X216250Y27160426D02*
X1216250Y28160426D01*
D12*
X14950000Y68050000D02*
X14950000Y67500000D01*
D12*
X-18650000Y50850000D02*
X-18650000Y49850000D01*
D12*
X13550000Y67500000D02*
X11750000Y65700000D01*
D12*
X-8125000Y48750000D02*
X-4975000Y45600000D01*
D12*
X-20250000Y50750000D02*
X-20250000Y52250000D01*
D12*
X-18500000Y40250000D02*
X-18250000Y40000000D01*
D12*
X9500000Y49000000D02*
X9500000Y48050000D01*
D12*
X12000000Y12250000D02*
X11750000Y12000000D01*
D12*
X23000000Y27850000D02*
X23000000Y30500000D01*
D12*
X16425000Y49925000D02*
X16425000Y50489704D01*
D14*
X-216250Y27339574D02*
X783750Y28339574D01*
D12*
X16250000Y28699998D02*
X17550000Y28699998D01*
D12*
X-1500000Y35898946D02*
X-1500000Y29250000D01*
D13*
X-1249944Y64749944D02*
X-1250000Y64750000D01*
D12*
X8250000Y16250000D02*
X8500000Y16000000D01*
D12*
X13250000Y18000000D02*
X13000000Y17750000D01*
D12*
X-2500000Y22750000D02*
X-2250000Y23000000D01*
D12*
X11485704Y18507148D02*
X11485704Y17235704D01*
D12*
X7000000Y37700000D02*
X6550000Y37250000D01*
D12*
X-1500000Y61200000D02*
X-1550000Y61250000D01*
D12*
X-13500000Y11500000D02*
X-13500000Y12200000D01*
D12*
X19500000Y64000000D02*
X20094990Y63405010D01*
D12*
X13750000Y28200000D02*
X13800000Y28250000D01*
D12*
X-17300000Y35200000D02*
X-17250000Y35250000D01*
D12*
X15500000Y6450000D02*
X14300000Y6450000D01*
D12*
X15000000Y72000000D02*
X15000000Y69250000D01*
D12*
X9000000Y45580000D02*
X9580000Y45580000D01*
D12*
X3000008Y50000056D02*
X3800000Y49200064D01*
D12*
X9250000Y6500000D02*
X9250000Y8250000D01*
D12*
X-3320000Y22750000D02*
X-2500000Y22750000D01*
D12*
X-2250000Y52000000D02*
X-2250000Y52675000D01*
D12*
X-9900000Y6600000D02*
X-10000000Y6500000D01*
D12*
X-17300000Y34600000D02*
X-17300000Y35200000D01*
D12*
X15301054Y44750000D02*
X13801054Y46250000D01*
D12*
X13800000Y55200000D02*
X13500000Y55500000D01*
D12*
X-8000000Y27430000D02*
X-8000000Y28148998D01*
D12*
X20650000Y28599998D02*
X20750000Y28699998D01*
D12*
X6500000Y18500000D02*
X6500000Y20500000D01*
D12*
X15250000Y30250000D02*
X15250000Y30000000D01*
D12*
X17500000Y34750000D02*
X21050000Y34750000D01*
D12*
X4367863Y53750000D02*
X724692Y53750000D01*
D12*
X-10750000Y28250000D02*
X-10500000Y28000000D01*
D12*
X-15500000Y47000000D02*
X-15250000Y46750000D01*
D12*
X5750000Y32999944D02*
X7499944Y31250000D01*
D12*
X5738317Y57112685D02*
X7140563Y55710439D01*
D12*
X15450000Y64100000D02*
X15450000Y64700000D01*
D12*
X5500000Y67190000D02*
X5500000Y66690000D01*
D12*
X-20700000Y34200000D02*
X-21000000Y34500000D01*
D12*
X-7500056Y35500008D02*
X-8499992Y35500008D01*
D12*
X-15700056Y57250008D02*
X-16000008Y57250008D01*
D12*
X5500000Y45580000D02*
X5500000Y47101002D01*
D12*
X13800000Y63300000D02*
X13500000Y63000000D01*
D12*
X-16000000Y19050000D02*
X-16000000Y18000000D01*
D12*
X-11180000Y25250000D02*
X-13750000Y25250000D01*
D12*
X21270000Y52460000D02*
X20000000Y53730000D01*
D12*
X-2600000Y31450000D02*
X-2600000Y31900000D01*
D14*
X15783750Y19033750D02*
X15500000Y18750000D01*
D12*
X-18200000Y38150000D02*
X-18200000Y37550000D01*
D13*
X5300000Y28200000D02*
X4300000Y28200000D01*
D12*
X11400000Y31900000D02*
X11400000Y32650000D01*
D12*
X3750000Y16800000D02*
X3700000Y16750000D01*
D12*
X17250000Y25500000D02*
X15000000Y23250000D01*
D12*
X-8000000Y19570000D02*
X-8000000Y18000000D01*
D14*
X4136250Y43716250D02*
X410426Y43716250D01*
D12*
X5500000Y41250000D02*
X5750000Y41500000D01*
D12*
X22750000Y56480000D02*
X22750000Y63250000D01*
D12*
X-16550000Y61450000D02*
X-16500000Y61500000D01*
D12*
X-11180000Y20750000D02*
X-11705000Y20750000D01*
D12*
X-4325000Y44975000D02*
X-4325000Y45600000D01*
D12*
X11250000Y26000000D02*
X11000000Y26250000D01*
D12*
X-12300000Y9650000D02*
X-13200000Y9650000D01*
D12*
X-9035000Y48000000D02*
X-10635000Y49600000D01*
D12*
X-11180000Y25750000D02*
X-13648946Y25750000D01*
D12*
X20500000Y33500000D02*
X20000000Y34000000D01*
D12*
X1500000Y2750000D02*
X1500000Y4000000D01*
D12*
X6500000Y6750000D02*
X6500000Y11250000D01*
D12*
X-20770000Y20770000D02*
X-20750000Y20750000D01*
D12*
X14550000Y57150000D02*
X14550000Y56550000D01*
D13*
X3500000Y36250000D02*
X3500000Y34750000D01*
D12*
X-12750008Y57250008D02*
X-12750000Y57250000D01*
D12*
X-8750000Y12450000D02*
X-8750000Y11750000D01*
D12*
X-4750000Y37000000D02*
X-4000000Y36250000D01*
D14*
X5216250Y62839574D02*
X5216250Y63500000D01*
D12*
X-23100000Y20770000D02*
X-20770000Y20770000D01*
D12*
X-17000000Y42050000D02*
X-17700000Y42050000D01*
D12*
X14250000Y71000000D02*
X14250000Y68750000D01*
D12*
X14300000Y40405000D02*
X16095000Y40405000D01*
D12*
X14300000Y53300000D02*
X14500000Y53500000D01*
D12*
X14300000Y35000000D02*
X14300000Y35700000D01*
D12*
X-7500000Y59250000D02*
X-7750000Y59500000D01*
D12*
X13800000Y49050000D02*
X13000000Y48250000D01*
D12*
X-8900000Y7900000D02*
X-9650000Y7900000D01*
D12*
X2000000Y66690000D02*
X2000000Y68340000D01*
D12*
X-17800000Y30700000D02*
X-17750000Y30750000D01*
D12*
X-7800000Y33000000D02*
X-8250000Y33000000D01*
D12*
X19350000Y30650000D02*
X19000000Y31000000D01*
D12*
X5450000Y37250000D02*
X5250000Y37250000D01*
D12*
X11625000Y23000000D02*
X10350346Y23000000D01*
D12*
X-18500000Y43200000D02*
X-17800000Y43200000D01*
D12*
X13950000Y71300000D02*
X14250000Y71000000D01*
D12*
X-7100000Y8900000D02*
X-7450000Y9250000D01*
D12*
X-11250000Y7250000D02*
X-10750000Y6750000D01*
D12*
X-2351054Y36750000D02*
X-1500000Y35898946D01*
D12*
X-17300000Y45900000D02*
X-17300000Y45300000D01*
D12*
X10424999Y59174999D02*
X10424999Y45174999D01*
D12*
X7000000Y15250000D02*
X6500000Y15250000D01*
D12*
X15450000Y50700000D02*
X15500000Y50750000D01*
D12*
X-7500000Y18500000D02*
X-7000000Y18000000D01*
D12*
X-6500000Y55750000D02*
X-12000001Y55749999D01*
D12*
X21750000Y31750000D02*
X14750000Y31750000D01*
D12*
X3000000Y2750000D02*
X3000000Y4000000D01*
D12*
X-15250000Y6700000D02*
X-15700000Y6700000D01*
D12*
X3800000Y14000000D02*
X3800000Y13300000D01*
D12*
X18300000Y18000000D02*
X18300000Y18700000D01*
D13*
X7800000Y21950000D02*
X8000000Y21750000D01*
D12*
X-4500000Y28250000D02*
X-4250000Y28500000D01*
D12*
X-4975000Y51225000D02*
X-5750000Y52000000D01*
D12*
X19500000Y56250000D02*
X17750000Y56250000D01*
D12*
X-11300000Y18000000D02*
X-11300000Y18636826D01*
D12*
X5400000Y20650000D02*
X3600000Y20650000D01*
D12*
X-14998998Y50850000D02*
X-14424999Y50276001D01*
D12*
X12000000Y30000000D02*
X14000000Y30000000D01*
D13*
X-12100000Y60250000D02*
X-11850000Y60500000D01*
D12*
X5700000Y48300000D02*
X5700000Y49250000D01*
D12*
X-25040000Y40500000D02*
X-22000000Y40500000D01*
D12*
X7500000Y38500000D02*
X7750000Y38250000D01*
D12*
X-6000000Y7250000D02*
X-5775010Y7025010D01*
D12*
X-4500000Y7750000D02*
X-1500000Y4750000D01*
D12*
X-3050000Y38000000D02*
X-3050000Y39050000D01*
D12*
X-7759818Y38972320D02*
X-7709818Y38922320D01*
D12*
X-15500000Y47760000D02*
X-15500000Y47000000D01*
D12*
X-17200000Y49500000D02*
X-17200000Y48800000D01*
D12*
X17750000Y64000000D02*
X19500000Y64000000D01*
D12*
X-26900000Y23400000D02*
X-27000000Y23500000D01*
D12*
X-18200000Y32800000D02*
X-18250000Y32750000D01*
D12*
X-11700000Y52725000D02*
X-10750000Y53675000D01*
D12*
X-15000000Y49240000D02*
X-15000000Y50000000D01*
D12*
X20000000Y53730000D02*
X20000000Y55750000D01*
D12*
X14750000Y32500000D02*
X14750000Y31750000D01*
D12*
X14300000Y50950000D02*
X14500000Y50750000D01*
D14*
X2660426Y42216250D02*
X4136250Y42216250D01*
D12*
X16550000Y53450000D02*
X16500000Y53500000D01*
D12*
X10250000Y33750000D02*
X10250000Y32750000D01*
D12*
X17750000Y19250000D02*
X18000000Y19000000D01*
D12*
X-18200000Y38550000D02*
X-21450000Y38550000D01*
D12*
X5750000Y14500000D02*
X5250000Y14000000D01*
D12*
X-14300000Y10050000D02*
X-13200000Y10050000D01*
D12*
X11450000Y15750000D02*
X11500000Y15700000D01*
D12*
X-17700000Y42050000D02*
X-17750000Y42000000D01*
D12*
X18300000Y17000000D02*
X18250000Y16950000D01*
D12*
X18375000Y25500000D02*
X17250000Y25500000D01*
D12*
X-50000Y10000000D02*
X-50000Y8750000D01*
D12*
X7750000Y14500000D02*
X7750000Y13750000D01*
D12*
X6750000Y12750000D02*
X6300000Y12750000D01*
D12*
X-750000Y4900000D02*
X-3500000Y7650000D01*
D12*
X-15500000Y35760000D02*
X-15500000Y35000000D01*
D12*
X3613590Y20000000D02*
X2500000Y21113590D01*
D12*
X7650000Y28250000D02*
X7700000Y28200000D01*
D12*
X15450000Y54400000D02*
X15450000Y53550000D01*
D12*
X-11905000Y45050000D02*
X-11905000Y43355000D01*
D12*
X14550000Y57950000D02*
X12800000Y57950000D01*
D12*
X-18200000Y34200000D02*
X-20700000Y34200000D01*
D12*
X-1750000Y52250000D02*
X-1750000Y52675000D01*
D12*
X-10500000Y8000000D02*
X-10500000Y11000000D01*
D12*
X-6050000Y18300000D02*
X-6250000Y18500000D01*
D12*
X2000000Y66690000D02*
X2000000Y66000000D01*
D12*
X-16850000Y52650000D02*
X-16750000Y52750000D01*
D12*
X-17300000Y39950000D02*
X-17250000Y40000000D01*
D12*
X-15500000Y49525308D02*
X-15987346Y50012654D01*
D12*
X-7450000Y9250000D02*
X-6750000Y9250000D01*
D12*
X750000Y61200000D02*
X750000Y61750000D01*
D14*
X5500000Y65750000D02*
X5500000Y66690000D01*
D12*
X20750000Y28699998D02*
X20750000Y28000000D01*
D12*
X13500000Y67550000D02*
X13550000Y67500000D01*
D12*
X6800000Y52100000D02*
X6600000Y51900000D01*
D12*
X17000000Y50730000D02*
X18730000Y52460000D01*
D12*
X-11250008Y35249944D02*
X-12249944Y35249944D01*
D12*
X13200000Y51500000D02*
X13200000Y50800000D01*
D12*
X9250000Y18250000D02*
X9500000Y18500000D01*
D12*
X16000000Y38750000D02*
X16000000Y35750000D01*
D12*
X19197892Y23000000D02*
X20197892Y22000000D01*
D14*
X5216250Y63500000D02*
X5216250Y64466250D01*
D12*
X-50000Y10700000D02*
X0Y10750000D01*
D12*
X-5500056Y37000056D02*
X-5750000Y37250000D01*
D12*
X17650000Y29899998D02*
X16350000Y29899998D01*
D12*
X13000000Y6450000D02*
X14200000Y6450000D01*
D12*
X19298946Y23500000D02*
X19798946Y23000000D01*
D12*
X13200000Y52750000D02*
X13200000Y53450000D01*
D12*
X-8750000Y14700000D02*
X-8050000Y14700000D01*
D12*
X-9250000Y52500000D02*
X-9250000Y53675000D01*
D12*
X15500000Y8050000D02*
X15500000Y9300000D01*
D12*
X-9550000Y30500000D02*
X-10250000Y30500000D01*
D12*
X-5500000Y32750000D02*
X-4650000Y33600000D01*
D12*
X-18650000Y55150000D02*
X-19400000Y55150000D01*
D12*
X-16550000Y46300000D02*
X-14750000Y44500000D01*
D12*
X-13900000Y10450000D02*
X-13200000Y10450000D01*
D12*
X-2750000Y2500000D02*
X-3000000Y2750000D01*
D12*
X6500000Y23500000D02*
X6500000Y24250000D01*
D12*
X8351054Y23750000D02*
X10101054Y22000000D01*
D14*
X4170000Y44250000D02*
X4136250Y44283750D01*
D12*
X4100000Y58550000D02*
X4000000Y58450000D01*
D12*
X-980000Y12230000D02*
X-2384990Y10825010D01*
D12*
X-7759818Y40872320D02*
X-7709818Y40922320D01*
D12*
X3950000Y58500000D02*
X4000000Y58450000D01*
D12*
X10500000Y6450000D02*
X9300000Y6450000D01*
D12*
X6800000Y50400000D02*
X6600000Y50600000D01*
D12*
X-6450000Y13550000D02*
X-6500000Y13500000D01*
D12*
X-25800000Y62500000D02*
X-26750000Y62500000D01*
D12*
X-12450000Y7900000D02*
X-12750000Y7600000D01*
D12*
X-10250000Y54825000D02*
X-9750000Y54825000D01*
D12*
X-18200000Y39350000D02*
X-18200000Y39950000D01*
D12*
X-11806054Y21250000D02*
X-14750000Y18306054D01*
D12*
X13200000Y35000000D02*
X12500000Y35000000D01*
D12*
X-4500000Y18750000D02*
X-4750000Y18500000D01*
D12*
X-74980Y38250000D02*
X-1Y38324979D01*
D12*
X-14250000Y7250000D02*
X-14800000Y7800000D01*
D12*
X5250000Y18000000D02*
X5750000Y18000000D01*
D12*
X-29000000Y25250000D02*
X-24930010Y29319990D01*
D12*
X11351002Y44250000D02*
X11500000Y44250000D01*
D12*
X-14500000Y53510000D02*
X-14500000Y53250000D01*
D12*
X19700000Y40405000D02*
X19700000Y40950000D01*
D12*
X7000000Y48000000D02*
X7525010Y48525010D01*
D12*
X-2000000Y40750000D02*
X-1000000Y39750000D01*
D12*
X-2799991Y5436401D02*
X-2799990Y4186400D01*
D12*
X10101054Y22000000D02*
X11625000Y22000000D01*
D14*
X3160426Y41216250D02*
X2283750Y40339574D01*
D14*
X216250Y18339574D02*
X216250Y27160426D01*
D12*
X-11850020Y29100020D02*
X-13074979Y30324979D01*
D12*
X-25069990Y37989990D02*
X-22010010Y37989990D01*
D12*
X10700000Y29500000D02*
X9600000Y30600000D01*
D12*
X6000000Y66000000D02*
X6000000Y66690000D01*
D12*
X-20450000Y38950000D02*
X-22000000Y40500000D01*
D12*
X8500000Y46500000D02*
X8750000Y46750000D01*
D14*
X-250000Y1125000D02*
X-216250Y1158750D01*
D12*
X14550000Y49850000D02*
X14550000Y50700000D01*
D12*
X12000000Y17750000D02*
X12000001Y18250001D01*
D12*
X14550000Y50700000D02*
X14500000Y50750000D01*
D12*
X-26900000Y19500000D02*
X-26900000Y18350000D01*
D12*
X-12750000Y7250000D02*
X-14250000Y7250000D01*
D12*
X15450000Y60000000D02*
X15450000Y59300000D01*
D12*
X-2050000Y42500000D02*
X-2050000Y43200000D01*
D14*
X247488Y42941664D02*
X247488Y42752512D01*
D12*
X11700000Y57550000D02*
X11000000Y58250000D01*
D12*
X-7000000Y46500000D02*
X-8500000Y48000000D01*
D12*
X12700000Y28250000D02*
X12000000Y28250000D01*
D12*
X10200000Y31900000D02*
X10850000Y31250000D01*
D14*
X15783750Y19841250D02*
X15783750Y19089574D01*
D12*
X5000000Y39920000D02*
X5000000Y38750000D01*
D12*
X-7000000Y44000000D02*
X-7000000Y46500000D01*
D12*
X-11180000Y26250000D02*
X-12550000Y26250000D01*
D12*
X7495000Y24750000D02*
X6500000Y23755000D01*
D12*
X17300000Y41550000D02*
X17250000Y41500000D01*
D12*
X13000000Y8050000D02*
X13000000Y9300000D01*
D12*
X14550000Y49450000D02*
X13800000Y49450000D01*
D12*
X-17300000Y45300000D02*
X-17250000Y45250000D01*
D12*
X-6250000Y52250000D02*
X-6250000Y52675000D01*
D12*
X-3500000Y9750000D02*
X-4000000Y9750000D01*
D12*
X8500000Y16000000D02*
X8000000Y16500000D01*
D12*
X16750000Y19875000D02*
X16750000Y19250000D01*
D12*
X10500000Y8050000D02*
X10500000Y9300000D01*
D12*
X5500000Y16750000D02*
X4800000Y16750000D01*
D12*
X19400000Y24000000D02*
X18375000Y24000000D01*
D12*
X3500000Y69250000D02*
X3500000Y69750000D01*
D12*
X-23100000Y22040000D02*
X-20790000Y22040000D01*
D12*
X-5000000Y10500000D02*
X-5000000Y9750000D01*
D12*
X21270000Y55000000D02*
X22750000Y56480000D01*
D12*
X-5500056Y34775008D02*
X-6000000Y34275064D01*
D12*
X15500000Y15500000D02*
X16250000Y15500000D01*
D12*
X14000000Y30850000D02*
X14000000Y30000000D01*
D12*
X-5625000Y50525000D02*
X-5625000Y51150000D01*
D12*
X-11100000Y15400000D02*
X-11000000Y15500000D01*
D12*
X-13700000Y51750000D02*
X-13700000Y51200000D01*
D12*
X-14500000Y49675000D02*
X-14500000Y49240000D01*
D12*
X-14200000Y61700000D02*
X-14200000Y62700000D01*
D12*
X-8500000Y27430000D02*
X-8500000Y24750000D01*
D12*
X6500000Y23755000D02*
X6500000Y23500000D01*
D12*
X-21450000Y38550000D02*
X-22000000Y38000000D01*
D12*
X-16250000Y51500000D02*
X-16000000Y51750000D01*
D12*
X8452108Y24250000D02*
X8145000Y24250000D01*
D12*
X-9500000Y19570000D02*
X-9500000Y18700000D01*
D12*
X10250000Y34750000D02*
X8750000Y34750000D01*
D12*
X-13650000Y6600000D02*
X-15150000Y6600000D01*
D12*
X-14750000Y44500000D02*
X-14750000Y44250000D01*
D12*
X11800000Y29250000D02*
X11800000Y29272127D01*
D12*
X20000000Y24700000D02*
X20000000Y25700000D01*
D12*
X-9500000Y28500000D02*
X-10100020Y29100020D01*
D14*
X1716250Y16839574D02*
X216250Y18339574D01*
D12*
X-1Y38750001D02*
X-250000Y39000000D01*
D14*
X3808336Y32747488D02*
X3997488Y32747488D01*
D12*
X-7000000Y18950000D02*
X-6550000Y18500000D01*
D12*
X15450000Y49450000D02*
X15950000Y49450000D01*
D12*
X5312325Y56687675D02*
X6500000Y55500000D01*
D12*
X17250000Y19875000D02*
X17250000Y21000000D01*
D12*
X6250000Y17000000D02*
X6500000Y16750000D01*
D12*
X10550000Y12950000D02*
X10750000Y12750000D01*
D12*
X21250000Y42750000D02*
X21250000Y44059636D01*
D12*
X14300000Y59450000D02*
X14500000Y59250000D01*
D12*
X16550000Y60000000D02*
X17250000Y60000000D01*
D12*
X-3675000Y30375000D02*
X-4434636Y30375000D01*
D12*
X-8450000Y62300000D02*
X-8500000Y62250000D01*
D12*
X19700000Y39135000D02*
X19700000Y40405000D01*
D12*
X-4325000Y50525000D02*
X-4325000Y51176054D01*
D12*
X5180000Y24250000D02*
X4500000Y24250000D01*
D12*
X-18300000Y37450000D02*
X-18250000Y37500000D01*
D12*
X-18500000Y40950000D02*
X-18500000Y40250000D01*
D12*
X-13700000Y51200000D02*
X-13500000Y51000000D01*
D12*
X-5750000Y52000000D02*
X-5750000Y52675000D01*
D12*
X-20150000Y52150000D02*
X-20250000Y52250000D01*
D12*
X-11550000Y10050000D02*
X-11250000Y9750000D01*
D12*
X-3513347Y55837655D02*
X4412345Y55837655D01*
D12*
X4975000Y14750000D02*
X5250000Y15025000D01*
D12*
X-16000008Y57250008D02*
X-16750000Y58000000D01*
D12*
X-18300000Y55500000D02*
X-18650000Y55150000D01*
D12*
X6000000Y39920000D02*
X6000000Y39000000D01*
D12*
X-9000000Y27430000D02*
X-9000000Y29250000D01*
D12*
X-9750000Y54825000D02*
X-9250000Y54825000D01*
D12*
X11400000Y30600000D02*
X12000000Y30000000D01*
D12*
X14550000Y48650000D02*
X15450000Y48650000D01*
D12*
X-4750000Y54601002D02*
X-3513347Y55837655D01*
D12*
X4100000Y46250000D02*
X4050000Y46300000D01*
D12*
X5750000Y18000000D02*
X6250000Y17500000D01*
D12*
X13000000Y11100000D02*
X12500000Y11600000D01*
D12*
X15450000Y48650000D02*
X15450000Y48050000D01*
D12*
X3550000Y37450000D02*
X3500000Y37500000D01*
D12*
X-15500000Y49240000D02*
X-15500000Y49525308D01*
D12*
X14950000Y67500000D02*
X14950000Y66050000D01*
D12*
X12250000Y27000000D02*
X12000000Y27250000D01*
D12*
X-17200000Y56500000D02*
X-17200000Y57050000D01*
D12*
X-7000000Y59250000D02*
X-7500000Y59250000D01*
D12*
X-24930010Y32909990D02*
X-23730000Y34110000D01*
D12*
X4412345Y55837655D02*
X5750000Y54500000D01*
D12*
X-2384990Y10825010D02*
X-4674990Y10825010D01*
D12*
X16700000Y63700000D02*
X15450000Y63700000D01*
D12*
X-20950000Y46300000D02*
X-21250000Y46000000D01*
D12*
X6600000Y51900000D02*
X7350000Y51900000D01*
D12*
X15450000Y53450000D02*
X15500000Y53500000D01*
D12*
X17500000Y64500000D02*
X16700000Y63700000D01*
D12*
X5500000Y47101002D02*
X4851002Y47750000D01*
D12*
X-15000000Y35760000D02*
X-15000000Y35500000D01*
D12*
X15200000Y42500000D02*
X14750000Y42950000D01*
D12*
X-3640000Y1125000D02*
X-3640000Y2640000D01*
D12*
X19000000Y31000000D02*
X16000000Y31000000D01*
D12*
X-3200000Y28550000D02*
X-3250000Y28500000D01*
D14*
X1216250Y28160426D02*
X1216250Y40160426D01*
D14*
X216250Y6160426D02*
X1716250Y7660426D01*
D12*
X7000000Y42750000D02*
X8250000Y42750000D01*
D12*
X11750000Y65700000D02*
X11750000Y60500000D01*
D12*
X-17200000Y48800000D02*
X-17250000Y48750000D01*
D12*
X19500000Y16050000D02*
X19500000Y15500000D01*
D12*
X-16250000Y27750000D02*
X-16250000Y33500000D01*
D12*
X-29000000Y17500000D02*
X-29000000Y25250000D01*
D12*
X9000000Y31250000D02*
X7750000Y32500000D01*
D12*
X13800000Y63700000D02*
X13500000Y64000000D01*
D12*
X-6250000Y51775000D02*
X-6250000Y52250000D01*
D12*
X14300000Y51500000D02*
X14300000Y50950000D01*
D12*
X-10000000Y10250000D02*
X-9750000Y10500000D01*
D12*
X-21250000Y65400000D02*
X-21650000Y65400000D01*
D12*
X20300000Y42500000D02*
X21000000Y42500000D01*
D12*
X-11250056Y32000008D02*
X-12249992Y32000008D01*
D12*
X7350000Y51900000D02*
X7525010Y51724990D01*
D12*
X22050000Y17690000D02*
X23000000Y17690000D01*
D12*
X11250000Y43250000D02*
X11500000Y43500000D01*
D12*
X20134626Y45175010D02*
X15477098Y45175010D01*
D12*
X-5500056Y35500008D02*
X-5500056Y37000056D01*
D13*
X-6353561Y62999992D02*
X-1249944Y62999992D01*
D12*
X-13450000Y11100000D02*
X-13450000Y11450000D01*
D12*
X14550000Y57550000D02*
X11700000Y57550000D01*
D12*
X-17124992Y72874992D02*
X-8500000Y64250000D01*
D12*
X11500000Y20500000D02*
X11000000Y20000000D01*
D14*
X4170000Y43250000D02*
X4136250Y43283750D01*
D12*
X3500000Y26250000D02*
X5000000Y24750000D01*
D12*
X-2250000Y3000000D02*
X-3250000Y4000000D01*
D12*
X-16650000Y53850000D02*
X-16250000Y54250000D01*
D12*
X-6050000Y42250000D02*
X-5400010Y41600010D01*
D12*
X15750000Y26625000D02*
X15750000Y28199998D01*
D12*
X-750000Y1125000D02*
X-750000Y4900000D01*
D12*
X5000000Y24750000D02*
X5180000Y24750000D01*
D12*
X-12924990Y47075010D02*
X-14250000Y45750000D01*
D12*
X14550000Y57150000D02*
X15450000Y57150000D01*
D12*
X-11905000Y45050000D02*
X-11905000Y46345000D01*
D12*
X20197892Y22000000D02*
X20250000Y22000000D01*
D12*
X-18500000Y30700000D02*
X-17800000Y30700000D01*
D12*
X-9365000Y49365000D02*
X-8750000Y48750000D01*
D12*
X9500000Y46950000D02*
X8950000Y46950000D01*
D12*
X-11250000Y38250000D02*
X-11250000Y38882138D01*
D12*
X-15824990Y27926044D02*
X-15824990Y33774990D01*
D12*
X-1500000Y59990000D02*
X-1500000Y61200000D01*
D12*
X9300000Y6450000D02*
X9250000Y6500000D01*
D12*
X-18200000Y33400000D02*
X-18200000Y32800000D01*
D12*
X-2700000Y33700000D02*
X-2600000Y33600000D01*
D12*
X5250000Y58414176D02*
X5250000Y58550000D01*
D13*
X5200000Y22500000D02*
X4500000Y22500000D01*
D12*
X20000000Y23800000D02*
X21490000Y23800000D01*
D12*
X8750000Y12800000D02*
X8700000Y12800000D01*
D12*
X5250000Y49250000D02*
X5700000Y49250000D01*
D12*
X-17200000Y57050000D02*
X-17000000Y57250000D01*
D12*
X6250000Y11500000D02*
X6250000Y12700000D01*
D13*
X-10250008Y59499944D02*
X-10250008Y58500008D01*
D12*
X10500000Y24500000D02*
X9250000Y25750000D01*
D12*
X18700000Y43750000D02*
X18700000Y42500000D01*
D12*
X-3184646Y37175010D02*
X-3750000Y37740364D01*
D14*
X250000Y1125000D02*
X216250Y1158750D01*
D14*
X4136250Y40783750D02*
X3339574Y40783750D01*
D13*
X1750000Y20000000D02*
X1750000Y22200000D01*
D12*
X14550000Y54800000D02*
X12800000Y54800000D01*
D12*
X13750000Y27500000D02*
X13750000Y28200000D01*
D12*
X-8450000Y30500000D02*
X-8450000Y28598998D01*
D12*
X-5400010Y41600010D02*
X-5400010Y38650010D01*
D12*
X-17000000Y31800000D02*
X-17000000Y32500000D01*
D12*
X13500000Y69050000D02*
X13500000Y67550000D01*
D12*
X-17200000Y55500000D02*
X-16850000Y55150000D01*
D12*
X-5500000Y27430000D02*
X-5500000Y32750000D01*
D12*
X14750000Y44000000D02*
X14000000Y44750000D01*
D12*
X-6275000Y48525000D02*
X-6250000Y48500000D01*
D12*
X6250000Y67750000D02*
X6500000Y67500000D01*
D12*
X7820000Y24750000D02*
X7495000Y24750000D01*
D12*
X-1074990Y29073956D02*
X-1074990Y36074990D01*
D12*
X5500000Y10200000D02*
X5500000Y10750000D01*
D12*
X3500000Y66690000D02*
X3500000Y67500000D01*
D12*
X21270000Y57540000D02*
X20060000Y58750000D01*
D12*
X-2799990Y4186400D02*
X-1750000Y3136410D01*
D12*
X5500000Y10750000D02*
X4750000Y11500000D01*
D14*
X1339574Y44716250D02*
X-2512Y46058336D01*
D12*
X-13924999Y38276001D02*
X-13924999Y36750001D01*
D14*
X1160426Y44283750D02*
X-308336Y45752512D01*
D12*
X-12500000Y28250000D02*
X-10750000Y28250000D01*
D12*
X-13750000Y25250000D02*
X-16250000Y27750000D01*
D12*
X-1000000Y59990000D02*
X-1000000Y60700000D01*
D12*
X-3675000Y51175000D02*
X-4750000Y52250000D01*
D12*
X-10300000Y12438002D02*
X-8861998Y11000000D01*
D12*
X-2375000Y50525000D02*
X-2375000Y51375000D01*
D12*
X16000000Y31000000D02*
X15250000Y30250000D01*
D12*
X-17000000Y32500000D02*
X-17250000Y32750000D01*
D12*
X15450000Y58350000D02*
X15450000Y59200000D01*
D14*
X2716250Y40160426D02*
X2716250Y33839574D01*
D12*
X-17300000Y60500000D02*
X-17250000Y60550000D01*
D12*
X7820000Y23250000D02*
X8250000Y23250000D01*
D12*
X13750000Y19875000D02*
X13750000Y17500000D01*
D12*
X8750000Y11700000D02*
X8750000Y11000000D01*
D12*
X-8450000Y31199952D02*
X-9250056Y32000008D01*
D12*
X13800000Y49450000D02*
X13500000Y49750000D01*
D14*
X16216250Y19160426D02*
X16216250Y19033750D01*
D12*
X-4500000Y27430000D02*
X-4500000Y28250000D01*
D12*
X-11180000Y22750000D02*
X-13250000Y22750000D01*
D13*
X-450000Y61250000D02*
X-450000Y61799936D01*
D12*
X18375000Y23500000D02*
X19298946Y23500000D01*
D12*
X-8759818Y38972320D02*
X-7759818Y38972320D01*
D14*
X3502512Y32441664D02*
X3502512Y32252512D01*
D12*
X-13250000Y59300000D02*
X-13250000Y58650000D01*
D12*
X-3200000Y29250000D02*
X-3200000Y28550000D01*
D12*
X-15000000Y51950000D02*
X-14800000Y51750000D01*
D12*
X15950000Y49450000D02*
X16425000Y49925000D01*
D12*
X2500000Y22250000D02*
X1800000Y22250000D01*
D12*
X12750000Y19000000D02*
X12250000Y18500000D01*
D12*
X-4325000Y44975000D02*
X-4325000Y41325000D01*
D12*
X13750000Y17500000D02*
X11950000Y15700000D01*
D12*
X-25800000Y65500000D02*
X-26750000Y65500000D01*
D12*
X-17200000Y56500000D02*
X-17200000Y55500000D01*
D12*
X-17250000Y61450000D02*
X-16550000Y61450000D01*
D12*
X-13450000Y27550000D02*
X-13500000Y27500000D01*
D12*
X-6000000Y34275064D02*
X-6000000Y33000000D01*
D12*
X-8450000Y62750000D02*
X-8450000Y62300000D01*
D12*
X-6450000Y13450000D02*
X-6500000Y13500000D01*
D12*
X14000000Y44750000D02*
X12250000Y44750000D01*
D12*
X-3320000Y26250000D02*
X-2601002Y26250000D01*
D13*
X-17730056Y12999944D02*
X-20250008Y12999944D01*
D12*
X11550000Y34700000D02*
X11250000Y35000000D01*
D12*
X4250000Y37450000D02*
X3550000Y37450000D01*
D12*
X-18200000Y33800000D02*
X-19950000Y33800000D01*
D12*
X16095000Y40405000D02*
X17500000Y39000000D01*
D12*
X5499944Y30000008D02*
X3999992Y30000008D01*
D12*
X15500000Y11100000D02*
X15000000Y11600000D01*
D12*
X2750000Y2500000D02*
X3000000Y2750000D01*
D12*
X11500000Y45250000D02*
X11500000Y52750000D01*
D12*
X-8500000Y24750000D02*
X-7250000Y23500000D01*
D12*
X-11300000Y18636826D02*
X-11218413Y18718413D01*
D12*
X3999992Y30000008D02*
X3750000Y30250000D01*
D12*
X8250000Y17500000D02*
X8250000Y16250000D01*
D12*
X-6250000Y53825000D02*
X-6250000Y54904164D01*
D13*
X12000000Y68500000D02*
X12000000Y67750000D01*
D12*
X-20770000Y18230000D02*
X-20750000Y18250000D01*
D12*
X-9550000Y62750000D02*
X-10500000Y62750000D01*
D12*
X-1250000Y1125000D02*
X-1250000Y3500000D01*
D12*
X-2700000Y35950000D02*
X-2750000Y36000000D01*
D12*
X20700000Y25700000D02*
X20750000Y25750000D01*
D14*
X15750000Y19875000D02*
X15783750Y19841250D01*
D12*
X12000001Y18250001D02*
X12250000Y18500000D01*
D12*
X-8550000Y9250000D02*
X-9250000Y9250000D01*
D14*
X7533750Y45613750D02*
X7533750Y47339574D01*
D12*
X-7100000Y7900000D02*
X-7100000Y8900000D01*
D14*
X4170000Y44750000D02*
X4136250Y44716250D01*
D12*
X5250000Y58550000D02*
X4100000Y58550000D01*
D12*
X10300000Y21000000D02*
X10250000Y21050000D01*
D12*
X-15500000Y38000000D02*
X-15250000Y38250000D01*
D12*
X-10750000Y6750000D02*
X-10750000Y6250000D01*
D12*
X-26270000Y36650000D02*
X-24930010Y35310010D01*
D12*
X3000000Y22250000D02*
X3000000Y23250000D01*
D12*
X-6950000Y42800000D02*
X-6950000Y42250000D01*
D12*
X15450000Y48050000D02*
X15500000Y48000000D01*
D12*
X-11850000Y7250000D02*
X-11250000Y7250000D01*
D12*
X19700000Y37865000D02*
X19700000Y39135000D01*
D12*
X14550000Y53550000D02*
X14500000Y53500000D01*
D12*
X7500000Y39920000D02*
X7500000Y38500000D01*
D12*
X-12500000Y56250000D02*
X-7000000Y56250000D01*
D12*
X-12300000Y12000000D02*
X-12300000Y12700000D01*
D12*
X-7000000Y27430000D02*
X-7000000Y28750000D01*
D12*
X-1725000Y44025000D02*
X-1750000Y44000000D01*
D12*
X-18350000Y59650000D02*
X-18500000Y59500000D01*
D12*
X-7000000Y19570000D02*
X-7000000Y18950000D01*
D12*
X-26900000Y18350000D02*
X-27000000Y18250000D01*
D12*
X-18300000Y56500000D02*
X-18300000Y55500000D01*
D13*
X-12300000Y60050000D02*
X-12100000Y60250000D01*
D12*
X-250000Y51450000D02*
X-250000Y50750000D01*
D12*
X4500000Y66690000D02*
X4500000Y65750000D01*
D12*
X-6500000Y27430000D02*
X-6500000Y29250000D01*
D12*
X-12175010Y28675010D02*
X-10573956Y28675010D01*
D12*
X-7500000Y27430000D02*
X-7500000Y28500000D01*
D12*
X7850346Y25500000D02*
X6100000Y25500000D01*
D12*
X-26900000Y16400000D02*
X-26250000Y15750000D01*
D12*
X4800000Y38550000D02*
X5000000Y38750000D01*
D12*
X8250000Y23250000D02*
X9500000Y22000000D01*
D12*
X-4434636Y30375000D02*
X-5000000Y29809636D01*
D12*
X-11750000Y26750000D02*
X-12000000Y27000000D01*
D12*
X11400000Y31900000D02*
X13250000Y31900000D01*
D12*
X18530000Y54800000D02*
X18730000Y55000000D01*
D14*
X216250Y1158750D02*
X216250Y6160426D01*
D13*
X7499944Y28400056D02*
X7700000Y28200000D01*
D13*
X-4250000Y61050000D02*
X-4250000Y62250000D01*
D12*
X12000000Y17750000D02*
X12000000Y17000000D01*
D14*
X4136250Y44716250D02*
X1339574Y44716250D01*
D12*
X-11180000Y24750000D02*
X-13851054Y24750000D01*
D12*
X-8050000Y13550000D02*
X-8000000Y13500000D01*
D14*
X2283750Y40339574D02*
X2283750Y33660426D01*
D12*
X-50000Y10000000D02*
X-50000Y10700000D01*
D14*
X410426Y43716250D02*
X-58336Y43247488D01*
D12*
X-13924999Y36750001D02*
X-14175000Y36500000D01*
D12*
X-18350000Y61500000D02*
X-17300000Y61500000D01*
D14*
X4783750Y62660426D02*
X4783750Y65033750D01*
D12*
X21000000Y42500000D02*
X21250000Y42750000D01*
D12*
X-13600000Y9650000D02*
X-14000000Y9250000D01*
D12*
X5250000Y15025000D02*
X5250000Y15500000D01*
D12*
X10500000Y37300000D02*
X10500000Y35000000D01*
D12*
X-1000000Y51500000D02*
X-1750000Y52250000D01*
D12*
X14300000Y60000000D02*
X14300000Y59450000D01*
D12*
X-11905000Y46345000D02*
X-11750000Y46500000D01*
D13*
X9408872Y69500000D02*
X12000000Y69500000D01*
D12*
X-4674990Y10825010D02*
X-5000000Y10500000D01*
D12*
X-18500000Y45000000D02*
X-18250000Y45250000D01*
D12*
X16750000Y19250000D02*
X17000000Y19000000D01*
D14*
X-216250Y1158750D02*
X-216250Y6339574D01*
D13*
X-11850000Y60500000D02*
X-8853553Y60500000D01*
D12*
X17550000Y28699998D02*
X17650000Y28599998D01*
D12*
X-6500000Y29250000D02*
X-7000000Y29750000D01*
D12*
X2500000Y21113590D02*
X2500000Y22250000D01*
D12*
X-7250000Y11239056D02*
X-7250000Y15250000D01*
D14*
X4170000Y43750000D02*
X4136250Y43716250D01*
D12*
X3600000Y20650000D02*
X3000000Y21250000D01*
D12*
X-1500000Y29250000D02*
X-3320000Y27430000D01*
D13*
X-18979952Y16270000D02*
X-20250008Y14999944D01*
D12*
X-6000000Y9388002D02*
X-6000000Y7250000D01*
D12*
X-16850000Y53850000D02*
X-16650000Y53850000D01*
D12*
X21950000Y35700000D02*
X22000000Y35750000D01*
D12*
X-20250000Y65400000D02*
X-19750000Y64900000D01*
D14*
X4136250Y44283750D02*
X1160426Y44283750D01*
D12*
X-1750000Y54474692D02*
X-1487346Y54737346D01*
D12*
X-9365000Y51865000D02*
X-9750000Y52250000D01*
D12*
X-7800000Y31800000D02*
X-7800000Y33000000D01*
D12*
X14550000Y49050000D02*
X13800000Y49050000D01*
D12*
X19950000Y14250000D02*
X21000000Y14250000D01*
D12*
X11485704Y17235704D02*
X11000000Y16750000D01*
D12*
X17750000Y56250000D02*
X16450000Y57550000D01*
D12*
X6250000Y68390000D02*
X6250000Y67750000D01*
D12*
X13750000Y26625000D02*
X13750000Y27500000D01*
D12*
X15750000Y28199998D02*
X16250000Y28699998D01*
D12*
X8700000Y36200000D02*
X8750000Y36250000D01*
D12*
X-15000000Y47760000D02*
X-14500000Y47760000D01*
D12*
X-26270000Y39190000D02*
X-25069990Y37989990D01*
D12*
X21490000Y23800000D02*
X23000000Y25310000D01*
D14*
X8716250Y59339574D02*
X5216250Y62839574D01*
D12*
X-7431302Y39922320D02*
X-6481239Y40872383D01*
D12*
X14750000Y31750000D02*
X14750000Y27250000D01*
D12*
X19600000Y23800000D02*
X19400000Y24000000D01*
D12*
X-6050000Y17750000D02*
X-6050000Y18300000D01*
D12*
X-14250000Y18205000D02*
X-14250000Y10800000D01*
D13*
X7499944Y30000008D02*
X7499944Y28400056D01*
D12*
X-1000000Y60700000D02*
X-450000Y61250000D01*
D12*
X-7450000Y9250000D02*
X-7450000Y9700000D01*
D12*
X-11550000Y10450000D02*
X-11250000Y10750000D01*
D12*
X14750000Y27250000D02*
X14750000Y26625000D01*
D12*
X15700000Y42500000D02*
X15200000Y42500000D01*
D12*
X10750000Y25500000D02*
X11625000Y25500000D01*
D12*
X-15000000Y37240000D02*
X-15000000Y37500000D01*
D12*
X8500000Y45580000D02*
X8500000Y46500000D01*
D12*
X9500000Y22000000D02*
X9500000Y19351002D01*
D12*
X-1750000Y3136410D02*
X-1750000Y1125000D01*
D12*
X-15000000Y54990000D02*
X-15000000Y55750000D01*
D12*
X724692Y53750000D02*
X-262654Y54737346D01*
D12*
X-10300000Y14450000D02*
X-10300000Y15200000D01*
D12*
X8000000Y39920000D02*
X8000000Y39025308D01*
D12*
X-11700000Y52250000D02*
X-11700000Y52725000D01*
D12*
X13950000Y45500000D02*
X12750000Y45500000D01*
D12*
X-13851054Y24750000D02*
X-14351054Y25250000D01*
D12*
X-8050000Y15800000D02*
X-8000000Y15750000D01*
D12*
X-20250000Y73800000D02*
X-19324992Y72874992D01*
D12*
X20560000Y17690000D02*
X22050000Y17690000D01*
D12*
X12600000Y31250000D02*
X13000000Y30850000D01*
D12*
X20750000Y29799998D02*
X19450000Y29799998D01*
D12*
X-1500000Y8750000D02*
X-950000Y8750000D01*
D14*
X-216250Y18160426D02*
X-216250Y27339574D01*
D12*
X-17800000Y43200000D02*
X-17750000Y43250000D01*
D12*
X-18500000Y31800000D02*
X-18500000Y32500000D01*
D12*
X17050000Y14250000D02*
X16500000Y14250000D01*
D12*
X-10750000Y54825000D02*
X-11425000Y54825000D01*
D12*
X14950000Y66050000D02*
X15000000Y66000000D01*
D12*
X-10700000Y15450000D02*
X-10750000Y15500000D01*
D12*
X10500000Y38200000D02*
X10500000Y38750000D01*
D12*
X10250000Y26000000D02*
X10750000Y25500000D01*
D12*
X17250000Y58750000D02*
X16450000Y57950000D01*
D12*
X10700000Y29250000D02*
X10700000Y29500000D01*
D12*
X8000000Y38000000D02*
X7750000Y38250000D01*
D12*
X8650000Y19350000D02*
X8750000Y19250000D01*
D12*
X12750000Y21000000D02*
X15000000Y23250000D01*
D12*
X-11250008Y38249992D02*
X-11250000Y38250000D01*
D12*
X-1000000Y58510000D02*
X-1000000Y59000000D01*
D12*
X-9250056Y33500056D02*
X-9500000Y33750000D01*
D12*
X-11100000Y13550000D02*
X-11100000Y14450000D01*
D12*
X8000000Y8050000D02*
X8000000Y9300000D01*
D12*
X-2575000Y29875000D02*
X-3200000Y29250000D01*
D12*
X7525010Y48525010D02*
X7525010Y51724990D01*
D12*
X-8861998Y11000000D02*
X-7611998Y11000000D01*
D12*
X7000000Y16250000D02*
X6000000Y16250000D01*
D12*
X6500000Y65500000D02*
X6000000Y66000000D01*
D12*
X-12249992Y32000008D02*
X-12250000Y32000000D01*
D12*
X5250000Y68390000D02*
X5250000Y69500000D01*
D12*
X-12750000Y7600000D02*
X-12750000Y7250000D01*
D12*
X-13499989Y42999989D02*
X-14750000Y44250000D01*
D12*
X-7709818Y39922320D02*
X-7431302Y39922320D01*
D12*
X3750000Y16700000D02*
X3700000Y16750000D01*
D12*
X-20250000Y16250000D02*
X-18500000Y18000000D01*
D12*
X8750000Y12900000D02*
X8750000Y12750000D01*
D12*
X10000000Y16250000D02*
X11250000Y16250000D01*
D12*
X4750000Y67940000D02*
X5500000Y67190000D01*
D12*
X5250000Y59450000D02*
X5250000Y60250000D01*
D12*
X4499944Y36499944D02*
X4750000Y36750000D01*
D12*
X7000000Y39920000D02*
X7000000Y37700000D01*
D12*
X9600000Y12050000D02*
X8750000Y12900000D01*
D14*
X16250000Y19875000D02*
X16216250Y19841250D01*
D12*
X-26250000Y15750000D02*
X-21500000Y15750000D01*
D12*
X12250346Y40405000D02*
X14300000Y40405000D01*
D12*
X-6250000Y54904164D02*
X-4041479Y57112685D01*
D12*
X-13250000Y58650000D02*
X-12100000Y57500000D01*
D12*
X-5250000Y54702056D02*
X-3689391Y56262665D01*
D12*
X-10635000Y49600000D02*
X-10635000Y50450000D01*
D14*
X3339574Y40783750D02*
X2716250Y40160426D01*
D14*
X8283750Y59160426D02*
X4783750Y62660426D01*
D12*
X16450000Y57950000D02*
X15450000Y57950000D01*
D12*
X-16850000Y50850000D02*
X-14998998Y50850000D01*
D12*
X-26900000Y16960000D02*
X-28460000Y16960000D01*
D12*
X-8095000Y50450000D02*
X-8095000Y51345000D01*
D12*
X-3025000Y50525000D02*
X-3025000Y51275000D01*
D12*
X11550000Y33750000D02*
X11550000Y34700000D01*
D12*
X-26900000Y20770000D02*
X-26900000Y19500000D01*
D12*
X-3865435Y56687675D02*
X5312325Y56687675D01*
D12*
X-2000000Y8250000D02*
X-1500000Y8750000D01*
D12*
X-11180000Y24250000D02*
X-14250000Y24250000D01*
D12*
X-8450000Y30500000D02*
X-8450000Y31199952D01*
D13*
X-12099944Y61499944D02*
X-12300000Y61700000D01*
D12*
X-20250000Y52250000D02*
X-20250000Y54000000D01*
D12*
X10750000Y43250000D02*
X11250000Y43250000D01*
D12*
X14000000Y30000000D02*
X14000000Y29300000D01*
D12*
X-17000000Y45000000D02*
X-17250000Y45250000D01*
D12*
X13200000Y60000000D02*
X13200000Y59300000D01*
D12*
X4350000Y19350000D02*
X4250000Y19250000D01*
D12*
X23000000Y30500000D02*
X21750000Y31750000D01*
D12*
X3000000Y7000000D02*
X3000000Y14500000D01*
D12*
X17200000Y18000000D02*
X17200000Y17450000D01*
D12*
X-2000000Y38000000D02*
X-1500000Y37500000D01*
D12*
X11500000Y14800000D02*
X11500000Y14000000D01*
D12*
X17950000Y14250000D02*
X19050000Y14250000D01*
D12*
X12450000Y33750000D02*
X13500000Y33750000D01*
D12*
X5000000Y46250000D02*
X4100000Y46250000D01*
D12*
X8750000Y14500000D02*
X8750000Y12800000D01*
D13*
X-17000000Y13730000D02*
X-17730056Y12999944D01*
D12*
X17250000Y21000000D02*
X15000000Y23250000D01*
D14*
X1283750Y7839574D02*
X1283750Y16660426D01*
D12*
X4900000Y50600000D02*
X4900000Y49600000D01*
D12*
X3750000Y15500000D02*
X3750000Y16700000D01*
D12*
X-24200000Y61000000D02*
X-22950000Y61000000D01*
D12*
X19250000Y20250000D02*
X22980000Y20250000D01*
D12*
X5180000Y23750000D02*
X2863590Y23750000D01*
D12*
X15450000Y64700000D02*
X15500000Y64750000D01*
D12*
X-15000000Y52250000D02*
X-15425000Y52250000D01*
D13*
X6250000Y69500000D02*
X5500000Y70250000D01*
D12*
X18375000Y20500000D02*
X18375000Y19875000D01*
D12*
X-23100000Y16960000D02*
X-20790000Y16960000D01*
D12*
X18250000Y16050000D02*
X18250000Y15500000D01*
D12*
X9830000Y42750000D02*
X10800336Y42750000D01*
D15*
X-3810000Y58510000D02*
X-4250000Y58950000D01*
D14*
X7966250Y45613750D02*
X7966250Y47160426D01*
D12*
X-11250008Y37249944D02*
X-11250008Y38249992D01*
D12*
X8000000Y39025308D02*
X8262654Y38762654D01*
D12*
X-18200000Y46700000D02*
X-21550000Y46700000D01*
D12*
X-4975000Y45600000D02*
X-4975000Y44975000D01*
D12*
X17200000Y17450000D02*
X17000000Y17250000D01*
D12*
X-4650000Y33600000D02*
X-3900000Y33600000D01*
D12*
X-14500000Y47760000D02*
X-14500000Y47000000D01*
D12*
X8000000Y66690000D02*
X8000000Y66000000D01*
D12*
X13000000Y10200000D02*
X13000000Y11100000D01*
D12*
X4000000Y24750000D02*
X3500000Y24750000D01*
D12*
X-18500000Y18000000D02*
X-16000000Y18000000D01*
D12*
X-6000000Y33000000D02*
X-6700000Y33000000D01*
D12*
X-16000000Y37240000D02*
X-16000000Y38250000D01*
D12*
X-4325000Y45600000D02*
X-8095000Y49370000D01*
D12*
X14300000Y35700000D02*
X14250000Y35750000D01*
D12*
X8700000Y12800000D02*
X8750000Y12750000D01*
D12*
X3800000Y49200064D02*
X3800000Y48500000D01*
D12*
X-22010010Y37989990D02*
X-22000000Y38000000D01*
D12*
X-15500000Y53075000D02*
X-15500000Y53510000D01*
D12*
X10700000Y28900000D02*
X10250000Y28450000D01*
D12*
X-26270000Y46810000D02*
X-25069990Y48010010D01*
D12*
X17300000Y42500000D02*
X17300000Y43750000D01*
D14*
X783750Y40339574D02*
X2660426Y42216250D01*
D12*
X-12300000Y10050000D02*
X-11550000Y10050000D01*
D12*
X-7950000Y5750000D02*
X-7100000Y6600000D01*
D12*
X-4500000Y47000000D02*
X-3000000Y48500000D01*
D12*
X-500000Y42050000D02*
X-950000Y42500000D01*
D12*
X16550000Y61250000D02*
X17250000Y61250000D01*
D12*
X-15250000Y7800000D02*
X-15250000Y8500000D01*
D12*
X14250000Y6500000D02*
X14250000Y8250000D01*
D12*
X-3320000Y22250000D02*
X-2000000Y22250000D01*
D12*
X-11705000Y20750000D02*
X-14250000Y18205000D01*
D12*
X9500000Y19351002D02*
X10250000Y18601002D01*
D12*
X-14424999Y50276001D02*
X-14424999Y49750001D01*
D12*
X-3750000Y37740364D02*
X-3750000Y38851002D01*
D12*
X10500000Y35000000D02*
X10250000Y34750000D01*
D13*
X3950000Y22500000D02*
X3700000Y22250000D01*
D12*
X-4600000Y6600000D02*
X-7100000Y6600000D01*
D12*
X9830000Y41250000D02*
X10455000Y41250000D01*
D12*
X2500000Y23386410D02*
X2500000Y22250000D01*
D12*
X4499944Y35750008D02*
X4499944Y36499944D01*
D12*
X-2700000Y35250000D02*
X-2700000Y35950000D01*
D12*
X-3250000Y4000000D02*
X-3250000Y5250000D01*
D12*
X21950000Y34750000D02*
X21950000Y33500000D01*
D12*
X-5625000Y44975000D02*
X-5625000Y44125000D01*
D12*
X17750000Y19875000D02*
X17750000Y19250000D01*
D12*
X13200000Y53450000D02*
X13250000Y53500000D01*
D12*
X-17200000Y36050000D02*
X-17250000Y36000000D01*
D12*
X-4975000Y40076002D02*
X-4975000Y44975000D01*
D12*
X-16850000Y52150000D02*
X-16850000Y52650000D01*
D14*
X4136250Y42216250D02*
X4170000Y42250000D01*
D12*
X-5000000Y9750000D02*
X-4500000Y9250000D01*
D12*
X11625000Y24500000D02*
X10500000Y24500000D01*
D12*
X3250000Y14750000D02*
X4975000Y14750000D01*
D12*
X-10635000Y46385000D02*
X-10750000Y46500000D01*
D12*
X-8750000Y48750000D02*
X-8125000Y48750000D01*
D12*
X10850000Y31250000D02*
X12600000Y31250000D01*
D12*
X6250000Y12700000D02*
X6300000Y12750000D01*
D12*
X-1500000Y23950000D02*
X-2050000Y23950000D01*
D12*
X7750000Y13750000D02*
X6750000Y12750000D01*
D12*
X-10100020Y29100020D02*
X-11850020Y29100020D01*
D12*
X-3601054Y36750000D02*
X-4250000Y37398946D01*
D12*
X12000000Y73800000D02*
X13200000Y73800000D01*
D12*
X22980000Y20250000D02*
X23000000Y20230000D01*
D13*
X4500000Y22500000D02*
X3950000Y22500000D01*
D12*
X-500000Y58510000D02*
X630000Y58510000D01*
D12*
X-3601054Y36750000D02*
X-2351054Y36750000D01*
D12*
X9830000Y44250000D02*
X10500000Y44250000D01*
D12*
X13050000Y42500000D02*
X14250000Y42500000D01*
D14*
X2283750Y33660426D02*
X3502512Y32441664D01*
D12*
X-21550000Y46700000D02*
X-22750000Y45500000D01*
D12*
X-8095000Y51345000D02*
X-9250000Y52500000D01*
D12*
X-23100000Y19500000D02*
X-20750000Y19500000D01*
D12*
X10750000Y12750000D02*
X10750000Y11250000D01*
D13*
X7800000Y22500000D02*
X7800000Y21950000D01*
D12*
X15450000Y49850000D02*
X15450000Y50700000D01*
D12*
X-11180000Y22250000D02*
X-12750000Y22250000D01*
D12*
X6500000Y38474692D02*
X6262654Y38237346D01*
D12*
X-1750000Y27797892D02*
X-649980Y28897912D01*
D12*
X-11000000Y15500000D02*
X-10750000Y15500000D01*
D12*
X-2175010Y37175010D02*
X-3184646Y37175010D01*
D12*
X-28460000Y16960000D02*
X-29000000Y17500000D01*
D13*
X-1550000Y61250000D02*
X-1550000Y62699936D01*
D12*
X-13450000Y26450000D02*
X-13500000Y26500000D01*
D12*
X-8900000Y7250000D02*
X-9750000Y7250000D01*
D12*
X15450000Y55600000D02*
X15450000Y56200000D01*
D12*
X-19950000Y33800000D02*
X-20250000Y33500000D01*
D12*
X5200000Y12750000D02*
X4500000Y12750000D01*
D12*
X-16550000Y33800000D02*
X-17300000Y33800000D01*
D13*
X6250000Y69500000D02*
X9408872Y69500000D01*
D12*
X-5250000Y52101054D02*
X-5250000Y52675000D01*
D13*
X-1249944Y62999992D02*
X-1249944Y64749944D01*
D12*
X-10750000Y6250000D02*
X-10250000Y5750000D01*
D12*
X-18200000Y38150000D02*
X-17300000Y38150000D01*
D14*
X4136250Y41216250D02*
X3160426Y41216250D01*
D12*
X-3025000Y44975000D02*
X-3025000Y44025000D01*
D12*
X12000000Y12900000D02*
X12000000Y12250000D01*
D13*
X4000000Y34250000D02*
X4499944Y34250000D01*
D12*
X-14351054Y25250000D02*
X-15000000Y25250000D01*
D12*
X6800000Y49250000D02*
X6800000Y48800000D01*
D12*
X-13450000Y11100000D02*
X-13200000Y10850000D01*
D12*
X12450000Y69950000D02*
X12000000Y69500000D01*
D12*
X-7750000Y42250000D02*
X-6950000Y42250000D01*
D13*
X4300000Y28200000D02*
X4250000Y28250000D01*
D12*
X-3250000Y54250000D02*
X-3750000Y54750000D01*
D12*
X-17300000Y47100000D02*
X-17300000Y47700000D01*
D12*
X-2601002Y26250000D02*
X-1750000Y27101002D01*
D14*
X5216250Y64466250D02*
X5500000Y64750000D01*
D12*
X8000000Y66690000D02*
X8000000Y68340000D01*
D12*
X14250000Y19875000D02*
X14250000Y19500000D01*
D12*
X-13499989Y40202045D02*
X-13499989Y42999989D01*
D12*
X3750000Y18000000D02*
X3750000Y16800000D01*
D12*
X12365000Y37865000D02*
X12250000Y37750000D01*
D12*
X9250000Y14500000D02*
X9250000Y14000000D01*
D12*
X4250000Y38550000D02*
X4800000Y38550000D01*
D12*
X15700000Y43750000D02*
X13950000Y45500000D01*
D12*
X-8450000Y28598998D02*
X-8000000Y28148998D01*
D12*
X15250000Y30000000D02*
X15250000Y26625000D01*
D12*
X15450000Y61250000D02*
X15450000Y61950000D01*
D12*
X-8500000Y19570000D02*
X-8500000Y17500000D01*
D12*
X-3320000Y26750000D02*
X-2750000Y26750000D01*
D12*
X-3250000Y5250000D02*
X-4600000Y6600000D01*
D12*
X-20750000Y64100000D02*
X-20750000Y63250000D01*
D12*
X-21500000Y62500000D02*
X-22050000Y62500000D01*
D12*
X-10750000Y54825000D02*
X-10250000Y54825000D01*
D12*
X5250000Y52250000D02*
X4900000Y51900000D01*
D12*
X14550000Y58350000D02*
X14550000Y59200000D01*
D12*
X-11425000Y54825000D02*
X-11500000Y54750000D01*
D12*
X4499944Y34250000D02*
X5750000Y32999944D01*
D12*
X-15500000Y55313174D02*
X-15968413Y55781587D01*
D12*
X15450000Y55200000D02*
X15950000Y55200000D01*
D12*
X5700000Y52950000D02*
X5500000Y52750000D01*
D12*
X13200000Y73800000D02*
X15000000Y72000000D01*
D14*
X1716250Y7660426D02*
X1716250Y16839574D01*
D12*
X11250000Y39000000D02*
X11250000Y35000000D01*
D12*
X16000000Y35750000D02*
X16000000Y34750000D01*
D12*
X19798946Y23000000D02*
X21000000Y23000000D01*
D12*
X10250000Y18103553D02*
X10250000Y17750000D01*
D12*
X-3689391Y56262665D02*
X4800509Y56262665D01*
D12*
X10000000Y16750000D02*
X10750000Y16750000D01*
D14*
X2716250Y33839574D02*
X3808336Y32747488D01*
D12*
X-4500000Y19045000D02*
X-4500000Y18750000D01*
D12*
X15450000Y51500000D02*
X15450000Y50800000D01*
D12*
X-3540000Y14750000D02*
X-3520000Y14770000D01*
D12*
X15450000Y59200000D02*
X15500000Y59250000D01*
D12*
X-16250000Y33500000D02*
X-16550000Y33800000D01*
D12*
X10202108Y22500000D02*
X8452108Y24250000D01*
D12*
X-14750000Y18306054D02*
X-14750000Y10500000D01*
D12*
X-3320000Y25750000D02*
X-2250000Y25750000D01*
D12*
X-12750000Y7250000D02*
X-12750000Y6900000D01*
D12*
X17500000Y33750000D02*
X17500000Y32750000D01*
D12*
X1308168Y54191832D02*
X250000Y55250000D01*
D12*
X14250000Y68750000D02*
X14950000Y68050000D01*
D12*
X15615000Y39135000D02*
X16000000Y38750000D01*
D12*
X2000000Y26250000D02*
X2000000Y26725000D01*
D12*
X-7500000Y19570000D02*
X-7500000Y18500000D01*
D12*
X-5000000Y29809636D02*
X-5000000Y27430000D01*
D13*
X1749992Y62999992D02*
X1750000Y63000000D01*
D12*
X-19750000Y64900000D02*
X-19750000Y62500000D01*
D12*
X14550000Y62900000D02*
X14550000Y62050000D01*
D12*
X-250000Y16500000D02*
X-750000Y16000000D01*
D12*
X13500000Y69950000D02*
X12450000Y69950000D01*
D12*
X-17300000Y46300000D02*
X-16550000Y46300000D01*
D12*
X3000000Y23250000D02*
X5180000Y23250000D01*
D12*
X6499944Y37199944D02*
X6550000Y37250000D01*
D13*
X1750000Y22200000D02*
X1800000Y22250000D01*
D12*
X4050000Y46300000D02*
X3750000Y46000000D01*
D12*
X-11000000Y33750000D02*
X-12000000Y33750000D01*
D12*
X-10635000Y45050000D02*
X-10635000Y46385000D01*
D12*
X-2250000Y27898946D02*
X-1074990Y29073956D01*
D12*
X9250000Y38200000D02*
X9250000Y38750000D01*
D12*
X-6450000Y14750000D02*
X-6450000Y13550000D01*
D12*
X-17800000Y42050000D02*
X-17750000Y42000000D01*
D12*
X5250000Y14000000D02*
X4700000Y14000000D01*
D12*
X-25040000Y45500000D02*
X-26270000Y44270000D01*
D12*
X-4325000Y41325000D02*
X-4250000Y41250000D01*
D12*
X14550000Y54400000D02*
X14550000Y53550000D01*
D12*
X-20250000Y54000000D02*
X-19750000Y54500000D01*
D12*
X-12250000Y23250000D02*
X-12500000Y23500000D01*
D12*
X11000000Y16750000D02*
X10750000Y16750000D01*
D12*
X-1074990Y36074990D02*
X-2175010Y37175010D01*
D12*
X-17700000Y30700000D02*
X-17750000Y30750000D01*
D12*
X12115000Y39135000D02*
X11500000Y39750000D01*
D12*
X16000000Y16750000D02*
X14250000Y16750000D01*
D12*
X7820000Y23750000D02*
X8351054Y23750000D01*
D12*
X13801054Y46250000D02*
X12250000Y46250000D01*
D12*
X-18650000Y49850000D02*
X-18300000Y49500000D01*
D14*
X4170000Y41250000D02*
X4136250Y41216250D01*
D12*
X-7000000Y56250000D02*
X-6250000Y57000000D01*
D12*
X-7250000Y15250000D02*
X-6500000Y16000000D01*
D12*
X-10750000Y12000000D02*
X-10500000Y11750000D01*
D12*
X9250000Y17500000D02*
X9250000Y18250000D01*
D12*
X-14500000Y47760000D02*
X-13690000Y47760000D01*
D12*
X5250000Y37250000D02*
X4750000Y36750000D01*
D12*
X-10635000Y52085000D02*
X-10800000Y52250000D01*
D12*
X6500000Y47500000D02*
X5700000Y48300000D01*
D12*
X14300000Y6450000D02*
X14250000Y6500000D01*
D13*
X-8853553Y60500000D02*
X-6353561Y62999992D01*
D12*
X13500000Y33750000D02*
X14750000Y32500000D01*
D12*
X5058168Y54191832D02*
X1308168Y54191832D01*
D12*
X-2500000Y8250000D02*
X-2000000Y8250000D01*
D12*
X4900000Y49600000D02*
X5250000Y49250000D01*
D14*
X7533750Y47339574D02*
X8283750Y48089574D01*
D12*
X-4500000Y19045000D02*
X-4500000Y19570000D01*
D12*
X15450000Y63300000D02*
X17050000Y63300000D01*
D12*
X-24200000Y64000000D02*
X-23250000Y64000000D01*
D12*
X-18200000Y37550000D02*
X-18250000Y37500000D01*
D12*
X-19750000Y54500000D02*
X-18650000Y54500000D01*
D12*
X20598250Y60751750D02*
X21270000Y60080000D01*
D12*
X-4500000Y20750000D02*
X-7250000Y23500000D01*
D12*
X-13074979Y43524979D02*
X-16250000Y46700000D01*
D12*
X-19400000Y55150000D02*
X-19500000Y55250000D01*
D12*
X-3675000Y44975000D02*
X-3675000Y40675000D01*
D12*
X-500000Y41250000D02*
X-500000Y42050000D01*
D12*
X-9000000Y19570000D02*
X-9000000Y18250000D01*
D12*
X20000000Y23800000D02*
X19600000Y23800000D01*
D14*
X783750Y28339574D02*
X783750Y40339574D01*
D12*
X-4500000Y9250000D02*
X-4500000Y7750000D01*
D12*
X14250000Y24000000D02*
X15000000Y23250000D01*
D12*
X4000000Y59550000D02*
X4000000Y60250000D01*
D12*
X-9500000Y27430000D02*
X-9500000Y28500000D01*
D12*
X3000008Y52000056D02*
X1750056Y52000056D01*
D12*
X-2750000Y53825000D02*
X-2750000Y54775308D01*
D12*
X6500000Y45580000D02*
X6500000Y47500000D01*
D12*
X3500000Y64750000D02*
X3500000Y65750000D01*
D12*
X5500000Y39920000D02*
X5500000Y41250000D01*
D12*
X14550000Y63700000D02*
X13800000Y63700000D01*
D12*
X14300000Y61250000D02*
X14300000Y61800000D01*
D12*
X10455000Y41250000D02*
X10750000Y40955000D01*
D12*
X5000000Y45580000D02*
X5000000Y46250000D01*
D12*
X-3320000Y21250000D02*
X-5000000Y21250000D01*
D12*
X14300000Y35800000D02*
X14250000Y35750000D01*
D12*
X-18350000Y60500000D02*
X-18350000Y59650000D01*
D12*
X-649980Y38399980D02*
X-3000000Y40750000D01*
D12*
X18700000Y42500000D02*
X18700000Y41550000D01*
D12*
X-18300000Y36750000D02*
X-18300000Y37450000D01*
D12*
X-16000000Y19950000D02*
X-16000000Y20000000D01*
D12*
X-16000000Y51750000D02*
X-16000000Y52575000D01*
D12*
X-12924990Y47515374D02*
X-12924990Y47075010D01*
D14*
X7966250Y47160426D02*
X8716250Y47910426D01*
D12*
X16000000Y33750000D02*
X16000000Y32750000D01*
D12*
X-17300000Y38950000D02*
X-14598998Y38950000D01*
D12*
X14250000Y19500000D02*
X14750000Y19000000D01*
D12*
X5300000Y27250000D02*
X3750000Y27250000D01*
D12*
X4750000Y11500000D02*
X4000000Y11500000D01*
D12*
X10405346Y42250000D02*
X12250346Y40405000D01*
D14*
X-58336Y43247488D02*
X-247488Y43247488D01*
D12*
X1500000Y42750000D02*
X500000Y41750000D01*
D12*
X10405346Y42250000D02*
X9830000Y42250000D01*
D12*
X10300000Y20000000D02*
X10250000Y19950000D01*
D12*
X-11250000Y38882138D02*
X-11159818Y38972320D01*
D13*
X-17000000Y16270000D02*
X-18979952Y16270000D01*
D12*
X8750000Y17500000D02*
X8750000Y18250000D01*
D12*
X-12550000Y26250000D02*
X-12750000Y26450000D01*
D12*
X8000000Y10200000D02*
X8000000Y10750000D01*
D12*
X19500000Y16950000D02*
X18250000Y16950000D01*
D12*
X15450000Y50800000D02*
X15500000Y50750000D01*
D12*
X-15150000Y6600000D02*
X-15250000Y6700000D01*
D12*
X19800000Y25500000D02*
X20000000Y25700000D01*
D12*
X15450000Y49050000D02*
X16300000Y49050000D01*
D12*
X14300000Y39135000D02*
X15615000Y39135000D01*
D12*
X-8095000Y46345000D02*
X-8250000Y46500000D01*
D12*
X5400000Y20000000D02*
X3613590Y20000000D01*
D14*
X15783750Y19089574D02*
X15783750Y19033750D01*
D12*
X11625000Y21000000D02*
X10300000Y21000000D01*
D12*
X10250000Y28450000D02*
X10250000Y26000000D01*
D12*
X18375000Y26000000D02*
X18750000Y26000000D01*
D12*
X-15050000Y59300000D02*
X-15500000Y59750000D01*
D12*
X-2250000Y53825000D02*
X-2250000Y55000000D01*
D13*
X3500000Y34750000D02*
X4000000Y34250000D01*
D12*
X-2150000Y38000000D02*
X-2000000Y38000000D01*
D12*
X15301054Y44750000D02*
X19300000Y44750000D01*
D12*
X5400000Y19350000D02*
X4350000Y19350000D01*
D12*
X-10573956Y28675010D02*
X-10000000Y28101054D01*
D12*
X18700000Y41550000D02*
X18750000Y41500000D01*
D12*
X6000000Y45580000D02*
X6000000Y47250000D01*
D12*
X15477098Y45175010D02*
X13652108Y47000000D01*
D12*
X7140563Y55710439D02*
X7140563Y54925000D01*
D12*
X-20250000Y72200000D02*
X-20250000Y70700000D01*
D14*
X4136250Y41783750D02*
X4170000Y41750000D01*
D12*
X-9365000Y50450000D02*
X-9365000Y49365000D01*
D12*
X14500000Y12250000D02*
X14250000Y12000000D01*
D12*
X630000Y58510000D02*
X640000Y58500000D01*
D12*
X6250000Y11500000D02*
X6250000Y11275000D01*
D13*
X-9250000Y16750000D02*
X-9500000Y16500000D01*
D12*
X-11180000Y23250000D02*
X-12250000Y23250000D01*
D12*
X19350000Y28599998D02*
X20650000Y28599998D01*
D12*
X-3000000Y40750000D02*
X-3000000Y44000000D01*
D12*
X-6450000Y12250000D02*
X-6450000Y13450000D01*
D12*
X-24930010Y35310010D02*
X-21810010Y35310010D01*
D12*
X-24930010Y29319990D02*
X-24930010Y32909990D01*
D12*
X20000000Y25700000D02*
X20700000Y25700000D01*
D12*
X-13690000Y47760000D02*
X-13500000Y47950000D01*
D12*
X-2375000Y46750000D02*
X-1000000Y48125000D01*
D12*
X15450000Y62900000D02*
X15450000Y62050000D01*
D12*
X-2375000Y44975000D02*
X-2375000Y46750000D01*
D12*
X-7659881Y38872383D02*
X-7709818Y38922320D01*
D12*
X10350346Y23000000D02*
X7850346Y25500000D01*
D12*
X-1Y38324979D02*
X-1Y38750001D01*
D12*
X-6275000Y50525000D02*
X-6275000Y48525000D01*
D12*
X9250000Y37300000D02*
X9250000Y36750000D01*
D12*
X-3500000Y7650000D02*
X-3500000Y8250000D01*
D12*
X-9000000Y29250000D02*
X-9250000Y29500000D01*
D12*
X7750000Y13000000D02*
X7750000Y12750000D01*
D12*
X-3000000Y48500000D02*
X-2750000Y48500000D01*
D12*
X6000000Y39000000D02*
X5750000Y38750000D01*
D12*
X-18250000Y8950000D02*
X-19200000Y8950000D01*
D12*
X-18500000Y32500000D02*
X-18250000Y32750000D01*
D12*
X-8095000Y49370000D02*
X-8095000Y50450000D01*
D12*
X15450000Y53550000D02*
X15500000Y53500000D01*
D12*
X-2375000Y51375000D02*
X-2750000Y51750000D01*
D12*
X-8759818Y40872320D02*
X-7759818Y40872320D01*
D12*
X12750000Y19875000D02*
X12750000Y19000000D01*
D12*
X-17700000Y43200000D02*
X-17750000Y43250000D01*
D12*
X10750000Y40955000D02*
X10750000Y39500000D01*
D12*
X3640000Y2640000D02*
X3750000Y2750000D01*
D12*
X11800000Y29250000D02*
X11800000Y28800000D01*
D12*
X8250000Y14500000D02*
X8250000Y13500000D01*
D12*
X-2750000Y26750000D02*
X-2250000Y27250000D01*
D12*
X-1725000Y44975000D02*
X-1725000Y44025000D01*
D14*
X-308336Y45752512D02*
X-497488Y45752512D01*
D12*
X-14500000Y52750000D02*
X-14250000Y52500000D01*
D12*
X2700000Y48500000D02*
X2000000Y48500000D01*
D12*
X-8095000Y45050000D02*
X-8095000Y46345000D01*
D12*
X4851002Y47750000D02*
X1250000Y47750000D01*
D12*
X-3900000Y31900000D02*
X-4775000Y31900000D01*
D13*
X-4250000Y61050000D02*
X-6700000Y61050000D01*
D12*
X-11180000Y21250000D02*
X-11806054Y21250000D01*
D12*
X6500000Y16750000D02*
X7000000Y16750000D01*
D12*
X6275000Y11250000D02*
X6500000Y11250000D01*
D12*
X4898686Y53219177D02*
X4367863Y53750000D01*
D12*
X13500000Y71300000D02*
X13950000Y71300000D01*
D12*
X-15250000Y19750000D02*
X-15250000Y9500000D01*
D12*
X-4300000Y29250000D02*
X-4300000Y28550000D01*
D12*
X1000000Y50000000D02*
X1750000Y50000000D01*
D12*
X-18650000Y53850000D02*
X-19400000Y53850000D01*
D12*
X14550000Y55600000D02*
X15450000Y55600000D01*
D12*
X-5250000Y53825000D02*
X-5250000Y54702056D01*
D12*
X11800000Y28800000D02*
X11250000Y28250000D01*
D15*
X-1500000Y58510000D02*
X-3810000Y58510000D01*
D12*
X1750056Y52000056D02*
X1750000Y52000000D01*
D12*
X-11100000Y14450000D02*
X-11100000Y15400000D01*
D12*
X13000000Y12900000D02*
X13000000Y13750000D01*
D14*
X-2512Y46058336D02*
X-2512Y46247488D01*
D12*
X-16750000Y8950000D02*
X-18250000Y8950000D01*
D12*
X-10200000Y17300000D02*
X-10250000Y17250000D01*
D12*
X13500000Y72200000D02*
X12000000Y72200000D01*
D12*
X-4975000Y50525000D02*
X-4975000Y51225000D01*
D12*
X1250000Y1125000D02*
X1250000Y2500000D01*
D12*
X-5250000Y7675000D02*
X-5250000Y9239056D01*
D12*
X12250000Y45500000D02*
X12750000Y45500000D01*
D12*
X-10250000Y58500000D02*
X-10250008Y58500008D01*
D12*
X1250000Y2500000D02*
X1500000Y2750000D01*
D12*
X-12249944Y35249944D02*
X-12250000Y35250000D01*
D12*
X-2150000Y39150000D02*
X-2150000Y38000000D01*
D12*
X-2050000Y23950000D02*
X-2250000Y23750000D01*
D12*
X-2750000Y51750000D02*
X-2750000Y52675000D01*
D12*
X14300000Y61800000D02*
X14500000Y62000000D01*
D12*
X-3025000Y44025000D02*
X-3000000Y44000000D01*
D12*
X-13200000Y9650000D02*
X-13600000Y9650000D01*
D12*
X-14598998Y38950000D02*
X-13924999Y38276001D01*
D12*
X-10200000Y18000000D02*
X-10200000Y17300000D01*
D12*
X-1500000Y10000000D02*
X-950000Y10000000D01*
D12*
X4750000Y48500000D02*
X3800000Y48500000D01*
D12*
X8145000Y24250000D02*
X7820000Y24250000D01*
D14*
X7500000Y45580000D02*
X7533750Y45613750D01*
D12*
X10250000Y18601002D02*
X10250000Y18103553D01*
D12*
X-17300000Y33400000D02*
X-17300000Y32800000D01*
D12*
X8000000Y64750000D02*
X8000000Y65750000D01*
D12*
X-2550000Y31950000D02*
X-2600000Y31900000D01*
D12*
X14300000Y36595000D02*
X12405000Y36595000D01*
D12*
X8000000Y6450000D02*
X9200000Y6450000D01*
D12*
X16550000Y51500000D02*
X16550000Y52750000D01*
D12*
X-6250000Y56000000D02*
X-6500000Y55750000D01*
D12*
X-8000000Y18000000D02*
X-7750000Y17750000D01*
D12*
X-2500000Y21750000D02*
X-2250000Y21500000D01*
D12*
X11800000Y29250000D02*
X12950000Y29250000D01*
D12*
X-15000000Y53510000D02*
X-15000000Y52250000D01*
D12*
X-750000Y16000000D02*
X-6500000Y16000000D01*
D12*
X-14424999Y49750001D02*
X-14500000Y49675000D01*
D12*
X-11180000Y21750000D02*
X-12250000Y21750000D01*
D12*
X-3320000Y21750000D02*
X-2500000Y21750000D01*
D12*
X15500000Y10200000D02*
X15500000Y11100000D01*
D12*
X17000000Y49750000D02*
X17000000Y50730000D01*
D12*
X-1500000Y59500000D02*
X-1500000Y59990000D01*
D12*
X-15325001Y34000000D02*
X-15325001Y31075001D01*
D12*
X20000000Y26800000D02*
X20700000Y26800000D01*
D12*
X3750000Y69000000D02*
X3500000Y69250000D01*
D12*
X-20790000Y22040000D02*
X-20750000Y22000000D01*
D12*
X-9750000Y52250000D02*
X-9750000Y53675000D01*
D12*
X-3250000Y51500000D02*
X-3250000Y52675000D01*
D12*
X4750000Y68390000D02*
X4750000Y67940000D01*
D12*
X14550000Y63300000D02*
X13800000Y63300000D01*
D12*
X-5500056Y35500008D02*
X-5500056Y34775008D01*
D12*
X-8500000Y48000000D02*
X-9035000Y48000000D01*
D12*
X-20250000Y69800000D02*
X-20250000Y67500000D01*
D12*
X16450000Y57550000D02*
X15450000Y57550000D01*
D12*
X14300000Y39135000D02*
X12115000Y39135000D01*
D12*
X-17300000Y47700000D02*
X-17250000Y47750000D01*
D12*
X-7000000Y28750000D02*
X-7500000Y29250000D01*
D12*
X-18500000Y44300000D02*
X-18500000Y45000000D01*
D12*
X20060000Y58750000D02*
X17250000Y58750000D01*
D12*
X11625000Y26000000D02*
X11250000Y26000000D01*
D12*
X-7500000Y23750000D02*
X-7250000Y23500000D01*
D12*
X-18200000Y45300000D02*
X-18250000Y45250000D01*
D12*
X8750000Y33750000D02*
X8750000Y32750000D01*
D12*
X-15000000Y37500000D02*
X-14500000Y38000000D01*
D12*
X14300000Y37865000D02*
X12365000Y37865000D01*
D13*
X-1250000Y17250000D02*
X-1750000Y16750000D01*
D12*
X-9250056Y32000008D02*
X-9250056Y33500056D01*
D12*
X-20250000Y67500000D02*
X-22000000Y65750000D01*
D12*
X-18300000Y49500000D02*
X-19000000Y49500000D01*
D13*
X-9500000Y16500000D02*
X-12000000Y16500000D01*
D12*
X10500000Y10200000D02*
X10500000Y11000000D01*
D12*
X-4500000Y19570000D02*
X-4500000Y20750000D01*
D12*
X-20790000Y16960000D02*
X-20750000Y17000000D01*
D12*
X-11180000Y23750000D02*
X-7500000Y23750000D01*
D12*
X11625000Y22500000D02*
X10202108Y22500000D01*
D12*
X-15000000Y35500000D02*
X-14500000Y35000000D01*
D12*
X-4750000Y38000000D02*
X-5400010Y38650010D01*
D12*
X-6481239Y38872383D02*
X-7659881Y38872383D01*
D12*
X10000000Y12050000D02*
X10000000Y11500000D01*
D12*
X-6550000Y18500000D02*
X-6250000Y18500000D01*
D12*
X-7250000Y37250000D02*
X-8250000Y37250000D01*
D12*
X14550000Y55200000D02*
X13800000Y55200000D01*
D12*
X-11905000Y50450000D02*
X-11905000Y52045000D01*
D12*
X4170000Y42750000D02*
X1500000Y42750000D01*
D12*
X14300000Y52750000D02*
X14300000Y53300000D01*
D12*
X-10500000Y19570000D02*
X-11930000Y19570000D01*
D12*
X11950000Y15700000D02*
X11500000Y15700000D01*
D12*
X19700000Y40950000D02*
X20000000Y41250000D01*
D12*
X12405000Y36595000D02*
X12250000Y36750000D01*
D12*
X-26900000Y16960000D02*
X-26900000Y16400000D01*
D14*
X16216250Y18466250D02*
X16000000Y18250000D01*
D12*
X-13499989Y40202045D02*
X-13499989Y29999989D01*
D12*
X2000000Y64750000D02*
X2000000Y65750000D01*
D14*
X8000000Y45580000D02*
X7966250Y45613750D01*
D14*
X16216250Y19841250D02*
X16216250Y19160426D01*
D12*
X-21650000Y65400000D02*
X-22000000Y65750000D01*
D12*
X19350000Y29899998D02*
X19350000Y30650000D01*
D12*
X3800000Y13300000D02*
X3750000Y13250000D01*
D12*
X-4750000Y39000000D02*
X-4250000Y38500000D01*
D12*
X3700000Y16750000D02*
X2750000Y16750000D01*
D12*
X8000000Y36200000D02*
X8700000Y36200000D01*
D12*
X10000000Y12950000D02*
X10550000Y12950000D01*
D12*
X-14200000Y59300000D02*
X-15050000Y59300000D01*
D12*
X-14800000Y7800000D02*
X-15250000Y7800000D01*
D12*
X3750000Y46000000D02*
X2000000Y46000000D01*
D12*
X-3050000Y39050000D02*
X-4000000Y40000000D01*
D12*
X-12250000Y21750000D02*
X-12500000Y21500000D01*
D12*
X14000000Y29300000D02*
X14050000Y29250000D01*
D12*
X-12300000Y10450000D02*
X-11550000Y10450000D01*
D12*
X14200000Y6450000D02*
X14250000Y6500000D01*
D12*
X3640000Y1125000D02*
X3640000Y2640000D01*
D12*
X2860000Y58500000D02*
X3950000Y58500000D01*
D12*
X-7611998Y11000000D02*
X-6000000Y9388002D01*
D12*
X9200000Y6450000D02*
X9250000Y6500000D01*
D12*
X9250000Y36750000D02*
X8750000Y36250000D01*
D12*
X6000000Y47250000D02*
X4750000Y48500000D01*
D12*
X-10500000Y28000000D02*
X-10500000Y27430000D01*
D12*
X-17000000Y43200000D02*
X-17700000Y43200000D01*
D12*
X-12750000Y27550000D02*
X-13450000Y27550000D01*
D12*
X9580000Y45580000D02*
X9750000Y45750000D01*
D12*
X-3750000Y38851002D02*
X-4975000Y40076002D01*
D12*
X-10300000Y13550000D02*
X-10300000Y12438002D01*
D12*
X-190000Y60300000D02*
X-500000Y59990000D01*
D12*
X15450000Y62050000D02*
X15500000Y62000000D01*
D12*
X-25800000Y65500000D02*
X-25800000Y64000000D01*
D12*
X-22050000Y61000000D02*
X-19650000Y61000000D01*
D12*
X-10250000Y5750000D02*
X-7950000Y5750000D01*
D12*
X-26900000Y22040000D02*
X-26900000Y23400000D01*
D12*
X-13450000Y11450000D02*
X-13500000Y11500000D01*
D12*
X-74980Y38250000D02*
X-74980Y34000000D01*
D12*
X10000000Y13250000D02*
X9250000Y14000000D01*
D13*
X-8500000Y62250000D02*
X-9250056Y61499944D01*
D12*
X5500000Y8050000D02*
X5500000Y9300000D01*
D12*
X-12487335Y56262665D02*
X-12500000Y56250000D01*
D12*
X3700000Y22250000D02*
X3000000Y22250000D01*
D12*
X14550000Y62050000D02*
X14500000Y62000000D01*
D12*
X-2000000Y41250000D02*
X-2000000Y40750000D01*
D12*
X10800336Y42750000D02*
X11000000Y42550336D01*
D12*
X-11905000Y52045000D02*
X-11700000Y52250000D01*
D12*
X6750000Y28250000D02*
X7650000Y28250000D01*
D14*
X8716250Y47910426D02*
X8716250Y59339574D01*
D13*
X-12300000Y59300000D02*
X-12300000Y60050000D01*
D12*
X18300000Y18700000D02*
X18000000Y19000000D01*
D13*
X-10250008Y61499944D02*
X-12099944Y61499944D01*
D12*
X13200000Y61250000D02*
X13200000Y61950000D01*
D12*
X20300000Y43750000D02*
X19300000Y44750000D01*
D12*
X19550000Y26800000D02*
X18750000Y26000000D01*
D12*
X-1250000Y3500000D02*
X-1500000Y3750000D01*
D12*
X17300000Y42500000D02*
X17300000Y41550000D01*
D12*
X6800000Y53500000D02*
X6800000Y52100000D01*
D12*
X11625000Y23500000D02*
X10500000Y23500000D01*
D14*
X16216250Y19160426D02*
X16216250Y18466250D01*
D12*
X-3800000Y33700000D02*
X-3900000Y33600000D01*
D12*
X-3320000Y27430000D02*
X-4000000Y27430000D01*
D12*
X-9365000Y50450000D02*
X-9365000Y51865000D01*
D12*
X-4000000Y19570000D02*
X-4000000Y18250000D01*
D14*
X-216250Y6339574D02*
X1283750Y7839574D01*
D12*
X-14500000Y53510000D02*
X-14500000Y52750000D01*
D12*
X-15000000Y37240000D02*
X-15000000Y37000000D01*
D14*
X1283750Y16660426D02*
X-216250Y18160426D01*
D12*
X-3675000Y50525000D02*
X-3675000Y51175000D01*
D12*
X-17300000Y39350000D02*
X-17300000Y39950000D01*
D12*
X15950000Y55200000D02*
X16500000Y55750000D01*
D12*
X-12000001Y55749999D02*
X-12250000Y55500000D01*
D12*
X19700000Y36595000D02*
X19700000Y37865000D01*
D12*
X13652108Y47000000D02*
X12250000Y47000000D01*
D12*
X20094990Y61255010D02*
X20598250Y60751750D01*
D12*
X2525000Y27250000D02*
X3750000Y27250000D01*
D12*
X-16000000Y52575000D02*
X-15500000Y53075000D01*
D12*
X-17300000Y61500000D02*
X-17250000Y61450000D01*
D12*
X15450000Y59300000D02*
X15500000Y59250000D01*
D12*
X7332088Y56332088D02*
X5250000Y58414176D01*
D12*
X-18350000Y60500000D02*
X-17300000Y60500000D01*
D12*
X3750000Y67750000D02*
X3750000Y68390000D01*
D12*
X11625000Y20500000D02*
X11500000Y20500000D01*
D12*
X-4041479Y57112685D02*
X5738317Y57112685D01*
D12*
X1250000Y47750000D02*
X1000000Y48000000D01*
D12*
X6200000Y6450000D02*
X6500000Y6750000D01*
D12*
X-1750000Y9750000D02*
X-1500000Y10000000D01*
D12*
X-5750000Y53825000D02*
X-5750000Y54803110D01*
D12*
X-17200000Y36750000D02*
X-17200000Y36050000D01*
D12*
X-5625000Y44125000D02*
X-6950000Y42800000D01*
D13*
X-1750000Y16750000D02*
X-9250000Y16750000D01*
D12*
X-5775010Y7025010D02*
X-4388600Y7025010D01*
D12*
X2000000Y68340000D02*
X1950000Y68390000D01*
D12*
X10750000Y39500000D02*
X11250000Y39000000D01*
D12*
X-8750000Y15800000D02*
X-8050000Y15800000D01*
D12*
X5700000Y52950000D02*
X5700000Y53500000D01*
D12*
X5500000Y52500000D02*
X4900000Y51900000D01*
D12*
X14550000Y64100000D02*
X15450000Y64100000D01*
D12*
X-22989990Y48010010D02*
X-20250000Y50750000D01*
D12*
X-17300000Y32800000D02*
X-17250000Y32750000D01*
D12*
X-11180000Y26750000D02*
X-11750000Y26750000D01*
D12*
X-9750000Y7250000D02*
X-10500000Y8000000D01*
D12*
X-24200000Y62500000D02*
X-22950000Y62500000D01*
D12*
X-2575000Y30375000D02*
X-2575000Y29875000D01*
D12*
X-25800000Y62500000D02*
X-25800000Y61000000D01*
D12*
X13250000Y31900000D02*
X13500000Y32150000D01*
D14*
X4783750Y65033750D02*
X5500000Y65750000D01*
D12*
X5750000Y15500000D02*
X6000000Y15750000D01*
D12*
X-18500000Y42050000D02*
X-17800000Y42050000D01*
D12*
X21050000Y33500000D02*
X20500000Y33500000D01*
D12*
X11750000Y60500000D02*
X10424999Y59174999D01*
D12*
X10000000Y12950000D02*
X10000000Y13250000D01*
D12*
X12800000Y57950000D02*
X12500000Y58250000D01*
D12*
X8950000Y46950000D02*
X8750000Y46750000D01*
D12*
X-649980Y28897912D02*
X-649980Y38399980D01*
D12*
X-18200000Y39950000D02*
X-18250000Y40000000D01*
D12*
X7600000Y19350000D02*
X8650000Y19350000D01*
D12*
X9830000Y43250000D02*
X10750000Y43250000D01*
D12*
X-11200000Y12000000D02*
X-10750000Y12000000D01*
D14*
X589574Y43283750D02*
X247488Y42941664D01*
D12*
X-21810010Y35310010D02*
X-21000000Y34500000D01*
D12*
X2863590Y23750000D02*
X2500000Y23386410D01*
D12*
X2000000Y24750000D02*
X2000000Y26250000D01*
D12*
X15450000Y61950000D02*
X15500000Y62000000D01*
D12*
X-16850000Y51500000D02*
X-16250000Y51500000D01*
D14*
X4170000Y40750000D02*
X4136250Y40783750D01*
D13*
X-8500000Y64250000D02*
X-8500000Y62250000D01*
D12*
X-7000000Y31750000D02*
X-7750000Y31750000D01*
D12*
X20000000Y26800000D02*
X19550000Y26800000D01*
D12*
X-4000000Y9750000D02*
X-4250000Y10000000D01*
D12*
X6100000Y25500000D02*
X5300000Y26300000D01*
D12*
X5500000Y6450000D02*
X6200000Y6450000D01*
D12*
X8000000Y68340000D02*
X8050000Y68390000D01*
D12*
X10700000Y29250000D02*
X10700000Y28900000D01*
D12*
X10000000Y15750000D02*
X11450000Y15750000D01*
D12*
X2000000Y26725000D02*
X2525000Y27250000D01*
D12*
X-17300000Y38550000D02*
X-16300000Y38550000D01*
D12*
X-13500000Y49050000D02*
X-13500000Y50000000D01*
D12*
X17500000Y39000000D02*
X17500000Y34750000D01*
D12*
X10500000Y44250000D02*
X11500000Y45250000D01*
D12*
X17950000Y14250000D02*
X17950000Y14800000D01*
D12*
X20000000Y55750000D02*
X19500000Y56250000D01*
D12*
X-10700000Y14450000D02*
X-10700000Y15450000D01*
D12*
X-12750000Y26450000D02*
X-13450000Y26450000D01*
D12*
X-5250000Y47750000D02*
X-3750000Y49250000D01*
D12*
X16350000Y29899998D02*
X16250000Y29799998D01*
D12*
X11050336Y42500000D02*
X11000000Y42550336D01*
D13*
X7499944Y31250000D02*
X7499944Y30000008D01*
D13*
X-12000000Y16500000D02*
X-13500000Y15000000D01*
D12*
X16474990Y16275010D02*
X16000000Y16750000D01*
D12*
X14300000Y36595000D02*
X14300000Y35800000D01*
D12*
X-1000000Y48125000D02*
X-1000000Y51500000D01*
D12*
X-4250000Y37398946D02*
X-4250000Y38500000D01*
D12*
X-8759818Y39922320D02*
X-7709818Y39922320D01*
D12*
X6500000Y15250000D02*
X5750000Y14500000D01*
D12*
X-9000000Y18250000D02*
X-9250000Y18000000D01*
D12*
X14550000Y59200000D02*
X14500000Y59250000D01*
D12*
X-23100000Y18230000D02*
X-20770000Y18230000D01*
D12*
X-8499992Y35500008D02*
X-8500000Y35500000D01*
D12*
X6250000Y11275000D02*
X6275000Y11250000D01*
D12*
X16250000Y29799998D02*
X16250000Y30425000D01*
D12*
X6800000Y48800000D02*
X6500000Y48500000D01*
D12*
X11000000Y20000000D02*
X10300000Y20000000D01*
D12*
X-3800000Y35250000D02*
X-3800000Y33700000D01*
D12*
X2750000Y1125000D02*
X2750000Y2500000D01*
D13*
X-1550000Y62699936D02*
X-1249944Y62999992D01*
D12*
X8000000Y66000000D02*
X8000000Y65750000D01*
D12*
X21950000Y34750000D02*
X21950000Y35700000D01*
D12*
X13250000Y19875000D02*
X13250000Y18000000D01*
D12*
X-2750000Y1125000D02*
X-2750000Y2500000D01*
D12*
X-12100000Y57500000D02*
X-11750000Y57500000D01*
D12*
X4250000Y68390000D02*
X4250000Y69500000D01*
D14*
X1216250Y40160426D02*
X2839574Y41783750D01*
D12*
X-10635000Y43315000D02*
X-10700000Y43250000D01*
D12*
X-8050000Y14700000D02*
X-8000000Y14750000D01*
D12*
X9600000Y31250000D02*
X9000000Y31250000D01*
D12*
X16550000Y52750000D02*
X16550000Y53450000D01*
D12*
X-10635000Y50450000D02*
X-10635000Y52085000D01*
D12*
X11400000Y32650000D02*
X11500000Y32750000D01*
D12*
X-250000Y52550000D02*
X-250000Y53250000D01*
D12*
X3000000Y21250000D02*
X3000000Y22250000D01*
D12*
X-5250000Y9239056D02*
X-7250000Y11239056D01*
D12*
X-19324992Y72874992D02*
X-17124992Y72874992D01*
D12*
X-18200000Y38950000D02*
X-20450000Y38950000D01*
D12*
X-13700056Y57250008D02*
X-12750008Y57250008D01*
D12*
X-11905000Y43355000D02*
X-11800000Y43250000D01*
D12*
X-16000000Y35760000D02*
X-16000000Y34674999D01*
D12*
X7700000Y27250000D02*
X9250000Y27250000D01*
D12*
X-1750000Y53825000D02*
X-1750000Y54474692D01*
D12*
X-14250000Y10800000D02*
X-13900000Y10450000D01*
D12*
X4500000Y24250000D02*
X4000000Y24750000D01*
D12*
X12250000Y26625000D02*
X12250000Y27000000D01*
D12*
X-12300000Y12700000D02*
X-12250000Y12750000D01*
D12*
X7600000Y20000000D02*
X8750000Y20000000D01*
D12*
X-13648946Y25750000D02*
X-15824990Y27926044D01*
D12*
X8750000Y18250000D02*
X8500000Y18500000D01*
D12*
X17750000Y26625000D02*
X17750000Y27500000D01*
D12*
X-18650000Y52150000D02*
X-20150000Y52150000D01*
D12*
X750000Y60300000D02*
X-190000Y60300000D01*
D12*
X-8750000Y13550000D02*
X-8050000Y13550000D01*
D12*
X15450000Y54800000D02*
X18530000Y54800000D01*
D12*
X0Y41250000D02*
X500000Y41750000D01*
D14*
X8283750Y48089574D02*
X8283750Y59160426D01*
D12*
X-4775000Y31900000D02*
X-4925000Y31750000D01*
D12*
X10750000Y11250000D02*
X10500000Y11000000D01*
D12*
X6000000Y15750000D02*
X7000000Y15750000D01*
D12*
X-12450000Y6600000D02*
X-11850000Y6600000D01*
D14*
X4136250Y43283750D02*
X589574Y43283750D01*
D12*
X-15700000Y6700000D02*
X-16000000Y7000000D01*
D12*
X-15500000Y37240000D02*
X-15500000Y38000000D01*
D12*
X-9000000Y14450000D02*
X-8750000Y14700000D01*
D12*
X-4750000Y52250000D02*
X-4750000Y52675000D01*
D12*
X-2500000Y9750000D02*
X-1750000Y9750000D01*
D12*
X17050000Y63300000D02*
X17750000Y64000000D01*
D12*
X-8750000Y13550000D02*
X-9900000Y13550000D01*
D12*
X18375000Y19875000D02*
X20560000Y17690000D01*
D12*
X-9900000Y14450000D02*
X-9000000Y14450000D01*
D12*
X8650000Y20650000D02*
X8750000Y20750000D01*
D12*
X10500000Y23500000D02*
X7700000Y26300000D01*
D12*
X10254999Y45174999D02*
X9830000Y44750000D01*
D12*
X-10250000Y57500000D02*
X-10250000Y58500000D01*
D12*
X14550000Y56550000D02*
X14500000Y56500000D01*
D12*
X-2250000Y27250000D02*
X-2250000Y27898946D01*
D12*
X-12300000Y10850000D02*
X-12300000Y12000000D01*
D12*
X-4388600Y7025010D02*
X-2799991Y5436401D01*
D12*
X-21500000Y15750000D02*
X-21000000Y16250000D01*
D12*
X18375000Y25500000D02*
X19800000Y25500000D01*
D12*
X-1500000Y25050000D02*
X-1500000Y25750000D01*
D12*
X6800000Y49250000D02*
X6800000Y50400000D01*
D12*
X750000Y4750000D02*
X3000000Y7000000D01*
D12*
X18300000Y18000000D02*
X18300000Y17000000D01*
D12*
X-9750000Y10500000D02*
X-9750000Y11000000D01*
D12*
X6250000Y17500000D02*
X6250000Y17000000D01*
D12*
X-5000000Y21250000D02*
X-7250000Y23500000D01*
D13*
X4000000Y70250000D02*
X3500000Y69750000D01*
D12*
X6500000Y64750000D02*
X6500000Y65500000D01*
D12*
X-10000000Y28101054D02*
X-10000000Y27430000D01*
D12*
X-16250000Y34200000D02*
X-17300000Y34200000D01*
D12*
X-15500000Y35000000D02*
X-15250000Y34750000D01*
D12*
X5250000Y15500000D02*
X5750000Y15500000D01*
D12*
X-18200000Y34600000D02*
X-17300000Y34600000D01*
D12*
X12000000Y17000000D02*
X11250000Y16250000D01*
D12*
X14000000Y15500000D02*
X13250000Y15500000D01*
D12*
X-15325001Y31075001D02*
X-12500000Y28250000D01*
D12*
X6250000Y68390000D02*
X6250000Y69500000D01*
D12*
X-18200000Y47100000D02*
X-17300000Y47100000D01*
D12*
X-12750000Y22250000D02*
X-15250000Y19750000D01*
D12*
X-3320000Y23750000D02*
X-2250000Y23750000D01*
D12*
X-5550000Y12250000D02*
X-3540000Y12250000D01*
D12*
X-26270000Y41730000D02*
X-25040000Y40500000D01*
D12*
X-9500000Y18700000D02*
X-10200000Y18000000D01*
D12*
X-15500000Y54990000D02*
X-15500000Y55313174D01*
D12*
X6500000Y39920000D02*
X6500000Y38474692D01*
D12*
X9830000Y43750000D02*
X10851002Y43750000D01*
D12*
X14750000Y42950000D02*
X14750000Y44000000D01*
D12*
X8250000Y13500000D02*
X7750000Y13000000D01*
D12*
X-19400000Y53850000D02*
X-19500000Y53750000D01*
D12*
X15450000Y56200000D02*
X15500000Y56250000D01*
D12*
X-8250000Y33000000D02*
X-8500000Y33250000D01*
D12*
X8000000Y37300000D02*
X8000000Y38000000D01*
D12*
X3750000Y68390000D02*
X3750000Y69000000D01*
D12*
X-11850000Y7900000D02*
X-12450000Y7900000D01*
D12*
X-5750000Y54803110D02*
X-3865435Y56687675D01*
D12*
X-2700000Y35250000D02*
X-2700000Y33700000D01*
D12*
X2000000Y61200000D02*
X2000000Y61750000D01*
D12*
X-20750000Y63250000D02*
X-21500000Y62500000D01*
D12*
X-7000000Y29750000D02*
X-7000000Y30250000D01*
D12*
X-15250000Y9500000D02*
X-13650000Y7900000D01*
D12*
X-3675000Y30375000D02*
X-2600000Y31450000D01*
D12*
X-9650000Y7900000D02*
X-10000000Y8250000D01*
D12*
X-500000Y41250000D02*
X0Y41250000D01*
D12*
X-21000000Y16250000D02*
X-20250000Y16250000D01*
D12*
X14500000Y12900000D02*
X14500000Y12250000D01*
D12*
X-13500000Y13300000D02*
X-13500000Y14000000D01*
D12*
X-25069990Y48010010D02*
X-22989990Y48010010D01*
G75*
D10*
X-25000000Y70000000D03*
D11*
X-25000000Y10000000D03*
D11*
X20000000Y10000000D03*
D10*
X20000000Y70000000D03*
D16*
X17300000Y42500000D03*
D16*
X15700000Y42500000D03*
D17*
X3700000Y16750000D03*
D17*
X4800000Y16750000D03*
D18*
X-18500000Y42050000D03*
D18*
X-18500000Y40950000D03*
D19*
X-18500000Y30700000D03*
D19*
X-18500000Y31800000D03*
D20*
X7000000Y42750000D03*
D21*
X9000000Y45580000D03*
D22*
X9830000Y43750000D03*
D22*
X9830000Y44250000D03*
D23*
X4170000Y43250000D03*
D21*
X8500000Y45580000D03*
D23*
X4170000Y41250000D03*
D22*
X9830000Y40750000D03*
D23*
X4170000Y42750000D03*
D21*
X7500000Y45580000D03*
D23*
X4170000Y40750000D03*
D24*
X8500000Y39920000D03*
D21*
X6500000Y45580000D03*
D21*
X7000000Y45580000D03*
D22*
X9830000Y43250000D03*
D23*
X4170000Y42250000D03*
D24*
X5000000Y39920000D03*
D21*
X6000000Y45580000D03*
D21*
X5000000Y45580000D03*
D23*
X4170000Y43750000D03*
D24*
X9000000Y39920000D03*
D21*
X5500000Y45580000D03*
D23*
X4170000Y44750000D03*
D22*
X9830000Y41750000D03*
D22*
X9830000Y42750000D03*
D24*
X6500000Y39920000D03*
D21*
X8000000Y45580000D03*
D24*
X7500000Y39920000D03*
D23*
X4170000Y41750000D03*
D24*
X7000000Y39920000D03*
D22*
X9830000Y42250000D03*
D22*
X9830000Y41250000D03*
D22*
X9830000Y44750000D03*
D23*
X4170000Y44250000D03*
D24*
X6000000Y39920000D03*
D24*
X5500000Y39920000D03*
D24*
X8000000Y39920000D03*
D18*
X-15250000Y7800000D03*
D18*
X-15250000Y6700000D03*
D25*
X-18350000Y60500000D03*
D25*
X-18350000Y61500000D03*
D25*
X-19650000Y61000000D03*
D26*
X3750000Y15500000D03*
D26*
X5250000Y15500000D03*
D16*
X-24200000Y62500000D03*
D16*
X-25800000Y62500000D03*
D27*
X-16850000Y53850000D03*
D28*
X-18650000Y54500000D03*
D27*
X-16850000Y55150000D03*
D28*
X-18650000Y55150000D03*
D28*
X-18650000Y53850000D03*
D18*
X10250000Y21050000D03*
D18*
X10250000Y19950000D03*
D29*
X-23730000Y51890000D03*
D30*
X-26270000Y46810000D03*
D31*
X-23730000Y34110000D03*
D29*
X-23730000Y44270000D03*
D29*
X-23730000Y31570000D03*
D32*
X-23730000Y41730000D03*
D33*
X-26270000Y34110000D03*
D31*
X-26270000Y54430000D03*
D32*
X-23730000Y54430000D03*
D30*
X-26270000Y49350000D03*
D30*
X-23730000Y39190000D03*
D34*
X-26270000Y44270000D03*
D30*
X-26270000Y31570000D03*
D32*
X-26270000Y39190000D03*
D33*
X-23730000Y46810000D03*
D29*
X-26270000Y41730000D03*
D32*
X-23730000Y36650000D03*
D32*
X-26270000Y36650000D03*
D29*
X-26270000Y51890000D03*
D31*
X-23730000Y49350000D03*
D35*
X12000000Y72200000D03*
D35*
X12000000Y73800000D03*
D36*
X11800000Y29250000D03*
D36*
X10700000Y29250000D03*
D37*
X-2250000Y66750000D03*
D37*
X-2250000Y69750000D03*
D38*
X-14500000Y53510000D03*
D39*
X-15000000Y54990000D03*
D38*
X-15000000Y53510000D03*
D38*
X-15500000Y53510000D03*
D39*
X-14500000Y54990000D03*
D39*
X-15500000Y54990000D03*
D40*
X1800000Y22250000D03*
D40*
X3700000Y22250000D03*
D41*
X19500000Y16950000D03*
D41*
X19500000Y16050000D03*
D17*
X13200000Y35000000D03*
D17*
X14300000Y35000000D03*
D17*
X2950000Y47000000D03*
D17*
X4050000Y47000000D03*
D41*
X5250000Y59450000D03*
D41*
X5250000Y58550000D03*
D19*
X-18500000Y43200000D03*
D19*
X-18500000Y44300000D03*
D42*
X13000000Y12900000D03*
D42*
X12000000Y12900000D03*
D42*
X12500000Y11600000D03*
D43*
X10000000Y12050000D03*
D43*
X10000000Y12950000D03*
D44*
X19350000Y29899998D03*
D44*
X17650000Y29899998D03*
D44*
X17650000Y28599998D03*
D44*
X19350000Y28599998D03*
D18*
X9500000Y48050000D03*
D18*
X9500000Y46950000D03*
D45*
X-50000Y8750000D03*
D45*
X-950000Y8750000D03*
D36*
X-2700000Y35250000D03*
D36*
X-3800000Y35250000D03*
D38*
X-500000Y58510000D03*
D39*
X-1000000Y59990000D03*
D38*
X-1000000Y58510000D03*
D38*
X-1500000Y58510000D03*
D39*
X-500000Y59990000D03*
D39*
X-1500000Y59990000D03*
D17*
X13200000Y60000000D03*
D17*
X14300000Y60000000D03*
D43*
X5500000Y9300000D03*
D43*
X5500000Y10200000D03*
D33*
X21270000Y60080000D03*
D30*
X18730000Y55000000D03*
D29*
X21270000Y52460000D03*
D33*
X21270000Y49920000D03*
D33*
X18730000Y62620000D03*
D29*
X21270000Y62620000D03*
D33*
X18730000Y57540000D03*
D32*
X21270000Y47380000D03*
D32*
X18730000Y52460000D03*
D29*
X18730000Y47380000D03*
D30*
X21270000Y55000000D03*
D30*
X18730000Y49920000D03*
D32*
X18730000Y60080000D03*
D33*
X21270000Y57540000D03*
D41*
X9250000Y38200000D03*
D41*
X9250000Y37300000D03*
D41*
X13500000Y69950000D03*
D41*
X13500000Y69050000D03*
D46*
X-10700000Y13550000D03*
D47*
X-11100000Y13550000D03*
D46*
X-9900000Y14450000D03*
D46*
X-9900000Y13550000D03*
D46*
X-11100000Y14450000D03*
D46*
X-10700000Y14450000D03*
D46*
X-10300000Y13550000D03*
D46*
X-10300000Y14450000D03*
D36*
X-3200000Y29250000D03*
D36*
X-4300000Y29250000D03*
D36*
X-13700000Y51750000D03*
D36*
X-14800000Y51750000D03*
D48*
X14550000Y55200000D03*
D49*
X14550000Y55600000D03*
D48*
X15450000Y54400000D03*
D48*
X14550000Y54400000D03*
D48*
X15450000Y55600000D03*
D48*
X15450000Y55200000D03*
D48*
X14550000Y54800000D03*
D48*
X15450000Y54800000D03*
D45*
X21950000Y34750000D03*
D45*
X21050000Y34750000D03*
D50*
X-5750000Y52675000D03*
D50*
X-4750000Y52675000D03*
D51*
X-5250000Y53825000D03*
D51*
X-4750000Y53825000D03*
D51*
X-6250000Y53825000D03*
D50*
X-6250000Y52675000D03*
D51*
X-5750000Y53825000D03*
D50*
X-5250000Y52675000D03*
D52*
X7000000Y15750000D03*
D52*
X7000000Y15250000D03*
D53*
X9250000Y17500000D03*
D54*
X10000000Y15750000D03*
D55*
X9250000Y14500000D03*
D54*
X10000000Y15250000D03*
D53*
X8250000Y17500000D03*
D52*
X7000000Y16750000D03*
D55*
X8250000Y14500000D03*
D55*
X8750000Y14500000D03*
D54*
X10000000Y16750000D03*
D53*
X7750000Y17500000D03*
D52*
X7000000Y16250000D03*
D53*
X8750000Y17500000D03*
D55*
X7750000Y14500000D03*
D54*
X10000000Y16250000D03*
D56*
X8500000Y16000000D03*
D57*
X-6450000Y14750000D03*
D57*
X-5550000Y14750000D03*
D17*
X-8550000Y9250000D03*
D17*
X-7450000Y9250000D03*
D58*
X3000000Y4000000D03*
D58*
X1500000Y4000000D03*
D59*
X3500000Y64750000D03*
D59*
X2000000Y64750000D03*
D60*
X12250000Y37750000D03*
D60*
X12250000Y36750000D03*
D61*
X15500000Y8050000D03*
D61*
X15500000Y6450000D03*
D32*
X-17000000Y16270000D03*
D29*
X-17000000Y13730000D03*
D62*
X-13700056Y57250008D03*
D62*
X-15700056Y57250008D03*
D48*
X14550000Y63700000D03*
D49*
X14550000Y64100000D03*
D48*
X15450000Y62900000D03*
D48*
X14550000Y62900000D03*
D48*
X15450000Y64100000D03*
D48*
X15450000Y63700000D03*
D48*
X14550000Y63300000D03*
D48*
X15450000Y63300000D03*
D63*
X-18570000Y66960000D03*
D64*
X-13000000Y64250000D03*
D65*
X-11000000Y64250000D03*
D65*
X-15500000Y64250000D03*
D66*
X-8500000Y64250000D03*
D67*
X-5430000Y66960000D03*
D68*
X-20250008Y14999944D03*
D68*
X-20250008Y12999944D03*
D60*
X12000000Y69500000D03*
D60*
X12000000Y68500000D03*
D57*
X-6450000Y12250000D03*
D57*
X-5550000Y12250000D03*
D18*
X-1500000Y25050000D03*
D18*
X-1500000Y23950000D03*
D18*
X-8750000Y15800000D03*
D18*
X-8750000Y14700000D03*
D27*
X-7100000Y6600000D03*
D28*
X-8900000Y7250000D03*
D27*
X-7100000Y7900000D03*
D28*
X-8900000Y7900000D03*
D28*
X-8900000Y6600000D03*
D36*
X16550000Y61250000D03*
D36*
X15450000Y61250000D03*
D60*
X8750000Y34750000D03*
D60*
X8750000Y33750000D03*
D69*
X-8759818Y39922320D03*
D69*
X-11159818Y40872320D03*
D69*
X-8759818Y38972320D03*
D69*
X-11159818Y38972320D03*
D69*
X-8759818Y40872320D03*
D70*
X-1725000Y50525000D03*
D70*
X-5625000Y50525000D03*
D71*
X-4325000Y44975000D03*
D71*
X-4975000Y44975000D03*
D70*
X-3675000Y50525000D03*
D71*
X-3675000Y44975000D03*
D71*
X-5625000Y44975000D03*
D70*
X-2375000Y50525000D03*
D70*
X-4975000Y50525000D03*
D71*
X-2375000Y44975000D03*
D70*
X-6275000Y50525000D03*
D71*
X-1725000Y44975000D03*
D71*
X-6275000Y44975000D03*
D70*
X-3025000Y50525000D03*
D70*
X-4325000Y50525000D03*
D71*
X-3025000Y44975000D03*
D19*
X16250000Y28699998D03*
D19*
X16250000Y29799998D03*
D36*
X13050000Y42500000D03*
D36*
X11950000Y42500000D03*
D72*
X-2250000Y1125000D03*
D72*
X-750000Y1125000D03*
D72*
X2250000Y1125000D03*
D72*
X250000Y1125000D03*
D73*
X-3640000Y1125000D03*
D74*
X2750000Y1125000D03*
D72*
X-250000Y1125000D03*
D72*
X-1250000Y1125000D03*
D73*
X3640000Y1125000D03*
D72*
X1250000Y1125000D03*
D74*
X-2750000Y1125000D03*
D72*
X-1750000Y1125000D03*
D72*
X750000Y1125000D03*
D72*
X1750000Y1125000D03*
D17*
X13200000Y61250000D03*
D17*
X14300000Y61250000D03*
D75*
X640000Y58500000D03*
D76*
X2860000Y58500000D03*
D17*
X2700000Y48500000D03*
D17*
X3800000Y48500000D03*
D45*
X19950000Y14250000D03*
D45*
X19050000Y14250000D03*
D60*
X16000000Y34750000D03*
D60*
X16000000Y33750000D03*
D59*
X3500000Y24750000D03*
D59*
X2000000Y24750000D03*
D77*
X-25800000Y64000000D03*
D77*
X-24200000Y64000000D03*
D26*
X3750000Y18000000D03*
D26*
X5250000Y18000000D03*
D19*
X-17000000Y30700000D03*
D19*
X-17000000Y31800000D03*
D62*
X-9250056Y32000008D03*
D62*
X-11250056Y32000008D03*
D19*
X20750000Y28699998D03*
D19*
X20750000Y29799998D03*
D57*
X-22950000Y62500000D03*
D57*
X-22050000Y62500000D03*
D17*
X-11300000Y18000000D03*
D17*
X-10200000Y18000000D03*
D41*
X13500000Y72200000D03*
D41*
X13500000Y71300000D03*
D78*
X-1249944Y62999992D03*
D78*
X750056Y62999992D03*
D79*
X3000008Y50000056D03*
D79*
X3000008Y52000056D03*
D41*
X18250000Y16950000D03*
D41*
X18250000Y16050000D03*
D62*
X6499944Y35750008D03*
D62*
X4499944Y35750008D03*
D35*
X-18250000Y8950000D03*
D35*
X-18250000Y10550000D03*
D17*
X17200000Y18000000D03*
D17*
X18300000Y18000000D03*
D80*
X7600000Y20650000D03*
D81*
X5400000Y19350000D03*
D81*
X5400000Y20650000D03*
D80*
X7600000Y20000000D03*
D80*
X7600000Y19350000D03*
D81*
X5400000Y20000000D03*
D45*
X21950000Y33500000D03*
D45*
X21050000Y33500000D03*
D62*
X-5500056Y35500008D03*
D62*
X-7500056Y35500008D03*
D57*
X3800000Y14000000D03*
D57*
X4700000Y14000000D03*
D43*
X20000000Y23800000D03*
D43*
X20000000Y24700000D03*
D36*
X6800000Y53500000D03*
D36*
X5700000Y53500000D03*
D19*
X-17000000Y43200000D03*
D19*
X-17000000Y44300000D03*
D49*
X15450000Y49050000D03*
D48*
X15450000Y48650000D03*
D49*
X14550000Y49850000D03*
D49*
X15450000Y49850000D03*
D49*
X14550000Y48650000D03*
D49*
X14550000Y49050000D03*
D49*
X15450000Y49450000D03*
D49*
X14550000Y49450000D03*
D18*
X-250000Y52550000D03*
D18*
X-250000Y51450000D03*
D82*
X-3520000Y14770000D03*
D82*
X-980000Y12230000D03*
D83*
X-3520000Y12230000D03*
D82*
X-980000Y14770000D03*
D60*
X17500000Y34750000D03*
D60*
X17500000Y33750000D03*
D43*
X15500000Y9300000D03*
D43*
X15500000Y10200000D03*
D57*
X-22950000Y61000000D03*
D57*
X-22050000Y61000000D03*
D18*
X-17000000Y42050000D03*
D18*
X-17000000Y40950000D03*
D77*
X-25800000Y65500000D03*
D77*
X-24200000Y65500000D03*
D41*
X-16000000Y19950000D03*
D41*
X-16000000Y19050000D03*
D59*
X8000000Y64750000D03*
D59*
X6500000Y64750000D03*
D61*
X13000000Y8050000D03*
D61*
X13000000Y6450000D03*
D19*
X-13500000Y47950000D03*
D19*
X-13500000Y49050000D03*
D68*
X-11250008Y37249944D03*
D68*
X-11250008Y35249944D03*
D60*
X10250000Y34750000D03*
D60*
X10250000Y33750000D03*
D43*
X8000000Y9300000D03*
D43*
X8000000Y10200000D03*
D84*
X5180000Y23250000D03*
D85*
X7820000Y24250000D03*
D84*
X5180000Y24250000D03*
D85*
X7820000Y23750000D03*
D86*
X7800000Y22500000D03*
D85*
X7820000Y23250000D03*
D87*
X6500000Y23500000D03*
D86*
X5200000Y22500000D03*
D84*
X5180000Y24750000D03*
D84*
X5180000Y23750000D03*
D85*
X7820000Y24750000D03*
D17*
X-9550000Y30500000D03*
D17*
X-8450000Y30500000D03*
D17*
X-2050000Y42500000D03*
D17*
X-950000Y42500000D03*
D17*
X-18300000Y56500000D03*
D17*
X-17200000Y56500000D03*
D45*
X-50000Y10000000D03*
D45*
X-950000Y10000000D03*
D26*
X-7250000Y37250000D03*
D26*
X-5750000Y37250000D03*
D61*
X10500000Y8050000D03*
D61*
X10500000Y6450000D03*
D26*
X-11000000Y33750000D03*
D26*
X-9500000Y33750000D03*
D19*
X8000000Y36200000D03*
D19*
X8000000Y37300000D03*
D43*
X2000000Y60300000D03*
D43*
X2000000Y61200000D03*
D26*
X4750000Y11500000D03*
D26*
X6250000Y11500000D03*
D49*
X15450000Y57550000D03*
D48*
X15450000Y57150000D03*
D49*
X14550000Y58350000D03*
D49*
X15450000Y58350000D03*
D49*
X14550000Y57150000D03*
D49*
X14550000Y57550000D03*
D49*
X15450000Y57950000D03*
D49*
X14550000Y57950000D03*
D17*
X5200000Y12750000D03*
D17*
X6300000Y12750000D03*
D62*
X7499944Y30000008D03*
D62*
X5499944Y30000008D03*
D43*
X13000000Y9300000D03*
D43*
X13000000Y10200000D03*
D88*
X-3900000Y33600000D03*
D88*
X-3900000Y31900000D03*
D88*
X-2600000Y31900000D03*
D88*
X-2600000Y33600000D03*
D49*
X-12300000Y10050000D03*
D48*
X-12300000Y9650000D03*
D49*
X-13200000Y10850000D03*
D49*
X-12300000Y10850000D03*
D49*
X-13200000Y9650000D03*
D49*
X-13200000Y10050000D03*
D49*
X-12300000Y10450000D03*
D49*
X-13200000Y10450000D03*
D38*
X-15000000Y35760000D03*
D39*
X-15500000Y37240000D03*
D38*
X-15500000Y35760000D03*
D38*
X-16000000Y35760000D03*
D39*
X-15000000Y37240000D03*
D39*
X-16000000Y37240000D03*
D82*
X23000000Y22770000D03*
D89*
X23000000Y15150000D03*
D83*
X23000000Y17690000D03*
D90*
X23000000Y25310000D03*
D89*
X23000000Y20230000D03*
D90*
X23000000Y27850000D03*
D91*
X13000000Y30850000D03*
D91*
X14000000Y30850000D03*
D91*
X13500000Y32150000D03*
D48*
X-18200000Y34200000D03*
D49*
X-18200000Y34600000D03*
D48*
X-17300000Y33400000D03*
D48*
X-18200000Y33400000D03*
D48*
X-17300000Y34600000D03*
D48*
X-17300000Y34200000D03*
D48*
X-18200000Y33800000D03*
D48*
X-17300000Y33800000D03*
D19*
X-8750000Y12450000D03*
D19*
X-8750000Y13550000D03*
D36*
X-4950000Y17750000D03*
D36*
X-6050000Y17750000D03*
D36*
X16550000Y60000000D03*
D36*
X15450000Y60000000D03*
D49*
X-17300000Y38550000D03*
D48*
X-17300000Y38150000D03*
D49*
X-18200000Y39350000D03*
D49*
X-17300000Y39350000D03*
D49*
X-18200000Y38150000D03*
D49*
X-18200000Y38550000D03*
D49*
X-17300000Y38950000D03*
D49*
X-18200000Y38950000D03*
D77*
X18700000Y42500000D03*
D77*
X20300000Y42500000D03*
D19*
X13550000Y67500000D03*
D18*
X14950000Y67500000D03*
D92*
X-6000000Y19570000D03*
D93*
X-3320000Y24750000D03*
D92*
X-10000000Y19570000D03*
D94*
X-6000000Y27430000D03*
D93*
X-3320000Y20250000D03*
D92*
X-7000000Y19570000D03*
D92*
X-8000000Y19570000D03*
D95*
X-11180000Y22750000D03*
D93*
X-3320000Y21250000D03*
D92*
X-6500000Y19570000D03*
D93*
X-3320000Y23750000D03*
D95*
X-11180000Y21750000D03*
D95*
X-11180000Y26250000D03*
D93*
X-3320000Y20750000D03*
D92*
X-9500000Y19570000D03*
D95*
X-11180000Y23250000D03*
D93*
X-3320000Y26250000D03*
D93*
X-3320000Y21750000D03*
D95*
X-11180000Y26750000D03*
D93*
X-3320000Y22750000D03*
D95*
X-11180000Y24750000D03*
D94*
X-7000000Y27430000D03*
D95*
X-11180000Y21250000D03*
D93*
X-3320000Y25750000D03*
D95*
X-11180000Y25750000D03*
D92*
X-5000000Y19570000D03*
D93*
X-3320000Y23250000D03*
D92*
X-9000000Y19570000D03*
D93*
X-3320000Y24250000D03*
D94*
X-8000000Y27430000D03*
D94*
X-5000000Y27430000D03*
D96*
X-7250000Y23500000D03*
D93*
X-3320000Y26750000D03*
D95*
X-11180000Y22250000D03*
D92*
X-8500000Y19570000D03*
D95*
X-11180000Y24250000D03*
D94*
X-4000000Y27430000D03*
D95*
X-11180000Y20750000D03*
D93*
X-3320000Y25250000D03*
D92*
X-5500000Y19570000D03*
D95*
X-11180000Y23750000D03*
D94*
X-8500000Y27430000D03*
D94*
X-10000000Y27430000D03*
D94*
X-6500000Y27430000D03*
D92*
X-4000000Y19570000D03*
D95*
X-11180000Y20250000D03*
D92*
X-10500000Y19570000D03*
D92*
X-7500000Y19570000D03*
D94*
X-5500000Y27430000D03*
D94*
X-7500000Y27430000D03*
D93*
X-3320000Y22250000D03*
D94*
X-9000000Y27430000D03*
D94*
X-10500000Y27430000D03*
D94*
X-9500000Y27430000D03*
D95*
X-11180000Y25250000D03*
D92*
X-4500000Y19570000D03*
D94*
X-4500000Y27430000D03*
D36*
X6800000Y49250000D03*
D36*
X5700000Y49250000D03*
D97*
X19700000Y37865000D03*
D97*
X19700000Y40405000D03*
D98*
X14300000Y37865000D03*
D97*
X19700000Y36595000D03*
D97*
X19700000Y39135000D03*
D98*
X14300000Y40405000D03*
D98*
X14300000Y39135000D03*
D98*
X14300000Y36595000D03*
D50*
X-2750000Y52675000D03*
D50*
X-1750000Y52675000D03*
D51*
X-2250000Y53825000D03*
D51*
X-1750000Y53825000D03*
D51*
X-3250000Y53825000D03*
D50*
X-3250000Y52675000D03*
D51*
X-2750000Y53825000D03*
D50*
X-2250000Y52675000D03*
D36*
X16550000Y52750000D03*
D36*
X15450000Y52750000D03*
D77*
X18700000Y43750000D03*
D77*
X20300000Y43750000D03*
D35*
X-20250000Y72200000D03*
D35*
X-20250000Y73800000D03*
D17*
X-11800000Y43250000D03*
D17*
X-10700000Y43250000D03*
D19*
X20000000Y25700000D03*
D19*
X20000000Y26800000D03*
D17*
X13200000Y51500000D03*
D17*
X14300000Y51500000D03*
D99*
X-2500000Y9750000D03*
D99*
X-3500000Y9750000D03*
D48*
X-18200000Y46700000D03*
D49*
X-18200000Y47100000D03*
D48*
X-17300000Y45900000D03*
D48*
X-18200000Y45900000D03*
D48*
X-17300000Y47100000D03*
D48*
X-17300000Y46700000D03*
D48*
X-18200000Y46300000D03*
D48*
X-17300000Y46300000D03*
D39*
X-15500000Y49240000D03*
D38*
X-15000000Y47760000D03*
D39*
X-15000000Y49240000D03*
D39*
X-14500000Y49240000D03*
D38*
X-15500000Y47760000D03*
D38*
X-14500000Y47760000D03*
D42*
X15500000Y12900000D03*
D42*
X14500000Y12900000D03*
D42*
X15000000Y11600000D03*
D57*
X11550000Y33750000D03*
D57*
X12450000Y33750000D03*
D100*
X14000000Y15500000D03*
D100*
X15500000Y15500000D03*
D101*
X-7000000Y59250000D03*
D101*
X-7000000Y60750000D03*
D102*
X-13250000Y61700000D03*
D102*
X-12300000Y59300000D03*
D102*
X-14200000Y59300000D03*
D102*
X-12300000Y61700000D03*
D102*
X-13250000Y59300000D03*
D102*
X-14200000Y61700000D03*
D36*
X16550000Y51500000D03*
D36*
X15450000Y51500000D03*
D36*
X-11200000Y12000000D03*
D36*
X-12300000Y12000000D03*
D36*
X-450000Y61250000D03*
D36*
X-1550000Y61250000D03*
D61*
X8000000Y8050000D03*
D61*
X8000000Y6450000D03*
D103*
X-7000000Y30250000D03*
D103*
X-7000000Y31750000D03*
D17*
X-7800000Y33000000D03*
D17*
X-6700000Y33000000D03*
D28*
X-18650000Y52150000D03*
D27*
X-16850000Y51500000D03*
D28*
X-18650000Y50850000D03*
D27*
X-16850000Y50850000D03*
D27*
X-16850000Y52150000D03*
D43*
X10500000Y9300000D03*
D43*
X10500000Y10200000D03*
D104*
X-23100000Y18230000D03*
D104*
X-23100000Y22040000D03*
D104*
X-23100000Y19500000D03*
D104*
X-23100000Y20770000D03*
D104*
X-26900000Y20770000D03*
D104*
X-26900000Y19500000D03*
D104*
X-23100000Y16960000D03*
D104*
X-26900000Y16960000D03*
D104*
X-26900000Y22040000D03*
D42*
X-20250000Y65400000D03*
D42*
X-21250000Y65400000D03*
D42*
X-20750000Y64100000D03*
D17*
X-9550000Y62750000D03*
D17*
X-8450000Y62750000D03*
D105*
X-4250000Y58950000D03*
D106*
X-4250000Y61050000D03*
D58*
X-500000Y41250000D03*
D58*
X-2000000Y41250000D03*
D17*
X13200000Y52750000D03*
D17*
X14300000Y52750000D03*
D35*
X-16750000Y8950000D03*
D35*
X-16750000Y10550000D03*
D16*
X17300000Y43750000D03*
D16*
X15700000Y43750000D03*
D107*
X2500000Y66690000D03*
D107*
X6750000Y68390000D03*
D107*
X5750000Y68390000D03*
D107*
X7500000Y66690000D03*
D107*
X5500000Y66690000D03*
D108*
X380000Y72860000D03*
D107*
X4750000Y68390000D03*
D107*
X3750000Y68390000D03*
D107*
X7000000Y66690000D03*
D107*
X3000000Y66690000D03*
D107*
X8000000Y66690000D03*
D107*
X3500000Y66690000D03*
D109*
X8050000Y68390000D03*
D107*
X2750000Y68390000D03*
D107*
X3250000Y68390000D03*
D109*
X1950000Y68390000D03*
D107*
X6250000Y68390000D03*
D110*
X9640000Y72860000D03*
D107*
X6500000Y66690000D03*
D107*
X4000000Y66690000D03*
D107*
X2000000Y66690000D03*
D107*
X4250000Y68390000D03*
D111*
X9320000Y67500000D03*
D112*
X680000Y67500000D03*
D107*
X4500000Y66690000D03*
D107*
X5250000Y68390000D03*
D107*
X7250000Y68390000D03*
D107*
X6000000Y66690000D03*
D113*
X-9365000Y50450000D03*
D113*
X-11905000Y50450000D03*
D114*
X-9365000Y45050000D03*
D113*
X-8095000Y50450000D03*
D113*
X-10635000Y50450000D03*
D114*
X-11905000Y45050000D03*
D114*
X-10635000Y45050000D03*
D114*
X-8095000Y45050000D03*
D45*
X-6050000Y42250000D03*
D45*
X-6950000Y42250000D03*
D41*
X10500000Y38200000D03*
D41*
X10500000Y37300000D03*
D17*
X-3675000Y30375000D03*
D17*
X-2575000Y30375000D03*
D16*
X-24200000Y61000000D03*
D16*
X-25800000Y61000000D03*
D79*
X-6481239Y38872383D03*
D79*
X-6481239Y40872383D03*
D68*
X-10250008Y61499944D03*
D68*
X-10250008Y59499944D03*
D115*
X5300000Y27250000D03*
D115*
X7700000Y28200000D03*
D115*
X7700000Y26300000D03*
D115*
X5300000Y28200000D03*
D115*
X7700000Y27250000D03*
D115*
X5300000Y26300000D03*
D17*
X5450000Y37250000D03*
D17*
X6550000Y37250000D03*
D19*
X8750000Y11700000D03*
D19*
X8750000Y12800000D03*
D17*
X12700000Y28250000D03*
D17*
X13800000Y28250000D03*
D116*
X4900000Y50600000D03*
D116*
X6600000Y50600000D03*
D116*
X6600000Y51900000D03*
D116*
X4900000Y51900000D03*
D28*
X-13650000Y7900000D03*
D27*
X-11850000Y7250000D03*
D28*
X-13650000Y6600000D03*
D27*
X-11850000Y6600000D03*
D27*
X-11850000Y7900000D03*
D45*
X17950000Y14250000D03*
D45*
X17050000Y14250000D03*
D117*
X-3500000Y8250000D03*
D117*
X-2500000Y8250000D03*
D26*
X2000000Y26250000D03*
D26*
X3500000Y26250000D03*
D41*
X-20250000Y70700000D03*
D41*
X-20250000Y69800000D03*
D61*
X5500000Y8050000D03*
D61*
X5500000Y6450000D03*
D19*
X4250000Y37450000D03*
D19*
X4250000Y38550000D03*
D43*
X-17250000Y60550000D03*
D43*
X-17250000Y61450000D03*
D27*
X11400000Y30600000D03*
D28*
X9600000Y31250000D03*
D27*
X11400000Y31900000D03*
D28*
X9600000Y31900000D03*
D28*
X9600000Y30600000D03*
D36*
X-17200000Y49500000D03*
D36*
X-18300000Y49500000D03*
D103*
X9250000Y27250000D03*
D103*
X9250000Y28750000D03*
D41*
X750000Y61200000D03*
D41*
X750000Y60300000D03*
D18*
X-12750000Y27550000D03*
D18*
X-12750000Y26450000D03*
D118*
X11625000Y22000000D03*
D119*
X12750000Y19875000D03*
D119*
X13750000Y19875000D03*
D120*
X18375000Y21500000D03*
D119*
X14250000Y19875000D03*
D119*
X17250000Y19875000D03*
D119*
X17750000Y19875000D03*
D121*
X14250000Y26625000D03*
D119*
X14750000Y19875000D03*
D119*
X16750000Y19875000D03*
D118*
X11625000Y21000000D03*
D121*
X15250000Y26625000D03*
D120*
X18375000Y24000000D03*
D120*
X18375000Y23000000D03*
D119*
X16250000Y19875000D03*
D120*
X18375000Y20500000D03*
D120*
X18375000Y24500000D03*
D120*
X18375000Y22500000D03*
D118*
X11625000Y23000000D03*
D121*
X17750000Y26625000D03*
D120*
X18375000Y26000000D03*
D119*
X15750000Y19875000D03*
D118*
X11625000Y25000000D03*
D118*
X11625000Y24500000D03*
D118*
X11625000Y24000000D03*
D118*
X11625000Y21500000D03*
D118*
X11625000Y23500000D03*
D121*
X12250000Y26625000D03*
D120*
X18375000Y21000000D03*
D120*
X18375000Y25500000D03*
D118*
X11625000Y26000000D03*
D120*
X18375000Y23500000D03*
D121*
X12750000Y26625000D03*
D121*
X17250000Y26625000D03*
D120*
X18375000Y22000000D03*
D121*
X16250000Y26625000D03*
D121*
X16750000Y26625000D03*
D119*
X15250000Y19875000D03*
D121*
X14750000Y26625000D03*
D118*
X11625000Y25500000D03*
D121*
X13750000Y26625000D03*
D122*
X15000000Y23250000D03*
D119*
X12250000Y19875000D03*
D118*
X11625000Y20500000D03*
D121*
X15750000Y26625000D03*
D121*
X13250000Y26625000D03*
D118*
X11625000Y22500000D03*
D119*
X13250000Y19875000D03*
D120*
X18375000Y25000000D03*
D17*
X-18300000Y36750000D03*
D17*
X-17200000Y36750000D03*
D18*
X-13500000Y13300000D03*
D18*
X-13500000Y12200000D03*
D103*
X1000000Y48500000D03*
D103*
X1000000Y50000000D03*
D17*
X12950000Y29250000D03*
D17*
X14050000Y29250000D03*
D18*
X4000000Y59550000D03*
D18*
X4000000Y58450000D03*
D50*
X-10250000Y53675000D03*
D50*
X-9250000Y53675000D03*
D51*
X-9750000Y54825000D03*
D51*
X-9250000Y54825000D03*
D51*
X-10750000Y54825000D03*
D50*
X-10750000Y53675000D03*
D51*
X-10250000Y54825000D03*
D50*
X-9750000Y53675000D03*
D100*
X-11750000Y57500000D03*
D100*
X-10250000Y57500000D03*
D57*
X-3050000Y38000000D03*
D57*
X-2150000Y38000000D03*
D57*
X-11700000Y52250000D03*
D57*
X-10800000Y52250000D03*
D43*
X11500000Y14800000D03*
D43*
X11500000Y15700000D03*
D123*
X-17000000Y57250000D03*
D124*
X11500000Y43500000D03*
D124*
X-16000000Y7000000D03*
D125*
X-18250000Y32750000D03*
D123*
X3000000Y2750000D03*
D126*
X7000000Y42750000D03*
D124*
X-262654Y54737346D03*
D125*
X15500000Y56250000D03*
D127*
X-17250000Y35250000D03*
D124*
X-26750000Y65500000D03*
D125*
X-19250000Y9000000D03*
D124*
X12000000Y67750000D03*
D123*
X5750000Y38750000D03*
D124*
X14500000Y59250000D03*
D128*
X9000000Y15500000D03*
D124*
X-8000000Y14750000D03*
D123*
X-15500000Y59750000D03*
D123*
X4000000Y11500000D03*
D124*
X-18250000Y37500000D03*
D125*
X-27000000Y18250000D03*
D124*
X7750000Y38250000D03*
D127*
X5750000Y54500000D03*
D124*
X16425000Y50489704D03*
D125*
X-1000000Y39750000D03*
D129*
X-6375000Y20875000D03*
D123*
X15000000Y66000000D03*
D124*
X11500000Y14000000D03*
D124*
X6531587Y54531587D03*
D123*
X3750000Y13250000D03*
D125*
X8262654Y38762654D03*
D130*
X17750000Y27500000D03*
D127*
X13250000Y59250000D03*
D124*
X5750000Y32999944D03*
D123*
X14250000Y42500000D03*
D125*
X-2250000Y23000000D03*
D123*
X250000Y55250000D03*
D124*
X9250000Y38750000D03*
D123*
X-5250000Y47750000D03*
D124*
X-19500000Y53750000D03*
D124*
X16500000Y53500000D03*
D125*
X9500000Y49000000D03*
D124*
X9750000Y45750000D03*
D125*
X2000000Y47000000D03*
D127*
X14500000Y53500000D03*
D124*
X-1750000Y44000000D03*
D124*
X-12750000Y57250000D03*
D123*
X-8500000Y35500000D03*
D127*
X-12500000Y56250000D03*
D123*
X3502512Y32252512D03*
D126*
X8250000Y42750000D03*
D124*
X-10750000Y46500000D03*
D125*
X-20750000Y17000000D03*
D124*
X5500000Y64750000D03*
D123*
X-18250000Y11500000D03*
D124*
X20750000Y28000000D03*
D125*
X-12250000Y12750000D03*
D126*
X-6375000Y24375000D03*
D125*
X-12250000Y35250000D03*
D123*
X12500000Y24500000D03*
D125*
X-1250000Y64750000D03*
D125*
X6250000Y17500000D03*
D124*
X-14750000Y44250000D03*
D124*
X-13500000Y27500000D03*
D123*
X15500000Y62000000D03*
D125*
X-3000000Y44000000D03*
D124*
X19250000Y20250000D03*
D124*
X-17750000Y43250000D03*
D123*
X-7750000Y17750000D03*
D125*
X-19000000Y49500000D03*
D124*
X4750000Y36750000D03*
D123*
X750000Y61750000D03*
D128*
X6500000Y22750000D03*
D123*
X8750000Y11000000D03*
D126*
X-8125000Y20875000D03*
D124*
X11500000Y39750000D03*
D124*
X-4500000Y47000000D03*
D127*
X-7500000Y29250000D03*
D125*
X12250000Y47000000D03*
D123*
X-13500000Y51000000D03*
D124*
X-4250000Y41250000D03*
D124*
X5500000Y16750000D03*
D124*
X2750000Y16750000D03*
D123*
X2000000Y61750000D03*
D125*
X-15968413Y55781587D03*
D127*
X12250000Y46250000D03*
D123*
X-1500000Y4750000D03*
D123*
X17000000Y19000000D03*
D123*
X15500000Y48000000D03*
D124*
X-15500000Y20500000D03*
D124*
X-16750000Y58000000D03*
D123*
X10250000Y32750000D03*
D125*
X17250000Y61250000D03*
D125*
X10500000Y38750000D03*
D124*
X-497488Y45752512D03*
D124*
X11000000Y42550336D03*
D124*
X17500000Y24500000D03*
D125*
X2000000Y48500000D03*
D123*
X-17250000Y36000000D03*
D125*
X3500000Y37500000D03*
D124*
X9250000Y29425000D03*
D124*
X-1500000Y25750000D03*
D123*
X15500000Y13750000D03*
D123*
X10000000Y11500000D03*
D125*
X12000000Y28250000D03*
D124*
X-13500000Y15000000D03*
D124*
X-21000000Y34500000D03*
D125*
X-9250000Y29500000D03*
D125*
X-10500000Y11750000D03*
D123*
X-11218413Y18718413D03*
D125*
X-2750000Y49250000D03*
D123*
X-10250008Y58500008D03*
D123*
X10250000Y17750000D03*
D125*
X-17250000Y32750000D03*
D124*
X12500000Y20750000D03*
D123*
X-13500000Y14000000D03*
D124*
X8750000Y36250000D03*
D124*
X8750000Y20000000D03*
D124*
X20000000Y41250000D03*
D124*
X-7500000Y28500000D03*
D125*
X11500000Y32750000D03*
D131*
X-8125000Y26125000D03*
D125*
X4250000Y69500000D03*
D124*
X-4250000Y10000000D03*
D124*
X9250000Y25750000D03*
D125*
X13500000Y49750000D03*
D125*
X13000000Y13750000D03*
D123*
X-2250000Y21500000D03*
D123*
X4898686Y53219177D03*
D123*
X-4000000Y36250000D03*
D125*
X-14000000Y9250000D03*
D123*
X6500000Y20500000D03*
D123*
X15500000Y59250000D03*
D125*
X-17250000Y47750000D03*
D124*
X-12000000Y33750000D03*
D124*
X15500000Y53500000D03*
D123*
X12500000Y35000000D03*
D124*
X4250000Y19250000D03*
D125*
X14250000Y35750000D03*
D127*
X8750000Y19250000D03*
D124*
X12500000Y25750000D03*
D124*
X-2250000Y25750000D03*
D123*
X13500000Y63000000D03*
D123*
X15500000Y50750000D03*
D124*
X17500000Y23250000D03*
D123*
X-4250000Y28500000D03*
D129*
X-9875000Y24375000D03*
D124*
X-10500000Y11000000D03*
D123*
X-19500000Y55250000D03*
D123*
X-14250000Y62750000D03*
D123*
X-7709818Y40922320D03*
D126*
X-8125000Y24375000D03*
D123*
X6500000Y55500000D03*
D123*
X-13500000Y50000000D03*
D123*
X-2250000Y70750000D03*
D127*
X-13500010Y18000000D03*
D128*
X8000000Y16500000D03*
D123*
X-10500000Y62750000D03*
D125*
X15000000Y23250000D03*
D124*
X-11000000Y15500000D03*
D124*
X-7000000Y18000000D03*
D129*
X-4625000Y26125000D03*
D124*
X-2000000Y55250000D03*
D124*
X13000000Y48250000D03*
D123*
X9500000Y18500000D03*
D124*
X11250000Y28250000D03*
D124*
X5058168Y54191832D03*
D124*
X17500000Y22000000D03*
D123*
X-14500000Y38000000D03*
D124*
X-12100000Y60250000D03*
D123*
X-6500000Y13500000D03*
D123*
X-6250000Y48500000D03*
D125*
X3500000Y65750000D03*
D124*
X13250000Y15500000D03*
D125*
X-4000000Y40000000D03*
D125*
X-1487346Y54737346D03*
D124*
X16250000Y15500000D03*
D126*
X-4625000Y22625000D03*
D125*
X-1500000Y8750000D03*
D123*
X3500000Y36250000D03*
D123*
X3750000Y30250000D03*
D124*
X-7750000Y42250000D03*
D125*
X-4250000Y62250000D03*
D123*
X4500000Y12750000D03*
D124*
X17500000Y20750000D03*
D125*
X-3750000Y2750000D03*
D124*
X11000000Y26250000D03*
D129*
X7000000Y41500000D03*
D123*
X-11250000Y10750000D03*
D126*
X8250000Y41500000D03*
D126*
X-6375000Y22625000D03*
D125*
X-250000Y50750000D03*
D124*
X-2750000Y36000000D03*
D127*
X5250000Y60250000D03*
D124*
X7750000Y12750000D03*
D123*
X-14250000Y24250000D03*
D127*
X-15000000Y25250000D03*
D124*
X12500000Y58250000D03*
D125*
X13750000Y25750000D03*
D127*
X-11250000Y9750000D03*
D125*
X-17750000Y30750000D03*
D125*
X-8000000Y15750000D03*
D126*
X-6375000Y26125000D03*
D124*
X-2250000Y23750000D03*
D125*
X15000000Y69250000D03*
D123*
X-3250000Y28500000D03*
D127*
X2000000Y65750000D03*
D125*
X-4925000Y31750000D03*
D127*
X13250000Y50750000D03*
D125*
X11750000Y12000000D03*
D123*
X16500000Y55750000D03*
D123*
X-15000000Y55750000D03*
D124*
X12250000Y44750000D03*
D124*
X-8500000Y33250000D03*
D123*
X7140563Y54925000D03*
D125*
X13250000Y53500000D03*
D124*
X-13250000Y22750000D03*
D132*
X5750000Y44000000D03*
D124*
X500000Y41750000D03*
D126*
X5750000Y41500000D03*
D124*
X5750000Y14500000D03*
D125*
X-18500000Y59500000D03*
D124*
X11485704Y18507148D03*
D124*
X-8500000Y17500000D03*
D133*
X-4625000Y20875000D03*
D125*
X13750000Y23250000D03*
D133*
X-4625000Y24375000D03*
D123*
X6262654Y38237346D03*
D123*
X17000000Y17250000D03*
D124*
X15000000Y24500000D03*
D123*
X20250000Y22000000D03*
D123*
X16000000Y18250000D03*
D125*
X-13500000Y26500000D03*
D127*
X11500000Y44250000D03*
D127*
X15000000Y20750000D03*
D124*
X-16750000Y52750000D03*
D124*
X-12500000Y23500000D03*
D127*
X-3237346Y55262654D03*
D123*
X-20750000Y18250000D03*
D124*
X20000000Y34000000D03*
D123*
X-14175000Y36500000D03*
D127*
X-11250000Y38250000D03*
D123*
X0Y10750000D03*
D124*
X12500000Y54500000D03*
D123*
X-4750000Y18500000D03*
D125*
X15500000Y64750000D03*
D125*
X-15000000Y50000000D03*
D123*
X4500000Y65750000D03*
D132*
X-8125000Y22625000D03*
D123*
X-8250000Y37250000D03*
D124*
X13750000Y27500000D03*
D124*
X-11500000Y54750000D03*
D127*
X1750000Y20000000D03*
D127*
X-12250000Y32000000D03*
D124*
X-15250000Y38250000D03*
D124*
X4250000Y28250000D03*
D124*
X-19750000Y62500000D03*
D124*
X-16000000Y18000000D03*
D125*
X16000000Y32750000D03*
D124*
X-4000000Y18250000D03*
D124*
X-23250000Y64000000D03*
D124*
X18750000Y41500000D03*
D124*
X-250000Y53250000D03*
D134*
X6500000Y24250000D03*
D123*
X-13500000Y11500000D03*
D125*
X-26750000Y62500000D03*
D124*
X-20250000Y33500000D03*
D124*
X-14500000Y35000000D03*
D123*
X6500000Y18500000D03*
D124*
X7750000Y32500000D03*
D124*
X-17250000Y48750000D03*
D123*
X-16750000Y11500000D03*
D123*
X3750000Y27250000D03*
D124*
X-247488Y43247488D03*
D126*
X8250000Y44000000D03*
D124*
X6750000Y28250000D03*
D124*
X-7000000Y44000000D03*
D123*
X18250000Y15500000D03*
D123*
X-9250000Y18000000D03*
D123*
X8000000Y10750000D03*
D123*
X-1500000Y10000000D03*
D123*
X-7709818Y39922320D03*
D124*
X13750000Y20750000D03*
D123*
X1750000Y63000000D03*
D125*
X-6250000Y18500000D03*
D127*
X-10250000Y17250000D03*
D125*
X12500000Y23250000D03*
D124*
X13250000Y62000000D03*
D125*
X-2512Y46247488D03*
D123*
X-8000000Y13500000D03*
D129*
X-9875000Y22625000D03*
D125*
X-18250000Y40000000D03*
D125*
X12000000Y30000000D03*
D125*
X13500000Y55500000D03*
D123*
X20750000Y26750000D03*
D127*
X-4750000Y39000000D03*
D123*
X-23250000Y65500000D03*
D123*
X-9250000Y9250000D03*
D125*
X13000000Y17750000D03*
D125*
X-12250000Y55500000D03*
D127*
X8000000Y21750000D03*
D123*
X17250000Y60000000D03*
D124*
X-20750000Y19500000D03*
D127*
X5000000Y38750000D03*
D124*
X21000000Y14250000D03*
D123*
X3997488Y32747488D03*
D123*
X-1250000Y17250000D03*
D123*
X15000000Y25750000D03*
D124*
X-16250000Y54250000D03*
D125*
X18000000Y19000000D03*
D123*
X-17250000Y45250000D03*
D127*
X17500000Y32750000D03*
D124*
X-2000000Y22250000D03*
D123*
X11000000Y58250000D03*
D125*
X4500000Y22500000D03*
D125*
X16250000Y30425000D03*
D125*
X14250000Y8250000D03*
D123*
X-14250000Y45750000D03*
D125*
X-250000Y40000000D03*
D123*
X8750000Y20750000D03*
D123*
X-27000000Y23500000D03*
D125*
X-11750000Y46500000D03*
D125*
X-8250000Y46500000D03*
D123*
X-2000000Y43250000D03*
D124*
X14500000Y56500000D03*
D123*
X-7750000Y59500000D03*
D125*
X2000000Y46000000D03*
D125*
X-17750000Y42000000D03*
D124*
X12500000Y22000000D03*
D124*
X22000000Y35750000D03*
D135*
X-8000000Y10250000D03*
D124*
X-20750000Y22000000D03*
D127*
X-6250000Y56000000D03*
D123*
X247488Y42752512D03*
D125*
X-250000Y39000000D03*
D123*
X21000000Y23000000D03*
D124*
X-6750000Y9250000D03*
D123*
X6500000Y48500000D03*
D123*
X-2250000Y65750000D03*
D123*
X-2750000Y48500000D03*
D125*
X-12500000Y21500000D03*
D124*
X14250000Y16750000D03*
D125*
X-22000000Y65750000D03*
D123*
X5250000Y69500000D03*
D124*
X1750000Y52000000D03*
D124*
X7332088Y56332088D03*
D124*
X1500000Y2750000D03*
D127*
X-1500000Y37500000D03*
D125*
X17500000Y25750000D03*
D127*
X19500000Y15500000D03*
D131*
X-9875000Y20875000D03*
D124*
X-13250000Y62750000D03*
D123*
X-16500000Y61500000D03*
D125*
X-22000000Y38000000D03*
D123*
X-10000000Y6500000D03*
D123*
X8750000Y46750000D03*
D127*
X11000000Y20000000D03*
D125*
X-250000Y16500000D03*
D123*
X13500000Y64000000D03*
D124*
X14250000Y12000000D03*
D124*
X-15250000Y8500000D03*
D124*
X-7709818Y38922320D03*
D125*
X14500000Y50750000D03*
D127*
X15000000Y22000000D03*
D124*
X-15250000Y46750000D03*
D125*
X-3750000Y54750000D03*
D125*
X-1500000Y3750000D03*
D123*
X-14500000Y47000000D03*
D124*
X-15250000Y34750000D03*
D125*
X5500000Y52750000D03*
D123*
X12250000Y45500000D03*
D123*
X-8750000Y11750000D03*
D126*
X-9875000Y26125000D03*
D125*
X-14250000Y52500000D03*
D124*
X-5250000Y7675000D03*
D127*
X-12000000Y27000000D03*
D125*
X-74980Y34000000D03*
D125*
X17250000Y41500000D03*
D125*
X11500000Y52750000D03*
D125*
X-10000000Y15500000D03*
D123*
X-18250000Y45250000D03*
D127*
X16500000Y14250000D03*
D123*
X20750000Y25750000D03*
D124*
X8000000Y65750000D03*
D127*
X16000000Y35750000D03*
D127*
X-15425000Y52250000D03*
D123*
X-6250000Y57000000D03*
D123*
X-3000000Y2750000D03*
D124*
X15500000Y18750000D03*
D124*
X-17250000Y40000000D03*
D125*
X8750000Y32750000D03*
D123*
X9250000Y8250000D03*
D124*
X-15987346Y50012654D03*
D124*
X12250000Y18500000D03*
D124*
X1750000Y50000000D03*
D123*
X-21250000Y46000000D03*
D124*
X12000000Y27250000D03*
D123*
X-10250000Y30500000D03*
D125*
X8500000Y18500000D03*
D136*
X7000000Y44000000D03*
D129*
X5750000Y42750000D03*
D124*
X4000000Y60250000D03*
D124*
X3750000Y2750000D03*
D123*
X-20750000Y20750000D03*
D123*
X14500000Y62000000D03*
D124*
X-9750000Y11000000D03*
D137*
X14750000Y19000000D03*
M02*
