%FSLAX46Y46*%
%MOMM*%
%ADD12C,0.200000*%
%ADD13C,0.232500*%
%ADD14C,0.400000*%
%AMPS22*
1,1,1.400000,0.000000,0.000000*
%
%ADD22PS22*%
%AMPS16*
1,1,1.700000,0.000000,0.000000*
%
%ADD16PS16*%
%AMPS31*
1,1,1.700000,0.000000,0.000000*
%
%ADD31PS31*%
%AMPS17*
1,1,1.700000,0.000000,0.000000*
%
%ADD17PS17*%
%AMPS30*
1,1,1.700000,0.000000,0.000000*
%
%ADD30PS30*%
%AMPS24*
1,1,1.400000,0.000000,0.000000*
%
%ADD24PS24*%
%AMPS20*
1,1,1.700000,0.000000,0.000000*
%
%ADD20PS20*%
%AMPS23*
1,1,1.400000,0.000000,0.000000*
%
%ADD23PS23*%
%AMPS19*
1,1,1.700000,0.000000,0.000000*
%
%ADD19PS19*%
%AMPS32*
1,1,1.700000,0.000000,0.000000*
%
%ADD32PS32*%
%AMPS18*
1,1,1.700000,0.000000,0.000000*
%
%ADD18PS18*%
%AMPS29*
1,1,1.700000,0.000000,0.000000*
%
%ADD29PS29*%
%AMPS15*
1,1,1.700000,0.000000,0.000000*
%
%ADD15PS15*%
%AMPS42*
1,1,0.600000,0.000000,0.000000*
%
%ADD42PS42*%
%AMPS49*
1,1,0.600000,0.000000,0.000000*
%
%ADD49PS49*%
%AMPS44*
1,1,0.600000,0.000000,0.000000*
%
%ADD44PS44*%
%AMPS46*
1,1,0.600000,0.000000,0.000000*
%
%ADD46PS46*%
%AMPS47*
1,1,0.600000,0.000000,0.000000*
%
%ADD47PS47*%
%AMPS48*
1,1,0.600000,0.000000,0.000000*
%
%ADD48PS48*%
%AMPS50*
1,1,0.600000,0.000000,0.000000*
%
%ADD50PS50*%
%AMPS43*
1,1,0.600000,0.000000,0.000000*
%
%ADD43PS43*%
%AMPS40*
1,1,0.600000,0.000000,0.000000*
%
%ADD40PS40*%
%AMPS45*
1,1,0.600000,0.000000,0.000000*
%
%ADD45PS45*%
%AMPS51*
1,1,0.600000,0.000000,0.000000*
%
%ADD51PS51*%
%AMPS33*
21,1,1.500000,1.100000,0.000000,0.000000,270.000000*
1,1,1.100000,0.000000,-0.750000*
1,1,1.100000,0.000000,0.750000*
%
%ADD33PS33*%
%AMPS34*
21,1,1.500000,1.100000,0.000000,0.000000,270.000000*
1,1,1.100000,0.000000,-0.750000*
1,1,1.100000,0.000000,0.750000*
%
%ADD34PS34*%
%AMPS36*
21,1,1.000000,1.100000,0.000000,0.000000,270.000000*
1,1,1.100000,0.000000,-0.500000*
1,1,1.100000,0.000000,0.500000*
%
%ADD36PS36*%
%AMPS35*
21,1,1.000000,1.100000,0.000000,0.000000,270.000000*
1,1,1.100000,0.000000,-0.500000*
1,1,1.100000,0.000000,0.500000*
%
%ADD35PS35*%
%AMPS21*
21,1,1.640000,1.500000,0.000000,0.000000,270.000000*
1,1,1.500000,0.000000,-0.820000*
1,1,1.500000,0.000000,0.820000*
%
%ADD21PS21*%
%AMPS25*
21,1,1.640000,1.500000,0.000000,0.000000,270.000000*
1,1,1.500000,0.000000,-0.820000*
1,1,1.500000,0.000000,0.820000*
%
%ADD25PS25*%
%AMPS39*
1,1,0.500000,0.000000,0.000000*
%
%ADD39PS39*%
%AMPS38*
1,1,0.500000,0.000000,0.000000*
%
%ADD38PS38*%
%AMPS37*
1,1,0.500000,0.000000,0.000000*
%
%ADD37PS37*%
%AMPS41*
1,1,0.500000,0.000000,0.000000*
%
%ADD41PS41*%
%AMPS26*
1,1,0.200000,0.050000,-0.525000*
1,1,0.200000,-0.050000,0.525000*
1,1,0.200000,0.050000,0.525000*
21,1,0.300000,1.050000,0.000000,0.000000,0.000000*
21,1,0.100000,1.250000,0.000000,0.000000,0.000000*
1,1,0.200000,-0.050000,-0.525000*
%
%ADD26PS26*%
%AMPS28*
1,1,0.200000,0.490000,-0.825000*
1,1,0.200000,-0.490000,0.825000*
1,1,0.200000,0.490000,0.825000*
21,1,1.180000,1.650000,0.000000,0.000000,0.000000*
21,1,0.980000,1.850000,0.000000,0.000000,0.000000*
1,1,0.200000,-0.490000,-0.825000*
%
%ADD28PS28*%
%AMPS27*
1,1,0.200000,0.050000,-0.825000*
1,1,0.200000,-0.050000,0.825000*
1,1,0.200000,0.050000,0.825000*
21,1,0.300000,1.650000,0.000000,0.000000,0.000000*
21,1,0.100000,1.850000,0.000000,0.000000,0.000000*
1,1,0.200000,-0.050000,-0.825000*
%
%ADD27PS27*%
%AMPS10*
1,1,6.000000,0.000000,0.000000*
%
%ADD10PS10*%
%AMPS11*
1,1,6.000000,0.000000,0.000000*
%
%ADD11PS11*%
G01*
%LPD*%
G36*
X-4100000Y20250000D02*
X-4060996Y20257920D01*
X-4028171Y20280425D01*
X-4006723Y20313952D01*
X-4000000Y20350000D01*
X-4000000Y26650000D01*
X-4007920Y26689004D01*
X-4030425Y26721829D01*
X-4063952Y26743277D01*
X-4100000Y26750000D01*
X-10400000Y26750000D01*
X-10439004Y26742080D01*
X-10471829Y26719575D01*
X-10493277Y26686048D01*
X-10500000Y26650000D01*
X-10500000Y20350000D01*
X-10492080Y20310996D01*
X-10469575Y20278171D01*
X-10436048Y20256723D01*
X-10400000Y20250000D01*
X-4100000Y20250000D01*
D02*
G37*
%LPD*%
G36*
X8650000Y41000000D02*
X8689004Y41007920D01*
X8721829Y41030425D01*
X8743277Y41063952D01*
X8750000Y41100000D01*
X8750000Y44400000D01*
X8742080Y44439004D01*
X8719575Y44471829D01*
X8686048Y44493277D01*
X8650000Y44500000D01*
X5350000Y44500000D01*
X5310996Y44492080D01*
X5278171Y44469575D01*
X5256723Y44436048D01*
X5250000Y44400000D01*
X5250000Y41100000D01*
X5257920Y41060996D01*
X5280425Y41028171D01*
X5313952Y41006723D01*
X5350000Y41000000D01*
X8650000Y41000000D01*
D02*
G37*
%LPD*%
G36*
X3095000Y66500000D02*
X3134004Y66507920D01*
X3166829Y66530425D01*
X3188277Y66563952D01*
X3195000Y66600000D01*
X3195000Y68747537D01*
X3196228Y68772534D01*
X3197426Y68784708D01*
X3207177Y68833730D01*
X3210014Y68843080D01*
X3229133Y68889236D01*
X3233737Y68897850D01*
X3261510Y68939414D01*
X3267826Y68947110D01*
X3285562Y68964980D01*
X3289233Y68970567D01*
X3766242Y69447576D01*
X3788221Y69480756D01*
X3795410Y69513379D01*
X3796330Y69532099D01*
X3798783Y69557011D01*
X3801663Y69576426D01*
X3806546Y69600977D01*
X3811310Y69619994D01*
X3818577Y69643948D01*
X3825192Y69662435D01*
X3834758Y69685527D01*
X3843153Y69703279D01*
X3854948Y69725347D01*
X3865036Y69742178D01*
X3878932Y69762974D01*
X3890629Y69778746D01*
X3906506Y69798090D01*
X3919676Y69812621D01*
X3937379Y69830324D01*
X3951910Y69843494D01*
X3971254Y69859371D01*
X3987026Y69871068D01*
X4007822Y69884964D01*
X4024653Y69895052D01*
X4046721Y69906847D01*
X4064473Y69915242D01*
X4087565Y69924808D01*
X4106052Y69931423D01*
X4130006Y69938690D01*
X4149023Y69943454D01*
X4173574Y69948337D01*
X4192989Y69951217D01*
X4217881Y69953668D01*
X4237498Y69954632D01*
X4262502Y69954632D01*
X4282119Y69953668D01*
X4307011Y69951217D01*
X4326426Y69948337D01*
X4350977Y69943454D01*
X4369994Y69938690D01*
X4393948Y69931423D01*
X4412435Y69924808D01*
X4435527Y69915242D01*
X4453279Y69906847D01*
X4475347Y69895052D01*
X4492178Y69884964D01*
X4512974Y69871068D01*
X4528746Y69859371D01*
X4548090Y69843494D01*
X4562621Y69830324D01*
X4580324Y69812621D01*
X4593494Y69798090D01*
X4609371Y69778746D01*
X4621068Y69762974D01*
X4634964Y69742178D01*
X4645052Y69725347D01*
X4656847Y69703279D01*
X4659600Y69697458D01*
X4683434Y69665585D01*
X4717813Y69645533D01*
X4757290Y69640477D01*
X4795612Y69651219D01*
X4826710Y69676058D01*
X4840400Y69697458D01*
X4843153Y69703279D01*
X4854948Y69725347D01*
X4865036Y69742178D01*
X4878932Y69762974D01*
X4890629Y69778746D01*
X4906506Y69798090D01*
X4919676Y69812621D01*
X4937379Y69830324D01*
X4951910Y69843494D01*
X4971254Y69859371D01*
X4987026Y69871068D01*
X5007822Y69884964D01*
X5024653Y69895052D01*
X5046721Y69906847D01*
X5064473Y69915242D01*
X5087565Y69924808D01*
X5106052Y69931423D01*
X5130006Y69938690D01*
X5149023Y69943454D01*
X5173574Y69948337D01*
X5192989Y69951217D01*
X5217881Y69953668D01*
X5237498Y69954632D01*
X5262502Y69954632D01*
X5282119Y69953668D01*
X5307011Y69951217D01*
X5326426Y69948337D01*
X5350977Y69943454D01*
X5369994Y69938690D01*
X5393948Y69931423D01*
X5412435Y69924808D01*
X5435527Y69915242D01*
X5453279Y69906847D01*
X5475347Y69895052D01*
X5492178Y69884964D01*
X5512974Y69871068D01*
X5528746Y69859371D01*
X5548090Y69843494D01*
X5562621Y69830324D01*
X5580324Y69812621D01*
X5593494Y69798090D01*
X5609371Y69778746D01*
X5621068Y69762974D01*
X5634964Y69742178D01*
X5645052Y69725347D01*
X5656847Y69703279D01*
X5665242Y69685527D01*
X5674808Y69662435D01*
X5681423Y69643948D01*
X5688690Y69619994D01*
X5693454Y69600977D01*
X5698337Y69576426D01*
X5701217Y69557011D01*
X5703668Y69532119D01*
X5704632Y69512502D01*
X5704632Y69487498D01*
X5703668Y69467881D01*
X5701217Y69442989D01*
X5698337Y69423574D01*
X5693454Y69399023D01*
X5688690Y69380006D01*
X5681423Y69356052D01*
X5674808Y69337565D01*
X5665242Y69314473D01*
X5656847Y69296721D01*
X5645052Y69274653D01*
X5634964Y69257822D01*
X5621068Y69237026D01*
X5609371Y69221254D01*
X5593494Y69201910D01*
X5580906Y69188021D01*
X5560580Y69153802D01*
X5555000Y69120864D01*
X5555000Y67752464D01*
X5553771Y67727443D01*
X5552573Y67715282D01*
X5542823Y67666274D01*
X5539985Y67656919D01*
X5520866Y67610763D01*
X5516262Y67602149D01*
X5488489Y67560585D01*
X5482173Y67552889D01*
X5464437Y67535019D01*
X5460766Y67529432D01*
X4834289Y66902955D01*
X4812310Y66869775D01*
X4805000Y66832244D01*
X4805000Y66600000D01*
X4812920Y66560996D01*
X4835425Y66528171D01*
X4868952Y66506723D01*
X4905000Y66500000D01*
X11135822Y66500000D01*
X11174826Y66507920D01*
X11206533Y66529289D01*
X11565711Y66888467D01*
X11587690Y66921647D01*
X11595000Y66959178D01*
X11595000Y67520361D01*
X11585614Y67562170D01*
X11585697Y67562205D01*
X11585498Y67562685D01*
X11585403Y67563109D01*
X11584754Y67564481D01*
X11575192Y67587565D01*
X11568577Y67606052D01*
X11561310Y67630006D01*
X11556546Y67649023D01*
X11551663Y67673574D01*
X11548783Y67692989D01*
X11546332Y67717881D01*
X11545368Y67737498D01*
X11545368Y67762502D01*
X11546332Y67782119D01*
X11548783Y67807011D01*
X11551663Y67826426D01*
X11556546Y67850977D01*
X11561310Y67869994D01*
X11568577Y67893948D01*
X11575192Y67912435D01*
X11584758Y67935527D01*
X11593153Y67953279D01*
X11604948Y67975347D01*
X11615036Y67992178D01*
X11628932Y68012974D01*
X11640629Y68028746D01*
X11656506Y68048090D01*
X11669676Y68062621D01*
X11687379Y68080324D01*
X11701910Y68093494D01*
X11721254Y68109371D01*
X11737026Y68121068D01*
X11757822Y68134964D01*
X11774653Y68145052D01*
X11796721Y68156847D01*
X11814473Y68165242D01*
X11837565Y68174808D01*
X11856052Y68181423D01*
X11880006Y68188690D01*
X11899023Y68193454D01*
X11923574Y68198337D01*
X11942989Y68201217D01*
X11967881Y68203668D01*
X11987498Y68204632D01*
X12012502Y68204632D01*
X12032119Y68203668D01*
X12057011Y68201217D01*
X12076426Y68198337D01*
X12100977Y68193454D01*
X12119994Y68188690D01*
X12143948Y68181423D01*
X12162435Y68174808D01*
X12185527Y68165242D01*
X12203279Y68156847D01*
X12225347Y68145052D01*
X12242178Y68134964D01*
X12262974Y68121068D01*
X12278746Y68109371D01*
X12298090Y68093494D01*
X12311979Y68080906D01*
X12346198Y68060580D01*
X12379136Y68055000D01*
X13332244Y68055000D01*
X13371248Y68062920D01*
X13402955Y68084289D01*
X14516242Y69197576D01*
X14538221Y69230756D01*
X14545410Y69263379D01*
X14546330Y69282099D01*
X14548783Y69307011D01*
X14551663Y69326426D01*
X14556546Y69350977D01*
X14561310Y69369994D01*
X14568577Y69393948D01*
X14575192Y69412435D01*
X14584758Y69435527D01*
X14593153Y69453279D01*
X14604948Y69475347D01*
X14615036Y69492178D01*
X14628932Y69512974D01*
X14640629Y69528746D01*
X14656506Y69548090D01*
X14669676Y69562621D01*
X14687379Y69580324D01*
X14701910Y69593494D01*
X14721254Y69609371D01*
X14737026Y69621068D01*
X14757822Y69634964D01*
X14774653Y69645052D01*
X14796721Y69656847D01*
X14814473Y69665242D01*
X14837565Y69674808D01*
X14856052Y69681423D01*
X14880006Y69688690D01*
X14899023Y69693454D01*
X14923574Y69698337D01*
X14942989Y69701217D01*
X14967881Y69703668D01*
X14987498Y69704632D01*
X15012502Y69704632D01*
X15032119Y69703668D01*
X15057011Y69701217D01*
X15076426Y69698337D01*
X15100977Y69693454D01*
X15119994Y69688690D01*
X15143948Y69681423D01*
X15162435Y69674808D01*
X15185527Y69665242D01*
X15203279Y69656847D01*
X15225347Y69645052D01*
X15242178Y69634964D01*
X15262974Y69621068D01*
X15278746Y69609371D01*
X15298090Y69593494D01*
X15312621Y69580324D01*
X15330324Y69562621D01*
X15343494Y69548090D01*
X15359371Y69528746D01*
X15371068Y69512974D01*
X15384964Y69492178D01*
X15395052Y69475347D01*
X15406847Y69453279D01*
X15415242Y69435527D01*
X15424808Y69412435D01*
X15431423Y69393948D01*
X15438690Y69369994D01*
X15443454Y69350977D01*
X15448337Y69326426D01*
X15451217Y69307011D01*
X15453668Y69282119D01*
X15454632Y69262502D01*
X15454632Y69237498D01*
X15453668Y69217881D01*
X15451217Y69192989D01*
X15448337Y69173574D01*
X15443454Y69149023D01*
X15438690Y69130006D01*
X15431423Y69106052D01*
X15424808Y69087565D01*
X15415242Y69064473D01*
X15406847Y69046721D01*
X15395052Y69024653D01*
X15384964Y69007822D01*
X15371068Y68987026D01*
X15359371Y68971254D01*
X15343494Y68951910D01*
X15330324Y68937379D01*
X15312621Y68919676D01*
X15298090Y68906506D01*
X15278746Y68890629D01*
X15262974Y68878932D01*
X15242178Y68865036D01*
X15225347Y68854948D01*
X15203279Y68843153D01*
X15185527Y68834758D01*
X15162435Y68825192D01*
X15143948Y68818577D01*
X15119994Y68811310D01*
X15100977Y68806546D01*
X15076426Y68801663D01*
X15057011Y68798783D01*
X15032099Y68796330D01*
X15013379Y68795410D01*
X14974811Y68785586D01*
X14947576Y68766242D01*
X13721022Y67539688D01*
X13714980Y67535562D01*
X13697110Y67517826D01*
X13689414Y67511510D01*
X13647850Y67483737D01*
X13639236Y67479133D01*
X13593080Y67460014D01*
X13583730Y67457177D01*
X13534708Y67447426D01*
X13522534Y67446228D01*
X13497537Y67445000D01*
X12505000Y67445000D01*
X12465996Y67437080D01*
X12433171Y67414575D01*
X12411723Y67381048D01*
X12405000Y67345000D01*
X12405000Y66752446D01*
X12403772Y66727465D01*
X12400652Y66695786D01*
X12390901Y66646762D01*
X12385522Y66629032D01*
X12381777Y66589409D01*
X12393784Y66551463D01*
X12419639Y66521206D01*
X12455249Y66503430D01*
X12481215Y66500000D01*
X24890000Y66500000D01*
X24929004Y66507920D01*
X24961829Y66530425D01*
X24983277Y66563952D01*
X24990000Y66600000D01*
X24990000Y74890000D01*
X24982080Y74929004D01*
X24959575Y74961829D01*
X24926048Y74983277D01*
X24890000Y74990000D01*
X-29890000Y74990000D01*
X-29929004Y74982080D01*
X-29961829Y74959575D01*
X-29983277Y74926048D01*
X-29990000Y74890000D01*
X-29990000Y66600000D01*
X-29982080Y66560996D01*
X-29959575Y66528171D01*
X-29926048Y66506723D01*
X-29890000Y66500000D01*
X3095000Y66500000D01*
D02*
G37*
G01*
%LPD*%
D12*
X-18250000Y11500000D02*
X-18750000Y12000000D01*
D12*
X-11424999Y26075001D02*
X-11424999Y36575001D01*
D12*
X-8500000Y17500000D02*
X-7824979Y16824979D01*
D12*
X-25094990Y50714990D02*
X-21964990Y50714990D01*
D12*
X6512653Y38487345D02*
X6262654Y38237346D01*
D12*
X3850031Y40296869D02*
X3850031Y53796869D01*
D12*
X-19750000Y58750000D02*
X-14250000Y53250000D01*
D12*
X-14500000Y26000000D02*
X-14500000Y33500000D01*
D13*
X-247488Y43247488D02*
X-247488Y43058336D01*
D12*
X-27220000Y46810000D02*
X-26270000Y46810000D01*
D12*
X-18074990Y62277046D02*
X-20297944Y64500000D01*
D12*
X-15250000Y46750000D02*
X-15500000Y46500000D01*
D12*
X9891850Y19250000D02*
X9891850Y21391850D01*
D12*
X-6250000Y57000000D02*
X-5675010Y56425010D01*
D12*
X-2174999Y38075001D02*
X-1174999Y38075001D01*
D12*
X-15987346Y40838400D02*
X-13924999Y38776053D01*
D12*
X-9250000Y37250000D02*
X-8500000Y38000000D01*
D12*
X-15000000Y33750000D02*
X-14500000Y34250000D01*
D12*
X-2249996Y2999996D02*
X-2249996Y1125000D01*
D12*
X-14250000Y51250000D02*
X-13500000Y52000000D01*
D12*
X5750000Y54500000D02*
X10500000Y49750000D01*
D12*
X13000000Y63000000D02*
X13500000Y63000000D01*
D12*
X9777087Y34824979D02*
X13100020Y38147912D01*
D12*
X-16750000Y65250000D02*
X-16750000Y63500000D01*
D12*
X-324992Y37323954D02*
X-324992Y35972900D01*
D12*
X21425010Y15823956D02*
X19351054Y13750000D01*
D12*
X4500000Y65750000D02*
X4500000Y67000000D01*
D12*
X-3750000Y2750000D02*
X-3750000Y4250000D01*
D12*
X-13500000Y52000000D02*
X-13500000Y53313174D01*
D12*
X-18324990Y18573956D02*
X-10999989Y25898957D01*
D12*
X2250000Y18750000D02*
X3500000Y20000000D01*
D12*
X10750000Y13750000D02*
X10750000Y15250000D01*
D14*
X-12100000Y60250000D02*
X-12100000Y57900000D01*
D12*
X21500000Y64500000D02*
X18000000Y64500000D01*
D12*
X4500000Y30000000D02*
X3000000Y28500000D01*
D14*
X1500000Y41750000D02*
X1500000Y44750000D01*
D12*
X13525030Y37971868D02*
X9953131Y34399969D01*
D12*
X-15250000Y46750000D02*
X-15250000Y48750000D01*
D12*
X2525030Y21971868D02*
X-3046869Y16399969D01*
D12*
X18924999Y14924999D02*
X17825001Y14924999D01*
D12*
X8101002Y21000000D02*
X10250000Y23148998D01*
D12*
X8101002Y20499948D02*
X8101002Y21000000D01*
D12*
X11146447Y44250000D02*
X10250001Y43353554D01*
D12*
X-14750000Y45250000D02*
X-14250000Y45750000D01*
D12*
X-16500000Y49250000D02*
X-16562347Y49312347D01*
D12*
X-8500000Y41500000D02*
X-7750000Y42250000D01*
D12*
X18075001Y16750000D02*
X18075001Y16674999D01*
D12*
X5277098Y33723936D02*
X3777098Y33723936D01*
D12*
X3425021Y40500000D02*
X3425021Y53972913D01*
D12*
X-4750000Y40750000D02*
X-4250000Y41250000D01*
D12*
X11749999Y43250001D02*
X11500000Y43500000D01*
D12*
X9953131Y34399969D02*
X5953131Y34399969D01*
D13*
X-3339575Y47033750D02*
X-8216250Y51910425D01*
D12*
X5953131Y34399969D02*
X5277098Y33723936D01*
D12*
X-26270000Y49350000D02*
X-28700009Y46919991D01*
D12*
X3000000Y28500000D02*
X3000000Y20250000D01*
D12*
X10500000Y46146447D02*
X11896447Y44750000D01*
D14*
X9000000Y63750000D02*
X-250000Y63750000D01*
D12*
X-15500000Y46500000D02*
X-15500000Y41000000D01*
D12*
X3000011Y40648957D02*
X-324992Y37323954D01*
D12*
X-21964990Y50714990D02*
X-20250000Y49000000D01*
D12*
X-4800527Y46699473D02*
X-4500000Y47000000D01*
D12*
X-3237346Y55262654D02*
X-2750000Y54775308D01*
D12*
X-13925001Y36250001D02*
X-14175000Y36500000D01*
D13*
X15783750Y28160426D02*
X15783750Y19033750D01*
D12*
X11399969Y50665594D02*
X7140563Y54925000D01*
D12*
X19500000Y17500000D02*
X19500000Y15500000D01*
D12*
X12675010Y43425010D02*
X12675010Y38323957D01*
D12*
X22750000Y63250000D02*
X21500000Y64500000D01*
D12*
X2000000Y19250000D02*
X3000000Y20250000D01*
D12*
X-14500000Y38750000D02*
X-16500000Y40750000D01*
D12*
X-1249996Y1125000D02*
X-1249996Y3499996D01*
D12*
X14500000Y13750000D02*
X13924999Y13174999D01*
D12*
X7250000Y20250000D02*
X7250000Y22500000D01*
D12*
X-3222913Y16824979D02*
X2100020Y22147912D01*
D12*
X18230000Y20230000D02*
X19230000Y20230000D01*
D13*
X247488Y42752512D02*
X58336Y42752512D01*
D13*
X-12216250Y61910426D02*
X-12216250Y63466250D01*
D12*
X3601054Y34148946D02*
X5101054Y34148946D01*
D12*
X6750000Y19750000D02*
X7250000Y20250000D01*
D12*
X-2750000Y3500000D02*
X-2249996Y2999996D01*
D12*
X1675010Y32823956D02*
X1675010Y22323956D01*
D12*
X-1474970Y34221868D02*
X100018Y35796856D01*
D13*
X-7466250Y29375000D02*
X-7500000Y29341250D01*
D14*
X4500000Y22500000D02*
X4500000Y28000000D01*
D12*
X18000000Y64500000D02*
X15500000Y62000000D01*
D12*
X7101054Y58250000D02*
X3000011Y54148957D01*
D13*
X58336Y42752512D02*
X-2283750Y40410426D01*
D12*
X18730000Y57540000D02*
X17250000Y56060000D01*
D13*
X3691664Y32252512D02*
X4910426Y31033750D01*
D12*
X-8000000Y13500000D02*
X-5525041Y15974959D01*
D12*
X-2000000Y55250000D02*
X-2750000Y56000000D01*
D12*
X9891850Y21641850D02*
X11000000Y22750000D01*
D12*
X-20000000Y19250000D02*
X-20000000Y17750000D01*
D12*
X12148998Y17750000D02*
X11485704Y18413294D01*
D13*
X-7250000Y28500000D02*
X-7500000Y28500000D01*
D12*
X-16562347Y49312347D02*
X-16562347Y50937653D01*
D12*
X7500000Y36500000D02*
X8512653Y37512653D01*
D12*
X2100020Y22147912D02*
X2100020Y32647912D01*
D12*
X8500000Y17500000D02*
X8500000Y18500000D01*
D12*
X16000000Y32750000D02*
X18574990Y30175010D01*
D12*
X13500000Y64000000D02*
X12250000Y64000000D01*
D12*
X-16562347Y50937653D02*
X-16000001Y51499999D01*
D12*
X13750000Y10000000D02*
X18000000Y14250000D01*
D12*
X-2750000Y54775308D02*
X-2750000Y49250000D01*
D12*
X12500000Y54500000D02*
X12249989Y54249989D01*
D14*
X-250000Y63750000D02*
X-1250000Y64750000D01*
D12*
X5601043Y35249989D02*
X4926044Y34574990D01*
D12*
X-512653Y55262653D02*
X-6750000Y61500000D01*
D12*
X-13924999Y34075001D02*
X-13924999Y36249999D01*
D12*
X12249989Y48149009D02*
X12974970Y47424028D01*
D12*
X-3046869Y16399969D02*
X-8250971Y16399969D01*
D12*
X1500004Y2749996D02*
X1500000Y2750000D01*
D12*
X6500000Y20500000D02*
X5750000Y21250000D01*
D12*
X-10999989Y36398957D02*
X-9324990Y38073956D01*
D12*
X11500000Y52750000D02*
X10914176Y52750000D01*
D12*
X-18074990Y61176044D02*
X-18074990Y62277046D01*
D12*
X3250000Y35000000D02*
X1250000Y33000000D01*
D12*
X6250056Y33500000D02*
X5750000Y32999944D01*
D12*
X-324992Y29926046D02*
X-324992Y23425008D01*
D12*
X-2750000Y5648946D02*
X-2750000Y3500000D01*
D12*
X5000000Y5500000D02*
X15500000Y5500000D01*
D12*
X-262654Y54737346D02*
X-512653Y54987345D01*
D12*
X19351054Y13750000D02*
X18101054Y13750000D01*
D12*
X-2749996Y1125000D02*
X-2749996Y2499996D01*
D12*
X12674999Y49723999D02*
X12674999Y53823997D01*
D12*
X-3750000Y4250000D02*
X-5000000Y5500000D01*
D12*
X-12000000Y19250000D02*
X-11750000Y19500000D01*
D12*
X1Y55499999D02*
X-148945Y55499999D01*
D12*
X-1899980Y31501034D02*
X-324992Y29926046D01*
D12*
X9891850Y19250000D02*
X8750000Y19250000D01*
D12*
X525028Y30278134D02*
X-1049960Y31853122D01*
D12*
X-5250000Y7675000D02*
X-9175000Y7675000D01*
D12*
X14250000Y43750000D02*
X13525030Y43025030D01*
D12*
X-6250000Y56000000D02*
X-2750000Y56000000D01*
D12*
X-13500000Y65750000D02*
X-14250000Y65000000D01*
D12*
X12250000Y43601054D02*
X12250000Y38500000D01*
D12*
X-1723999Y55825001D02*
X-1237347Y55338349D01*
D14*
X1000000Y56750000D02*
X-250000Y58000000D01*
D12*
X1250004Y2500004D02*
X1500000Y2750000D01*
D12*
X19825001Y18500000D02*
X18075001Y16750000D01*
D12*
X-23250000Y64000000D02*
X-20398998Y64000000D01*
D12*
X4750000Y19750000D02*
X6750000Y19750000D01*
D12*
X-21250000Y46750000D02*
X-21250000Y46000000D01*
D13*
X5089574Y31466250D02*
X3997488Y32558336D01*
D12*
X-15987346Y50762654D02*
X-15987346Y50012654D01*
D12*
X5750000Y38750000D02*
X5750000Y39103553D01*
D12*
X22750000Y51400000D02*
X22750000Y63250000D01*
D13*
X-2716250Y39839574D02*
X-7466250Y35089574D01*
D12*
X-22000000Y25250000D02*
X-22000000Y29500000D01*
D12*
X14250000Y17750000D02*
X13000000Y17750000D01*
D12*
X-9750000Y11000000D02*
X-9750000Y13398998D01*
D12*
X5500000Y36500000D02*
X7500000Y36500000D01*
D12*
X7000000Y18000000D02*
X6500000Y18500000D01*
D13*
X-8216250Y57910426D02*
X-12216250Y61910426D01*
D12*
X6250000Y17500000D02*
X1750000Y17500000D01*
D13*
X-2283750Y40410426D02*
X-2283750Y39660426D01*
D12*
X-19699989Y22949989D02*
X-22000000Y25250000D01*
D12*
X3000000Y35500000D02*
X4500000Y35500000D01*
D12*
X3640004Y2640004D02*
X3750000Y2750000D01*
D12*
X9424999Y35674999D02*
X5424999Y35674999D01*
D12*
X18250000Y15500000D02*
X18250000Y16500000D01*
D12*
X12249989Y54249989D02*
X12249989Y48149009D01*
D12*
X-28700009Y29200009D02*
X-21500000Y22000000D01*
D12*
X-14500000Y38000000D02*
X-14500000Y38750000D01*
D12*
X14250000Y16750000D02*
X12391850Y16750000D01*
D12*
X-12000000Y17500000D02*
X-12000000Y19250000D01*
D12*
X2100020Y32647912D02*
X3601054Y34148946D01*
D12*
X-21500000Y34000000D02*
X-21500000Y25500000D01*
D12*
X-15987346Y50762654D02*
X-14250000Y52500000D01*
D12*
X-7823956Y66175010D02*
X-15824990Y66175010D01*
D12*
X-10999989Y25898957D02*
X-10999989Y36398957D01*
D12*
X-17398998Y11500000D02*
X-18324990Y12425992D01*
D12*
X16075001Y16674999D02*
X18075001Y16674999D01*
D12*
X12500000Y15500000D02*
X10250000Y17750000D01*
D12*
X19825001Y20674999D02*
X19825001Y18500000D01*
D13*
X-7033750Y29750000D02*
X-6875000Y29591250D01*
D13*
X3502512Y32252512D02*
X3691664Y32252512D01*
D12*
X1648998Y19250000D02*
X2000000Y19250000D01*
D12*
X1250000Y22500000D02*
X-3575001Y17674999D01*
D12*
X-1049960Y34045824D02*
X525028Y35620812D01*
D12*
X4250000Y19250000D02*
X6851054Y19250000D01*
D12*
X-12249999Y27249999D02*
X-12000000Y27000000D01*
D12*
X-20149999Y22649999D02*
X-27750000Y30250000D01*
D12*
X17250000Y56060000D02*
X17250000Y51314704D01*
D14*
X0Y40250000D02*
X-250000Y40000000D01*
D12*
X-1500000Y10000000D02*
X13750000Y10000000D01*
D12*
X-18500000Y61000000D02*
X-13000000Y55500000D01*
D12*
X-4250000Y10000000D02*
X750004Y4999996D01*
D12*
X525028Y35620812D02*
X525028Y36971866D01*
D12*
X3425019Y40499998D02*
X3425021Y40500000D01*
D12*
X-3398957Y17249989D02*
X-7249989Y17249989D01*
D12*
X-21500000Y22000000D02*
X-21500000Y19000000D01*
D12*
X10914176Y52750000D02*
X7332088Y56332088D01*
D12*
X-1626043Y15974959D02*
X1648998Y19250000D01*
D13*
X-6875000Y28875000D02*
X-7250000Y28500000D01*
D12*
X525028Y22775028D02*
X525028Y30278134D01*
D12*
X-1899980Y34397912D02*
X-1899980Y31501034D01*
D12*
X-3000000Y30500000D02*
X-2250000Y29750000D01*
D12*
X3750000Y4250000D02*
X5000000Y5500000D01*
D12*
X6531587Y54531587D02*
X10974959Y50088215D01*
D12*
X-2250000Y29750000D02*
X-2250000Y25750000D01*
D12*
X-22250000Y64500000D02*
X-23250000Y65500000D01*
D12*
X-16000001Y54000001D02*
X-16250000Y54250000D01*
D12*
X-14250000Y24250000D02*
X-14250000Y25750000D01*
D12*
X10750000Y33500000D02*
X6250056Y33500000D01*
D12*
X-749996Y3999996D02*
X-749996Y1125000D01*
D12*
X-675010Y9574990D02*
X-1500000Y8750000D01*
D12*
X-7249989Y17249989D02*
X-7750000Y17750000D01*
D12*
X15500000Y62000000D02*
X15500000Y59250000D01*
D13*
X-11783750Y63466250D02*
X-11783750Y62089574D01*
D12*
X-5525041Y15974959D02*
X-1626043Y15974959D01*
D12*
X1675010Y22323956D02*
X-3398957Y17249989D01*
D12*
X-18750000Y12000000D02*
X-18750000Y18750000D01*
D12*
X-1174999Y38075001D02*
X-250000Y39000000D01*
D12*
X-6750000Y61500000D02*
X-6750000Y64500000D01*
D12*
X20000000Y10000000D02*
X24500000Y14500000D01*
D12*
X9750000Y39250000D02*
X9250000Y38750000D01*
D12*
X-6674999Y17674999D02*
X-7000000Y18000000D01*
D12*
X7128152Y57074990D02*
X11324990Y57074990D01*
D12*
X16500000Y57850000D02*
X16500000Y55750000D01*
D12*
X-1500000Y23000000D02*
X-2250000Y23000000D01*
D12*
X-11750000Y19500000D02*
X-11750000Y22750000D01*
D12*
X12000000Y67750000D02*
X13500000Y67750000D01*
D12*
X-7824979Y16824979D02*
X-3222913Y16824979D01*
D12*
X-324992Y35972900D02*
X-1899980Y34397912D01*
D12*
X17250000Y51314704D02*
X16425000Y50489704D01*
D14*
X4500000Y28000000D02*
X4250000Y28250000D01*
D12*
X11000000Y27250000D02*
X12000000Y27250000D01*
D12*
X17500000Y32750000D02*
X19000000Y31250000D01*
D12*
X4500000Y67000000D02*
X5250000Y67750000D01*
D12*
X13000000Y48250000D02*
X13399980Y47850020D01*
D12*
X7000000Y17250000D02*
X7000000Y18000000D01*
D12*
X5750000Y27250000D02*
X6250000Y27750000D01*
D12*
X-750000Y37500000D02*
X-750000Y36148946D01*
D12*
X100018Y37147910D02*
X3425019Y40472911D01*
D12*
X3500000Y20000000D02*
X4500000Y20000000D01*
D12*
X1250000Y33000000D02*
X1250000Y22500000D01*
D12*
X-14750000Y44250000D02*
X-14750000Y45250000D01*
D12*
X-11750000Y22750000D02*
X-12500000Y23500000D01*
D12*
X-1500000Y21500000D02*
X100018Y23100018D01*
D12*
X-19750000Y62500000D02*
X-19750000Y58750000D01*
D12*
X12250000Y18500000D02*
X14250000Y18500000D01*
D12*
X13100020Y38147912D02*
X13100020Y43201074D01*
D12*
X-1249996Y3499996D02*
X-1500000Y3750000D01*
D12*
X11824979Y47972965D02*
X11824979Y51175021D01*
D12*
X13250000Y15500000D02*
X12500000Y15500000D01*
D12*
X-3639996Y2639996D02*
X-3750000Y2750000D01*
D12*
X-20398998Y64000000D02*
X-18500000Y62101002D01*
D13*
X-2716250Y40589574D02*
X-2716250Y39839574D01*
D12*
X9891850Y21391850D02*
X9891850Y21641850D01*
D12*
X-13924999Y37723999D02*
X-14750000Y36898998D01*
D12*
X-20750000Y20750000D02*
X-20149999Y21350001D01*
D12*
X-16750000Y63500000D02*
X-15500000Y62250000D01*
D13*
X5500000Y64750000D02*
X4500000Y65750000D01*
D13*
X-6875000Y29591250D02*
X-6875000Y28875000D01*
D12*
X-12500000Y16148998D02*
X-12500000Y21500000D01*
D12*
X-14750000Y36898998D02*
X-14749999Y35249999D01*
D12*
X-4000000Y36250000D02*
X-2174999Y38075001D01*
D12*
X10250000Y23148998D02*
X10250000Y26500000D01*
D12*
X-16500000Y40750000D02*
X-16500000Y49250000D01*
D14*
X12000000Y67750000D02*
X12000000Y66750000D01*
D12*
X-4750000Y39000000D02*
X-4750000Y40750000D01*
D12*
X100018Y30102090D02*
X-1474970Y31677078D01*
D14*
X1000000Y45250000D02*
X1000000Y56750000D01*
D12*
X-19249980Y20000020D02*
X-20000000Y19250000D01*
D12*
X3426044Y34574990D02*
X1675010Y32823956D01*
D12*
X-21500000Y25500000D02*
X-19249980Y23249980D01*
D12*
X-3639996Y1125000D02*
X-3639996Y2639996D01*
D12*
X-20297944Y64500000D02*
X-22250000Y64500000D01*
D13*
X-8216250Y51910425D02*
X-8216250Y57910426D01*
D12*
X-9175000Y7675000D02*
X-11250000Y9750000D01*
D12*
X-1500000Y37500000D02*
X-1500000Y36250000D01*
D12*
X11824979Y51175021D02*
X7500000Y55500000D01*
D12*
X5424999Y35674999D02*
X4750000Y35000000D01*
D12*
X-2749996Y2499996D02*
X-3000000Y2750000D01*
D12*
X19000000Y22101054D02*
X20250011Y20851043D01*
D12*
X5500000Y16750000D02*
X6500000Y16750000D01*
D12*
X12675010Y38323957D02*
X9601043Y35249989D01*
D12*
X-9750000Y38250000D02*
X-9750000Y42750000D01*
D12*
X-750000Y36148946D02*
X-2324990Y34573956D01*
D13*
X-1410426Y47466250D02*
X-191664Y46247488D01*
D12*
X-3000000Y34750000D02*
X-3000000Y30500000D01*
D12*
X11324990Y57074990D02*
X12500000Y58250000D01*
D12*
X-9250000Y17398998D02*
X-9250000Y18000000D01*
D12*
X18000000Y14250000D02*
X19250000Y14250000D01*
D12*
X-749996Y3999996D02*
X-1500000Y4750000D01*
D13*
X-7783750Y52089573D02*
X-3160427Y47466250D01*
D12*
X-13499989Y38999989D02*
X-13499989Y28499989D01*
D12*
X-24920000Y48000000D02*
X-22500000Y48000000D01*
D12*
X-19699989Y20550011D02*
X-19699989Y22949989D01*
D12*
X7500000Y55500000D02*
X6500000Y55500000D01*
D13*
X-2283750Y39660426D02*
X-7033750Y34910426D01*
D12*
X18101054Y13750000D02*
X13926044Y9574990D01*
D12*
X-12925010Y20925010D02*
X-12925010Y15972954D01*
D12*
X-5675010Y56425010D02*
X-2573956Y56425010D01*
D14*
X-250000Y58000000D02*
X-250000Y63750000D01*
D12*
X2750004Y1125000D02*
X2750004Y2500004D01*
D12*
X12250000Y46250000D02*
X11896447Y46250000D01*
D12*
X-14250000Y49750000D02*
X-14250000Y51250000D01*
D12*
X6500000Y16750000D02*
X7000000Y17250000D01*
D12*
X24500000Y66750000D02*
X23250000Y66750000D01*
D13*
X-11000000Y64250000D02*
X-11783750Y63466250D01*
D12*
X3425021Y53972913D02*
X6952108Y57500000D01*
D12*
X13500000Y49750000D02*
X14250000Y49000000D01*
D12*
X18230000Y20230000D02*
X17249999Y19249999D01*
D12*
X20250011Y20851043D02*
X20250011Y18250011D01*
D12*
X-12500000Y56250000D02*
X-13148946Y56250000D01*
D12*
X13100020Y43201074D02*
X13824990Y43926044D01*
D12*
X-14250000Y53250000D02*
X-14250000Y52500000D01*
D12*
X16500009Y16249991D02*
X15750009Y16249991D01*
D13*
X16000000Y18353553D02*
X16216250Y18569803D01*
D12*
X3750000Y2750000D02*
X3750000Y4250000D01*
D12*
X5750000Y14500000D02*
X5750000Y13000000D01*
D12*
X-21500000Y19000000D02*
X-20750000Y18250000D01*
D13*
X16216250Y28339574D02*
X13089574Y31466250D01*
D12*
X-15000000Y25250000D02*
X-15000000Y33750000D01*
D12*
X-3575001Y17674999D02*
X-6674999Y17674999D01*
D12*
X-15500000Y41000000D02*
X-13499989Y38999989D01*
D12*
X-13924999Y38776053D02*
X-13924999Y37723999D01*
D12*
X5750000Y21250000D02*
X5750000Y27250000D01*
D12*
X13000000Y17750000D02*
X12148998Y17750000D01*
D12*
X-19249980Y23249980D02*
X-19249980Y20000020D01*
D12*
X-11250000Y14297944D02*
X-11250000Y11648998D01*
D12*
X2750004Y2500004D02*
X3000000Y2750000D01*
D12*
X11000000Y22750000D02*
X11000000Y26250000D01*
D12*
X-5250000Y7675000D02*
X-4776054Y7675000D01*
D12*
X-13250000Y22750000D02*
X-13250000Y21250000D01*
D12*
X3000011Y54148957D02*
X3000011Y40648957D01*
D12*
X3850031Y53796869D02*
X7128152Y57074990D01*
D12*
X-14749999Y35249999D02*
X-14500000Y35000000D01*
D12*
X-2324990Y31324990D02*
X-750000Y29750000D01*
D12*
X19500000Y15500000D02*
X18924999Y14924999D01*
D12*
X-22500000Y48000000D02*
X-21250000Y46750000D01*
D12*
X12250000Y47547944D02*
X11824979Y47972965D01*
D12*
X-13500000Y53313174D02*
X-15968413Y55781587D01*
D12*
X14250000Y18500000D02*
X16075001Y16674999D01*
D12*
X15500000Y5500000D02*
X20000000Y10000000D01*
D12*
X10500000Y49750000D02*
X10500000Y46146447D01*
D12*
X12974970Y47424028D02*
X12974970Y44326024D01*
D12*
X-20000000Y17750000D02*
X-20750000Y17000000D01*
D12*
X-14500000Y34250000D02*
X-14500000Y35000000D01*
D12*
X13926044Y9574990D02*
X-675010Y9574990D01*
D12*
X4898686Y53219177D02*
X4700051Y53020542D01*
D12*
X-1237347Y54987345D02*
X-1487346Y54737346D01*
D14*
X12000000Y66750000D02*
X9000000Y63750000D01*
D12*
X10974959Y46421488D02*
X11896447Y45500000D01*
D12*
X-8500000Y38000000D02*
X-8500000Y41500000D01*
D12*
X18574990Y21925010D02*
X19825001Y20674999D01*
D12*
X1500000Y34000000D02*
X3000000Y35500000D01*
D12*
X-5199473Y46699473D02*
X-4800527Y46699473D01*
D12*
X-26270000Y51890000D02*
X-25094990Y50714990D01*
D13*
X15783750Y19033750D02*
X15500000Y18750000D01*
D12*
X-13250000Y21250000D02*
X-12925010Y20925010D01*
D12*
X17750000Y34000000D02*
X16000000Y35750000D01*
D13*
X16000000Y18250000D02*
X16000000Y18353553D01*
D12*
X-20750000Y22000000D02*
X-28250000Y29500000D01*
D12*
X9500000Y17250000D02*
X9500000Y18500000D01*
D12*
X-5500000Y47000000D02*
X-5500000Y47500000D01*
D12*
X-2250000Y3636410D02*
X-2250000Y5750000D01*
D12*
X-11250000Y11648998D02*
X-10601002Y11000000D01*
D12*
X-10000000Y15500000D02*
X-12000000Y17500000D01*
D12*
X3777098Y33723936D02*
X2525030Y32471868D01*
D12*
X-14500000Y33500000D02*
X-13924999Y34075001D01*
D12*
X2575001Y40825001D02*
X-750000Y37500000D01*
D12*
X13924999Y13174999D02*
X11325001Y13174999D01*
D12*
X16501750Y49248250D02*
X15500000Y50250000D01*
D13*
X-497488Y45941664D02*
X-1589574Y47033750D01*
D12*
X-26270000Y44270000D02*
X-27750000Y42790000D01*
D12*
X-13924999Y36249999D02*
X-13925001Y36250001D01*
D12*
X11749999Y41949333D02*
X11749999Y43250001D01*
D12*
X-1237347Y55338349D02*
X-1237347Y54987345D01*
D12*
X13525030Y43025030D02*
X13525030Y37971868D01*
D12*
X4250000Y69500000D02*
X3500000Y68750000D01*
D12*
X-18324990Y12425992D02*
X-18324990Y18573956D01*
D13*
X-3160427Y47466250D02*
X-1410426Y47466250D01*
D12*
X21000000Y21250000D02*
X20250000Y22000000D01*
D12*
X-250000Y16500000D02*
X2000000Y18750000D01*
D13*
X-7500000Y29341250D02*
X-7500000Y29250000D01*
D12*
X-4000000Y18250000D02*
X525028Y22775028D01*
D12*
X-148945Y55499999D02*
X-6324990Y61676044D01*
D12*
X-1500000Y22250000D02*
X-2000000Y22250000D01*
D12*
X11399969Y46746478D02*
X11399969Y50665594D01*
D12*
X-28250000Y29500000D02*
X-28250000Y45780000D01*
D12*
X11500000Y32750000D02*
X10750000Y33500000D01*
D12*
X-6750000Y64500000D02*
X-8000000Y65750000D01*
D12*
X11896447Y45500000D02*
X12250000Y45500000D01*
D12*
X-8250971Y16399969D02*
X-9250000Y17398998D01*
D12*
X18058250Y49248250D02*
X16501750Y49248250D01*
D12*
X6250000Y27750000D02*
X6750000Y28250000D01*
D12*
X3500000Y68750000D02*
X3500000Y65750000D01*
D12*
X12250000Y64000000D02*
X2575001Y54325001D01*
D12*
X3640004Y1125000D02*
X3640004Y2640004D01*
D12*
X4750000Y35000000D02*
X3250000Y35000000D01*
D12*
X5101054Y34148946D02*
X5777087Y34824979D01*
D13*
X-11783750Y62089574D02*
X-7783750Y58089574D01*
D12*
X12974970Y44326024D02*
X12250000Y43601054D01*
D12*
X-1049960Y31853122D02*
X-1049960Y34045824D01*
D12*
X-26270000Y49350000D02*
X-24920000Y48000000D01*
D12*
X13824990Y48574008D02*
X12674999Y49723999D01*
D12*
X-20149999Y21350001D02*
X-20149999Y22649999D01*
D12*
X-9324990Y38073956D02*
X-9324990Y42573956D01*
D12*
X7250000Y22500000D02*
X9250000Y24500000D01*
D12*
X10250001Y43353554D02*
X10250001Y38999999D01*
D12*
X-28700009Y46919991D02*
X-28700009Y29200009D01*
D12*
X1250004Y1125000D02*
X1250004Y2500004D01*
D12*
X6512653Y38941954D02*
X6512653Y38487345D01*
D12*
X12674999Y53823997D02*
X13500000Y54648998D01*
D12*
X-15987346Y50012654D02*
X-15987346Y40838400D01*
D12*
X-6324990Y61676044D02*
X-6324990Y64676044D01*
D13*
X-7466250Y35089574D02*
X-7466250Y29375000D01*
D12*
X9750000Y45750000D02*
X9750000Y39250000D01*
D12*
X11896447Y44750000D02*
X12250000Y44750000D01*
D12*
X-15824990Y66175010D02*
X-16750000Y65250000D01*
D12*
X100018Y23100018D02*
X100018Y30102090D01*
D12*
X21270000Y49920000D02*
X22750000Y51400000D01*
D12*
X19250000Y14250000D02*
X21000000Y16000000D01*
D13*
X-12216250Y63466250D02*
X-13000000Y64250000D01*
D12*
X250000Y55250000D02*
X1Y55499999D01*
D12*
X-512653Y54987345D02*
X-512653Y55262653D01*
D12*
X11750000Y58148998D02*
X11750000Y61750000D01*
D12*
X12250000Y38500000D02*
X9424999Y35674999D01*
D12*
X12250000Y47000000D02*
X12250000Y47547944D01*
D12*
X5750000Y13000000D02*
X8000000Y10750000D01*
D12*
X-2573956Y56425010D02*
X-1973947Y55825001D01*
D12*
X4500000Y35500000D02*
X5500000Y36500000D01*
D12*
X-5000000Y5500000D02*
X-20500000Y5500000D01*
D12*
X-1973947Y55825001D02*
X-1723999Y55825001D01*
D12*
X12391850Y16750000D02*
X9891850Y19250000D01*
D12*
X11485704Y18413294D02*
X11485704Y18507148D01*
D13*
X-7033750Y34910426D02*
X-7033750Y29750000D01*
D12*
X10250001Y38999999D02*
X10500000Y38750000D01*
D12*
X-13499989Y28499989D02*
X-12249999Y27249999D01*
D12*
X10750000Y15250000D02*
X8500000Y17500000D01*
D12*
X13500000Y67750000D02*
X15000000Y69250000D01*
D12*
X-16000001Y51499999D02*
X-16000001Y54000001D01*
D12*
X10250000Y26500000D02*
X11000000Y27250000D01*
D12*
X20000000Y34000000D02*
X17750000Y34000000D01*
D12*
X9250000Y24500000D02*
X9250000Y25750000D01*
D12*
X-3750000Y49146447D02*
X-3103553Y48500000D01*
D13*
X12910426Y31033750D02*
X15783750Y28160426D01*
D12*
X-9750000Y13398998D02*
X-12500000Y16148998D01*
D12*
X6851054Y19250000D02*
X8101002Y20499948D01*
D12*
X21000000Y23000000D02*
X21425010Y22574990D01*
D12*
X15500000Y13750000D02*
X14500000Y13750000D01*
D12*
X17825001Y14924999D02*
X16500009Y16249991D01*
D12*
X8512653Y38512655D02*
X8262654Y38762654D01*
D12*
X-28250000Y45780000D02*
X-27220000Y46810000D01*
D12*
X24500000Y14500000D02*
X24500000Y66750000D01*
D12*
X18075001Y16674999D02*
X18250000Y16500000D01*
D12*
X3425021Y40500000D02*
X3425021Y40472913D01*
D12*
X-18500000Y62101002D02*
X-18500000Y61000000D01*
D12*
X6952108Y57500000D02*
X11101002Y57500000D01*
D12*
X18574990Y30175010D02*
X18574990Y21925010D01*
D12*
X9601043Y35249989D02*
X5601043Y35249989D01*
D12*
X13824990Y43926044D02*
X13824990Y48574008D01*
D12*
X-13148946Y56250000D02*
X-18074990Y61176044D01*
D13*
X4910426Y31033750D02*
X12910426Y31033750D01*
D12*
X18730000Y49920000D02*
X18058250Y49248250D01*
D12*
X-1474970Y31677078D02*
X-1474970Y34221868D01*
D12*
X10974959Y50088215D02*
X10974959Y46421488D01*
D12*
X-16750000Y11500000D02*
X-17398998Y11500000D01*
D12*
X4275041Y40578512D02*
X4275041Y53408705D01*
D13*
X-1589574Y47033750D02*
X-3339575Y47033750D01*
D13*
X16216250Y18569803D02*
X16216250Y28339574D01*
D12*
X11500000Y41699334D02*
X11749999Y41949333D01*
D12*
X-13500010Y18000000D02*
X-16000000Y18000000D01*
D12*
X4700051Y40754556D02*
X6512653Y38941954D01*
D14*
X-14770000Y16270000D02*
X-13500000Y15000000D01*
D12*
X4926044Y34574990D02*
X3426044Y34574990D01*
D12*
X-7000000Y44000000D02*
X-3000000Y44000000D01*
D12*
X-750000Y23750000D02*
X-1500000Y23000000D01*
D12*
X-2250000Y5750000D02*
X-4750000Y8250000D01*
D12*
X-20250000Y49000000D02*
X-20250000Y33500000D01*
D12*
X-2324990Y34573956D02*
X-2324990Y31324990D01*
D12*
X-20500000Y5500000D02*
X-25000000Y10000000D01*
D12*
X-9324990Y42573956D02*
X-5199473Y46699473D01*
D12*
X-14250000Y25750000D02*
X-14500000Y26000000D01*
D12*
X-9101002Y8250000D02*
X-10431795Y9580793D01*
D12*
X14250000Y49000000D02*
X14250000Y43750000D01*
D12*
X15500000Y50750000D02*
X15500000Y53500000D01*
D12*
X-15500000Y62250000D02*
X-15500000Y59750000D01*
D12*
X5750000Y39103553D02*
X4275041Y40578512D01*
D12*
X-22000000Y38000000D02*
X-22000000Y29500000D01*
D12*
X23250000Y66750000D02*
X20000000Y70000000D01*
D12*
X-21000000Y34500000D02*
X-21500000Y34000000D01*
D12*
X3425019Y40472911D02*
X3425019Y40499998D01*
D12*
X13399980Y47850020D02*
X13399980Y44149980D01*
D12*
X-10431795Y9931795D02*
X-11250000Y10750000D01*
D12*
X-12925010Y15972954D02*
X-11250000Y14297944D01*
D14*
X0Y40250000D02*
X1500000Y41750000D01*
D12*
X1750000Y17500000D02*
X-980000Y14770000D01*
D12*
X5777087Y34824979D02*
X9777087Y34824979D01*
D12*
X2000000Y18750000D02*
X2250000Y18750000D01*
D12*
X8512653Y37512653D02*
X8512653Y38512655D01*
D12*
X-3750000Y54750000D02*
X-3750000Y49146447D01*
D12*
X2575001Y54325001D02*
X2575001Y40825001D01*
D12*
X11000000Y58250000D02*
X7101054Y58250000D01*
D12*
X4700051Y53020542D02*
X4700051Y40754556D01*
D12*
X750004Y4999996D02*
X750004Y1125000D01*
D12*
X-20750000Y19500000D02*
X-19699989Y20550011D01*
D12*
X-1749996Y1125000D02*
X-1749996Y3136406D01*
D13*
X-7783750Y58089574D02*
X-7783750Y52089573D01*
D12*
X11500000Y44250000D02*
X11146447Y44250000D01*
D14*
X-17000000Y16270000D02*
X-14770000Y16270000D01*
D12*
X-18750000Y18750000D02*
X-11424999Y26075001D01*
D12*
X11325001Y13174999D02*
X10750000Y13750000D01*
D12*
X-1500000Y36250000D02*
X-3000000Y34750000D01*
D12*
X-74980Y34000000D02*
X1500000Y34000000D01*
D12*
X11101002Y57500000D02*
X11750000Y58148998D01*
D12*
X2525030Y32471868D02*
X2525030Y21971868D01*
D12*
X13500000Y54648998D02*
X13500000Y55500000D01*
D12*
X-5500000Y47500000D02*
X-5250000Y47750000D01*
D12*
X-1749996Y3136406D02*
X-2250000Y3636410D01*
D12*
X19230000Y20230000D02*
X19250000Y20250000D01*
D14*
X-12100000Y57900000D02*
X-12750000Y57250000D01*
D12*
X4500000Y30000000D02*
X12000000Y30000000D01*
D12*
X-9750000Y42750000D02*
X-5500000Y47000000D01*
D12*
X20250011Y18250011D02*
X19500000Y17500000D01*
D12*
X18730000Y60080000D02*
X16500000Y57850000D01*
D12*
X17249999Y19249999D02*
X17000000Y19000000D01*
D12*
X-2250000Y21500000D02*
X-1500000Y21500000D01*
D12*
X21425010Y22574990D02*
X21425010Y15823956D01*
D13*
X3997488Y32558336D02*
X3997488Y32747488D01*
D12*
X100018Y35796856D02*
X100018Y37147910D01*
D12*
X5250000Y67750000D02*
X5250000Y69500000D01*
D12*
X13000000Y13750000D02*
X9500000Y17250000D01*
D12*
X-15250000Y48750000D02*
X-14250000Y49750000D01*
D12*
X4275041Y53408705D02*
X5058168Y54191832D01*
D12*
X-4776054Y7675000D02*
X-2750000Y5648946D01*
D12*
X-14250000Y65000000D02*
X-14250000Y62750000D01*
D12*
X11750000Y61750000D02*
X13000000Y63000000D01*
D12*
X-2750000Y48500000D02*
X-3103553Y48500000D01*
D13*
X13089574Y31466250D02*
X5089574Y31466250D01*
D12*
X-11424999Y36575001D02*
X-9750000Y38250000D01*
D12*
X21000000Y16000000D02*
X21000000Y21250000D01*
D12*
X-13000000Y55500000D02*
X-12250000Y55500000D01*
D13*
X-191664Y46247488D02*
X-2512Y46247488D01*
D12*
X-9250000Y29500000D02*
X-9250000Y37250000D01*
D14*
X-26270000Y54430000D02*
X-23730000Y54430000D01*
D12*
X-10431795Y9580793D02*
X-10431795Y9931795D01*
D12*
X15500000Y50250000D02*
X15500000Y50750000D01*
D12*
X19000000Y31250000D02*
X19000000Y22101054D01*
D12*
X-10601002Y11000000D02*
X-10500000Y11000000D01*
D12*
X-750000Y29750000D02*
X-750000Y23750000D01*
D12*
X4500000Y20000000D02*
X4750000Y19750000D01*
D13*
X-497488Y45752512D02*
X-497488Y45941664D01*
D14*
X1500000Y44750000D02*
X1000000Y45250000D01*
D12*
X11500000Y39750000D02*
X11500000Y41699334D01*
D12*
X-27750000Y42790000D02*
X-27750000Y30250000D01*
D13*
X-247488Y43058336D02*
X-2716250Y40589574D01*
D12*
X13399980Y44149980D02*
X12675010Y43425010D01*
D12*
X-324992Y23425008D02*
X-1500000Y22250000D01*
D12*
X-6324990Y64676044D02*
X-7823956Y66175010D01*
D12*
X11896447Y46250000D02*
X11399969Y46746478D01*
D12*
X-4750000Y8250000D02*
X-9101002Y8250000D01*
D12*
X15750009Y16249991D02*
X14250000Y17750000D01*
D12*
X525028Y36971866D02*
X3850031Y40296869D01*
D12*
X-8000000Y65750000D02*
X-13500000Y65750000D01*
G75*
D10*
X-25000000Y70000000D03*
D11*
X-25000000Y10000000D03*
D11*
X20000000Y10000000D03*
D10*
X20000000Y70000000D03*
D15*
X-23730000Y51890000D03*
D16*
X-26270000Y46810000D03*
D17*
X-23730000Y34110000D03*
D15*
X-23730000Y44270000D03*
D15*
X-23730000Y31570000D03*
D18*
X-23730000Y41730000D03*
D19*
X-26270000Y34110000D03*
D17*
X-26270000Y54430000D03*
D18*
X-23730000Y54430000D03*
D16*
X-26270000Y49350000D03*
D16*
X-23730000Y39190000D03*
D20*
X-26270000Y44270000D03*
D16*
X-26270000Y31570000D03*
D18*
X-26270000Y39190000D03*
D19*
X-23730000Y46810000D03*
D15*
X-26270000Y41730000D03*
D18*
X-23730000Y36650000D03*
D18*
X-26270000Y36650000D03*
D15*
X-26270000Y51890000D03*
D17*
X-23730000Y49350000D03*
D19*
X21270000Y60080000D03*
D16*
X18730000Y55000000D03*
D15*
X21270000Y52460000D03*
D19*
X21270000Y49920000D03*
D19*
X18730000Y62620000D03*
D15*
X21270000Y62620000D03*
D19*
X18730000Y57540000D03*
D18*
X21270000Y47380000D03*
D18*
X18730000Y52460000D03*
D15*
X18730000Y47380000D03*
D16*
X21270000Y55000000D03*
D16*
X18730000Y49920000D03*
D18*
X18730000Y60080000D03*
D19*
X21270000Y57540000D03*
D18*
X-17000000Y16270000D03*
D15*
X-17000000Y13730000D03*
D21*
X-18570000Y66960000D03*
D22*
X-13000000Y64250000D03*
D23*
X-11000000Y64250000D03*
D23*
X-15500000Y64250000D03*
D24*
X-8500000Y64250000D03*
D25*
X-5430000Y66960000D03*
D26*
X-249996Y1125000D03*
D26*
X-1249996Y1125000D03*
D26*
X-1749996Y1125000D03*
D27*
X2750004Y1125000D03*
D27*
X-2749996Y1125000D03*
D28*
X3640004Y1125000D03*
D26*
X1750004Y1125000D03*
D26*
X750004Y1125000D03*
D26*
X-749996Y1125000D03*
D26*
X2250004Y1125000D03*
D26*
X1250004Y1125000D03*
D26*
X-2249996Y1125000D03*
D28*
X-3639996Y1125000D03*
D26*
X250004Y1125000D03*
D29*
X-3520000Y14770000D03*
D29*
X-980000Y12230000D03*
D30*
X-3520000Y12230000D03*
D29*
X-980000Y14770000D03*
D29*
X23000000Y22770000D03*
D31*
X23000000Y15150000D03*
D30*
X23000000Y17690000D03*
D32*
X23000000Y25310000D03*
D31*
X23000000Y20230000D03*
D32*
X23000000Y27850000D03*
D33*
X380000Y72860000D03*
D34*
X9640000Y72860000D03*
D35*
X9320000Y67500000D03*
D36*
X680000Y67500000D03*
D37*
X-17000000Y57250000D03*
D38*
X11500000Y43500000D03*
D38*
X-16000000Y7000000D03*
D39*
X-18250000Y32750000D03*
D37*
X3000000Y2750000D03*
D40*
X7000000Y42750000D03*
D38*
X-262654Y54737346D03*
D39*
X15500000Y56250000D03*
D41*
X-17250000Y35250000D03*
D38*
X-26750000Y65500000D03*
D39*
X-19250000Y9000000D03*
D38*
X12000000Y67750000D03*
D37*
X5750000Y38750000D03*
D38*
X14500000Y59250000D03*
D42*
X9000000Y15500000D03*
D38*
X-8000000Y14750000D03*
D37*
X-15500000Y59750000D03*
D37*
X4000000Y11500000D03*
D38*
X-18250000Y37500000D03*
D39*
X-27000000Y18250000D03*
D38*
X7750000Y38250000D03*
D41*
X5750000Y54500000D03*
D38*
X16425000Y50489704D03*
D39*
X-1000000Y39750000D03*
D43*
X-6375000Y20875000D03*
D37*
X15000000Y66000000D03*
D38*
X11500000Y14000000D03*
D38*
X6531587Y54531587D03*
D37*
X3750000Y13250000D03*
D39*
X8262654Y38762654D03*
D44*
X17750000Y27500000D03*
D41*
X13250000Y59250000D03*
D38*
X5750000Y32999944D03*
D37*
X14250000Y42500000D03*
D39*
X-2250000Y23000000D03*
D37*
X250000Y55250000D03*
D38*
X9250000Y38750000D03*
D37*
X-5250000Y47750000D03*
D38*
X-19500000Y53750000D03*
D38*
X16500000Y53500000D03*
D39*
X9500000Y49000000D03*
D38*
X9750000Y45750000D03*
D39*
X2000000Y47000000D03*
D41*
X14500000Y53500000D03*
D38*
X-1750000Y44000000D03*
D38*
X-12750000Y57250000D03*
D37*
X-8500000Y35500000D03*
D41*
X-12500000Y56250000D03*
D37*
X3502512Y32252512D03*
D40*
X8250000Y42750000D03*
D38*
X-10750000Y46500000D03*
D39*
X-20750000Y17000000D03*
D38*
X5500000Y64750000D03*
D37*
X-18250000Y11500000D03*
D38*
X20750000Y28000000D03*
D39*
X-12250000Y12750000D03*
D40*
X-6375000Y24375000D03*
D39*
X-12250000Y35250000D03*
D37*
X12500000Y24500000D03*
D39*
X-1250000Y64750000D03*
D39*
X6250000Y17500000D03*
D38*
X-14750000Y44250000D03*
D38*
X-13500000Y27500000D03*
D37*
X15500000Y62000000D03*
D39*
X-3000000Y44000000D03*
D38*
X19250000Y20250000D03*
D38*
X-17750000Y43250000D03*
D37*
X-7750000Y17750000D03*
D39*
X-19000000Y49500000D03*
D38*
X4750000Y36750000D03*
D37*
X750000Y61750000D03*
D42*
X6500000Y22750000D03*
D37*
X8750000Y11000000D03*
D40*
X-8125000Y20875000D03*
D38*
X11500000Y39750000D03*
D38*
X-4500000Y47000000D03*
D41*
X-7500000Y29250000D03*
D39*
X12250000Y47000000D03*
D37*
X-13500000Y51000000D03*
D38*
X-4250000Y41250000D03*
D38*
X5500000Y16750000D03*
D38*
X2750000Y16750000D03*
D37*
X2000000Y61750000D03*
D39*
X-15968413Y55781587D03*
D41*
X12250000Y46250000D03*
D37*
X-1500000Y4750000D03*
D37*
X17000000Y19000000D03*
D37*
X15500000Y48000000D03*
D38*
X-15500000Y20500000D03*
D38*
X-16750000Y58000000D03*
D37*
X10250000Y32750000D03*
D39*
X17250000Y61250000D03*
D39*
X10500000Y38750000D03*
D38*
X-497488Y45752512D03*
D38*
X11000000Y42550336D03*
D38*
X17500000Y24500000D03*
D39*
X2000000Y48500000D03*
D37*
X-17250000Y36000000D03*
D39*
X3500000Y37500000D03*
D38*
X9250000Y29425000D03*
D38*
X-1500000Y25750000D03*
D37*
X15500000Y13750000D03*
D37*
X10000000Y11500000D03*
D39*
X12000000Y28250000D03*
D38*
X-13500000Y15000000D03*
D38*
X-21000000Y34500000D03*
D39*
X-9250000Y29500000D03*
D39*
X-10500000Y11750000D03*
D37*
X-11218413Y18718413D03*
D39*
X-2750000Y49250000D03*
D37*
X-10250008Y58500008D03*
D37*
X10250000Y17750000D03*
D39*
X-17250000Y32750000D03*
D38*
X12500000Y20750000D03*
D37*
X-13500000Y14000000D03*
D38*
X8750000Y36250000D03*
D38*
X8750000Y20000000D03*
D38*
X20000000Y41250000D03*
D38*
X-7500000Y28500000D03*
D39*
X11500000Y32750000D03*
D45*
X-8125000Y26125000D03*
D39*
X4250000Y69500000D03*
D38*
X-4250000Y10000000D03*
D38*
X9250000Y25750000D03*
D39*
X13500000Y49750000D03*
D39*
X13000000Y13750000D03*
D37*
X-2250000Y21500000D03*
D37*
X4898686Y53219177D03*
D37*
X-4000000Y36250000D03*
D39*
X-14000000Y9250000D03*
D37*
X6500000Y20500000D03*
D37*
X15500000Y59250000D03*
D39*
X-17250000Y47750000D03*
D38*
X-12000000Y33750000D03*
D38*
X15500000Y53500000D03*
D37*
X12500000Y35000000D03*
D38*
X4250000Y19250000D03*
D39*
X14250000Y35750000D03*
D41*
X8750000Y19250000D03*
D38*
X12500000Y25750000D03*
D38*
X-2250000Y25750000D03*
D37*
X13500000Y63000000D03*
D37*
X15500000Y50750000D03*
D38*
X17500000Y23250000D03*
D37*
X-4250000Y28500000D03*
D43*
X-9875000Y24375000D03*
D38*
X-10500000Y11000000D03*
D37*
X-19500000Y55250000D03*
D37*
X-14250000Y62750000D03*
D37*
X-7709818Y40922320D03*
D40*
X-8125000Y24375000D03*
D37*
X6500000Y55500000D03*
D37*
X-13500000Y50000000D03*
D37*
X-2250000Y70750000D03*
D41*
X-13500010Y18000000D03*
D42*
X8000000Y16500000D03*
D37*
X-10500000Y62750000D03*
D39*
X15000000Y23250000D03*
D38*
X-11000000Y15500000D03*
D38*
X-7000000Y18000000D03*
D43*
X-4625000Y26125000D03*
D38*
X-2000000Y55250000D03*
D38*
X13000000Y48250000D03*
D37*
X9500000Y18500000D03*
D38*
X11250000Y28250000D03*
D38*
X5058168Y54191832D03*
D38*
X17500000Y22000000D03*
D37*
X-14500000Y38000000D03*
D38*
X-12100000Y60250000D03*
D37*
X-6500000Y13500000D03*
D37*
X-6250000Y48500000D03*
D39*
X3500000Y65750000D03*
D38*
X13250000Y15500000D03*
D39*
X-4000000Y40000000D03*
D39*
X-1487346Y54737346D03*
D38*
X16250000Y15500000D03*
D40*
X-4625000Y22625000D03*
D39*
X-1500000Y8750000D03*
D37*
X3500000Y36250000D03*
D37*
X3750000Y30250000D03*
D38*
X-7750000Y42250000D03*
D39*
X-4250000Y62250000D03*
D37*
X4500000Y12750000D03*
D38*
X17500000Y20750000D03*
D39*
X-3750000Y2750000D03*
D38*
X11000000Y26250000D03*
D43*
X7000000Y41500000D03*
D37*
X-11250000Y10750000D03*
D40*
X8250000Y41500000D03*
D40*
X-6375000Y22625000D03*
D39*
X-250000Y50750000D03*
D38*
X-2750000Y36000000D03*
D41*
X5250000Y60250000D03*
D38*
X7750000Y12750000D03*
D37*
X-14250000Y24250000D03*
D41*
X-15000000Y25250000D03*
D38*
X12500000Y58250000D03*
D39*
X13750000Y25750000D03*
D41*
X-11250000Y9750000D03*
D39*
X-17750000Y30750000D03*
D39*
X-8000000Y15750000D03*
D40*
X-6375000Y26125000D03*
D38*
X-2250000Y23750000D03*
D39*
X15000000Y69250000D03*
D37*
X-3250000Y28500000D03*
D41*
X2000000Y65750000D03*
D39*
X-4925000Y31750000D03*
D41*
X13250000Y50750000D03*
D39*
X11750000Y12000000D03*
D37*
X16500000Y55750000D03*
D37*
X-15000000Y55750000D03*
D38*
X12250000Y44750000D03*
D38*
X-8500000Y33250000D03*
D37*
X7140563Y54925000D03*
D39*
X13250000Y53500000D03*
D38*
X-13250000Y22750000D03*
D46*
X5750000Y44000000D03*
D38*
X500000Y41750000D03*
D40*
X5750000Y41500000D03*
D38*
X5750000Y14500000D03*
D39*
X-18500000Y59500000D03*
D38*
X11485704Y18507148D03*
D38*
X-8500000Y17500000D03*
D47*
X-4625000Y20875000D03*
D39*
X13750000Y23250000D03*
D47*
X-4625000Y24375000D03*
D37*
X6262654Y38237346D03*
D37*
X17000000Y17250000D03*
D38*
X15000000Y24500000D03*
D37*
X20250000Y22000000D03*
D37*
X16000000Y18250000D03*
D39*
X-13500000Y26500000D03*
D41*
X11500000Y44250000D03*
D41*
X15000000Y20750000D03*
D38*
X-16750000Y52750000D03*
D38*
X-12500000Y23500000D03*
D41*
X-3237346Y55262654D03*
D37*
X-20750000Y18250000D03*
D38*
X20000000Y34000000D03*
D37*
X-14175000Y36500000D03*
D41*
X-11250000Y38250000D03*
D37*
X0Y10750000D03*
D38*
X12500000Y54500000D03*
D37*
X-4750000Y18500000D03*
D39*
X15500000Y64750000D03*
D39*
X-15000000Y50000000D03*
D37*
X4500000Y65750000D03*
D46*
X-8125000Y22625000D03*
D37*
X-8250000Y37250000D03*
D38*
X13750000Y27500000D03*
D38*
X-11500000Y54750000D03*
D41*
X1750000Y20000000D03*
D41*
X-12250000Y32000000D03*
D38*
X-15250000Y38250000D03*
D38*
X4250000Y28250000D03*
D38*
X-19750000Y62500000D03*
D38*
X-16000000Y18000000D03*
D39*
X16000000Y32750000D03*
D38*
X-4000000Y18250000D03*
D38*
X-23250000Y64000000D03*
D38*
X18750000Y41500000D03*
D38*
X-250000Y53250000D03*
D48*
X6500000Y24250000D03*
D37*
X-13500000Y11500000D03*
D39*
X-26750000Y62500000D03*
D38*
X-20250000Y33500000D03*
D38*
X-14500000Y35000000D03*
D37*
X6500000Y18500000D03*
D38*
X7750000Y32500000D03*
D38*
X-17250000Y48750000D03*
D37*
X-16750000Y11500000D03*
D37*
X3750000Y27250000D03*
D38*
X-247488Y43247488D03*
D40*
X8250000Y44000000D03*
D38*
X6750000Y28250000D03*
D38*
X-7000000Y44000000D03*
D37*
X18250000Y15500000D03*
D37*
X-9250000Y18000000D03*
D37*
X8000000Y10750000D03*
D37*
X-1500000Y10000000D03*
D37*
X-7709818Y39922320D03*
D38*
X13750000Y20750000D03*
D37*
X1750000Y63000000D03*
D39*
X-6250000Y18500000D03*
D41*
X-10250000Y17250000D03*
D39*
X12500000Y23250000D03*
D38*
X13250000Y62000000D03*
D39*
X-2512Y46247488D03*
D37*
X-8000000Y13500000D03*
D43*
X-9875000Y22625000D03*
D39*
X-18250000Y40000000D03*
D39*
X12000000Y30000000D03*
D39*
X13500000Y55500000D03*
D37*
X20750000Y26750000D03*
D41*
X-4750000Y39000000D03*
D37*
X-23250000Y65500000D03*
D37*
X-9250000Y9250000D03*
D39*
X13000000Y17750000D03*
D39*
X-12250000Y55500000D03*
D41*
X8000000Y21750000D03*
D37*
X17250000Y60000000D03*
D38*
X-20750000Y19500000D03*
D41*
X5000000Y38750000D03*
D38*
X21000000Y14250000D03*
D37*
X3997488Y32747488D03*
D37*
X-1250000Y17250000D03*
D37*
X15000000Y25750000D03*
D38*
X-16250000Y54250000D03*
D39*
X18000000Y19000000D03*
D37*
X-17250000Y45250000D03*
D41*
X17500000Y32750000D03*
D38*
X-2000000Y22250000D03*
D37*
X11000000Y58250000D03*
D39*
X4500000Y22500000D03*
D39*
X16250000Y30425000D03*
D39*
X14250000Y8250000D03*
D37*
X-14250000Y45750000D03*
D39*
X-250000Y40000000D03*
D37*
X8750000Y20750000D03*
D37*
X-27000000Y23500000D03*
D39*
X-11750000Y46500000D03*
D39*
X-8250000Y46500000D03*
D37*
X-2000000Y43250000D03*
D38*
X14500000Y56500000D03*
D37*
X-7750000Y59500000D03*
D39*
X2000000Y46000000D03*
D39*
X-17750000Y42000000D03*
D38*
X12500000Y22000000D03*
D38*
X22000000Y35750000D03*
D49*
X-8000000Y10250000D03*
D38*
X-20750000Y22000000D03*
D41*
X-6250000Y56000000D03*
D37*
X247488Y42752512D03*
D39*
X-250000Y39000000D03*
D37*
X21000000Y23000000D03*
D38*
X-6750000Y9250000D03*
D37*
X6500000Y48500000D03*
D37*
X-2250000Y65750000D03*
D37*
X-2750000Y48500000D03*
D39*
X-12500000Y21500000D03*
D38*
X14250000Y16750000D03*
D39*
X-22000000Y65750000D03*
D37*
X5250000Y69500000D03*
D38*
X1750000Y52000000D03*
D38*
X7332088Y56332088D03*
D38*
X1500000Y2750000D03*
D41*
X-1500000Y37500000D03*
D39*
X17500000Y25750000D03*
D41*
X19500000Y15500000D03*
D45*
X-9875000Y20875000D03*
D38*
X-13250000Y62750000D03*
D37*
X-16500000Y61500000D03*
D39*
X-22000000Y38000000D03*
D37*
X-10000000Y6500000D03*
D37*
X8750000Y46750000D03*
D41*
X11000000Y20000000D03*
D39*
X-250000Y16500000D03*
D37*
X13500000Y64000000D03*
D38*
X14250000Y12000000D03*
D38*
X-15250000Y8500000D03*
D38*
X-7709818Y38922320D03*
D39*
X14500000Y50750000D03*
D41*
X15000000Y22000000D03*
D38*
X-15250000Y46750000D03*
D39*
X-3750000Y54750000D03*
D39*
X-1500000Y3750000D03*
D37*
X-14500000Y47000000D03*
D38*
X-15250000Y34750000D03*
D39*
X5500000Y52750000D03*
D37*
X12250000Y45500000D03*
D37*
X-8750000Y11750000D03*
D40*
X-9875000Y26125000D03*
D39*
X-14250000Y52500000D03*
D38*
X-5250000Y7675000D03*
D41*
X-12000000Y27000000D03*
D39*
X-74980Y34000000D03*
D39*
X17250000Y41500000D03*
D39*
X11500000Y52750000D03*
D39*
X-10000000Y15500000D03*
D37*
X-18250000Y45250000D03*
D41*
X16500000Y14250000D03*
D37*
X20750000Y25750000D03*
D38*
X8000000Y65750000D03*
D41*
X16000000Y35750000D03*
D41*
X-15425000Y52250000D03*
D37*
X-6250000Y57000000D03*
D37*
X-3000000Y2750000D03*
D38*
X15500000Y18750000D03*
D38*
X-17250000Y40000000D03*
D39*
X8750000Y32750000D03*
D37*
X9250000Y8250000D03*
D38*
X-15987346Y50012654D03*
D38*
X12250000Y18500000D03*
D38*
X1750000Y50000000D03*
D37*
X-21250000Y46000000D03*
D38*
X12000000Y27250000D03*
D37*
X-10250000Y30500000D03*
D39*
X8500000Y18500000D03*
D50*
X7000000Y44000000D03*
D43*
X5750000Y42750000D03*
D38*
X4000000Y60250000D03*
D38*
X3750000Y2750000D03*
D37*
X-20750000Y20750000D03*
D37*
X14500000Y62000000D03*
D38*
X-9750000Y11000000D03*
D51*
X14750000Y19000000D03*
M02*
