%FSLAX46Y46*%
%MOMM*%
%AMPS56*
21,1,1.100000,0.900000,0.000000,0.000000,0.000000*
%
%ADD56PS56*%
%AMPS113*
21,1,1.100000,0.900000,0.000000,0.000000,90.000000*
%
%ADD113PS113*%
%AMPS95*
21,1,1.100000,0.900000,0.000000,0.000000,270.000000*
%
%ADD95PS95*%
%AMPS60*
1,1,1.500000,0.000000,0.000000*
%
%ADD60PS60*%
%AMPS26*
1,1,1.800000,0.000000,0.000000*
%
%ADD26PS26*%
%AMPS85*
1,1,1.800000,0.000000,0.000000*
%
%ADD85PS85*%
%AMPS27*
1,1,1.800000,0.000000,0.000000*
%
%ADD27PS27*%
%AMPS79*
1,1,1.800000,0.000000,0.000000*
%
%ADD79PS79*%
%AMPS62*
1,1,1.500000,0.000000,0.000000*
%
%ADD62PS62*%
%AMPS30*
1,1,1.800000,0.000000,0.000000*
%
%ADD30PS30*%
%AMPS61*
1,1,1.500000,0.000000,0.000000*
%
%ADD61PS61*%
%AMPS29*
1,1,1.800000,0.000000,0.000000*
%
%ADD29PS29*%
%AMPS86*
1,1,1.800000,0.000000,0.000000*
%
%ADD86PS86*%
%AMPS28*
1,1,1.800000,0.000000,0.000000*
%
%ADD28PS28*%
%AMPS78*
1,1,1.800000,0.000000,0.000000*
%
%ADD78PS78*%
%AMPS25*
1,1,1.800000,0.000000,0.000000*
%
%ADD25PS25*%
%AMPS65*
21,1,0.800000,1.100000,0.000000,0.000000,90.000000*
%
%ADD65PS65*%
%AMPS98*
21,1,0.800000,1.100000,0.000000,0.000000,180.000000*
%
%ADD98PS98*%
%AMPS111*
21,1,0.800000,1.100000,0.000000,0.000000,270.000000*
%
%ADD111PS111*%
%AMPS73*
21,1,0.900000,0.900000,0.000000,0.000000,0.000000*
%
%ADD73PS73*%
%AMPS31*
21,1,0.900000,0.900000,0.000000,0.000000,90.000000*
%
%ADD31PS31*%
%AMPS12*
21,1,0.900000,0.900000,0.000000,0.000000,180.000000*
%
%ADD12PS12*%
%AMPS57*
21,1,0.900000,0.900000,0.000000,0.000000,270.000000*
%
%ADD57PS57*%
%AMPS67*
21,1,0.550000,1.150000,0.000000,0.000000,0.000000*
%
%ADD67PS67*%
%AMPS66*
21,1,0.550000,1.150000,0.000000,0.000000,180.000000*
%
%ADD66PS66*%
%AMPS74*
21,1,1.100000,1.350000,0.000000,0.000000,0.000000*
%
%ADD74PS74*%
%AMPS75*
21,1,1.100000,1.350000,0.000000,0.000000,90.000000*
%
%ADD75PS75*%
%AMPS58*
21,1,1.100000,1.350000,0.000000,0.000000,180.000000*
%
%ADD58PS58*%
%AMPS64*
21,1,1.100000,1.350000,0.000000,0.000000,270.000000*
%
%ADD64PS64*%
%AMPS32*
21,1,0.700000,0.600000,0.000000,0.000000,0.000000*
%
%ADD32PS32*%
%AMPS14*
21,1,0.700000,0.600000,0.000000,0.000000,90.000000*
%
%ADD14PS14*%
%AMPS13*
21,1,0.700000,0.600000,0.000000,0.000000,180.000000*
%
%ADD13PS13*%
%AMPS15*
21,1,0.700000,0.600000,0.000000,0.000000,270.000000*
%
%ADD15PS15*%
%AMPS36*
21,1,0.800000,1.400000,0.000000,0.000000,0.000000*
%
%ADD36PS36*%
%AMPS87*
21,1,0.610000,0.500000,0.000000,0.000000,90.000000*
%
%ADD87PS87*%
%AMPS21*
21,1,0.610000,0.500000,0.000000,0.000000,180.000000*
%
%ADD21PS21*%
%AMPS38*
21,1,0.610000,0.500000,0.000000,0.000000,270.000000*
%
%ADD38PS38*%
%AMPS105*
21,1,1.000000,0.800000,0.000000,0.000000,180.000000*
%
%ADD105PS105*%
%AMPS54*
21,1,0.900000,0.850000,0.000000,0.000000,0.000000*
%
%ADD54PS54*%
%AMPS22*
21,1,0.900000,0.850000,0.000000,0.000000,180.000000*
%
%ADD22PS22*%
%AMPS97*
21,1,0.900000,0.850000,0.000000,0.000000,270.000000*
%
%ADD97PS97*%
%AMPS40*
21,1,1.300000,1.100000,0.000000,0.000000,0.000000*
%
%ADD40PS40*%
%AMPS84*
21,1,1.300000,1.100000,0.000000,0.000000,90.000000*
%
%ADD84PS84*%
%AMPS112*
21,1,1.300000,1.100000,0.000000,0.000000,180.000000*
%
%ADD112PS112*%
%AMPS103*
21,1,0.400000,0.800000,0.000000,0.000000,180.000000*
%
%ADD103PS103*%
%AMPS110*
21,1,0.700000,1.600000,0.000000,0.000000,0.000000*
%
%ADD110PS110*%
%AMPS93*
21,1,0.700000,1.600000,0.000000,0.000000,90.000000*
%
%ADD93PS93*%
%AMPS109*
21,1,0.700000,1.600000,0.000000,0.000000,180.000000*
%
%ADD109PS109*%
%AMPS94*
21,1,0.700000,1.600000,0.000000,0.000000,270.000000*
%
%ADD94PS94*%
%AMPS53*
21,1,0.500000,0.700000,0.000000,0.000000,0.000000*
%
%ADD53PS53*%
%AMPS39*
21,1,0.500000,0.700000,0.000000,0.000000,90.000000*
%
%ADD39PS39*%
%AMPS41*
21,1,0.500000,0.700000,0.000000,0.000000,180.000000*
%
%ADD41PS41*%
%AMPS37*
21,1,0.500000,0.700000,0.000000,0.000000,270.000000*
%
%ADD37PS37*%
%AMPS43*
21,1,0.300000,0.800000,0.000000,0.000000,0.000000*
%
%ADD43PS43*%
%AMPS44*
21,1,0.300000,0.800000,0.000000,0.000000,90.000000*
%
%ADD44PS44*%
%AMPS42*
21,1,0.300000,0.800000,0.000000,0.000000,180.000000*
%
%ADD42PS42*%
%AMPS45*
21,1,0.300000,0.800000,0.000000,0.000000,270.000000*
%
%ADD45PS45*%
%AMPS96*
21,1,0.600000,1.000000,0.000000,0.000000,0.000000*
%
%ADD96PS96*%
%AMPS99*
21,1,0.600000,1.000000,0.000000,0.000000,90.000000*
%
%ADD99PS99*%
%AMPS55*
21,1,0.600000,1.000000,0.000000,0.000000,180.000000*
%
%ADD55PS55*%
%AMPS72*
21,1,0.930000,0.730000,0.000000,0.000000,90.000000*
%
%ADD72PS72*%
%AMPS71*
21,1,0.930000,0.730000,0.000000,0.000000,270.000000*
%
%ADD71PS71*%
%AMPS33*
21,1,1.100000,1.700000,0.000000,0.000000,90.000000*
%
%ADD33PS33*%
%AMPS52*
21,1,1.850000,1.850000,0.000000,0.000000,0.000000*
%
%ADD52PS52*%
%AMPS16*
21,1,3.800000,3.800000,0.000000,0.000000,0.000000*
%
%ADD16PS16*%
%AMPS120*
1,1,0.400000,0.000000,0.000000*
%
%ADD120PS120*%
%AMPS127*
1,1,0.700000,0.000000,0.000000*
%
%ADD127PS127*%
%AMPS122*
1,1,0.500000,0.000000,0.000000*
%
%ADD122PS122*%
%AMPS124*
1,1,0.600000,0.000000,0.000000*
%
%ADD124PS124*%
%AMPS125*
1,1,0.600000,0.000000,0.000000*
%
%ADD125PS125*%
%AMPS126*
1,1,0.400000,0.000000,0.000000*
%
%ADD126PS126*%
%AMPS128*
1,1,0.600000,0.000000,0.000000*
%
%ADD128PS128*%
%AMPS121*
1,1,0.600000,0.000000,0.000000*
%
%ADD121PS121*%
%AMPS119*
1,1,0.600000,0.000000,0.000000*
%
%ADD119PS119*%
%AMPS123*
1,1,0.600000,0.000000,0.000000*
%
%ADD123PS123*%
%AMPS129*
1,1,0.700000,0.000000,0.000000*
%
%ADD129PS129*%
%AMPS104*
4,1,4,
-0.600000,0.750000,
0.600000,0.750000,
0.600000,-1.750000,
-0.600000,-1.750000,
-0.600000,0.750000,
0
*
1,1,1.200000,0.000000,-1.750000*
1,1,1.200000,0.000000,0.750000*
%
%ADD104PS104*%
%AMPS106*
4,1,4,
-0.600000,0.750000,
0.600000,0.750000,
0.600000,-1.750000,
-0.600000,-1.750000,
-0.600000,0.750000,
0
*
1,1,1.200000,0.000000,-1.750000*
1,1,1.200000,0.000000,0.750000*
%
%ADD106PS106*%
%AMPS108*
21,1,1.000000,1.200000,0.000000,0.000000,270.000000*
1,1,1.200000,0.000000,-0.500000*
1,1,1.200000,0.000000,0.500000*
%
%ADD108PS108*%
%AMPS107*
21,1,1.000000,1.200000,0.000000,0.000000,270.000000*
1,1,1.200000,0.000000,-0.500000*
1,1,1.200000,0.000000,0.500000*
%
%ADD107PS107*%
%AMPS59*
21,1,1.640000,1.600000,0.000000,0.000000,270.000000*
1,1,1.600000,0.000000,-0.820000*
1,1,1.600000,0.000000,0.820000*
%
%ADD59PS59*%
%AMPS63*
21,1,1.640000,1.600000,0.000000,0.000000,270.000000*
1,1,1.600000,0.000000,-0.820000*
1,1,1.600000,0.000000,0.820000*
%
%ADD63PS63*%
%AMPS81*
1,1,0.200000,-0.175000,-0.075000*
1,1,0.200000,0.175000,0.075000*
1,1,0.200000,-0.175000,0.075000*
1,1,0.200000,0.175000,-0.075000*
21,1,0.350000,0.350000,0.000000,0.000000,90.000000*
21,1,0.150000,0.550000,0.000000,0.000000,90.000000*
%
%ADD81PS81*%
%AMPS80*
1,1,0.200000,0.175000,0.075000*
1,1,0.200000,-0.175000,-0.075000*
1,1,0.200000,0.175000,-0.075000*
1,1,0.200000,-0.175000,0.075000*
21,1,0.350000,0.350000,0.000000,0.000000,270.000000*
21,1,0.150000,0.550000,0.000000,0.000000,270.000000*
%
%ADD80PS80*%
%AMPS118*
1,1,0.500000,2.600000,2.600000*
1,1,0.500000,-2.600000,-2.600000*
1,1,0.500000,2.600000,-2.600000*
1,1,0.500000,-2.600000,2.600000*
21,1,5.700000,5.200000,0.000000,0.000000,270.000000*
21,1,5.200000,5.700000,0.000000,0.000000,270.000000*
%
%ADD118PS118*%
%AMPS46*
1,1,0.200000,-0.100000,0.275000*
1,1,0.200000,0.100000,-0.275000*
1,1,0.200000,0.100000,0.275000*
1,1,0.200000,-0.100000,-0.275000*
21,1,0.400000,0.550000,0.000000,0.000000,0.000000*
21,1,0.200000,0.750000,0.000000,0.000000,0.000000*
%
%ADD46PS46*%
%AMPS47*
1,1,0.200000,0.100000,-0.275000*
1,1,0.200000,-0.100000,0.275000*
1,1,0.200000,-0.100000,-0.275000*
1,1,0.200000,0.100000,0.275000*
21,1,0.400000,0.550000,0.000000,0.000000,180.000000*
21,1,0.200000,0.750000,0.000000,0.000000,180.000000*
%
%ADD47PS47*%
%AMPS115*
1,1,0.200000,-0.100000,0.225000*
1,1,0.200000,0.100000,-0.225000*
1,1,0.200000,0.100000,0.225000*
1,1,0.200000,-0.100000,-0.225000*
21,1,0.400000,0.450000,0.000000,0.000000,0.000000*
21,1,0.200000,0.650000,0.000000,0.000000,0.000000*
%
%ADD115PS115*%
%AMPS116*
1,1,0.200000,-0.225000,-0.100000*
1,1,0.200000,0.225000,0.100000*
1,1,0.200000,-0.225000,0.100000*
1,1,0.200000,0.225000,-0.100000*
21,1,0.400000,0.450000,0.000000,0.000000,90.000000*
21,1,0.200000,0.650000,0.000000,0.000000,90.000000*
%
%ADD116PS116*%
%AMPS117*
1,1,0.200000,0.100000,-0.225000*
1,1,0.200000,-0.100000,0.225000*
1,1,0.200000,-0.100000,-0.225000*
1,1,0.200000,0.100000,0.225000*
21,1,0.400000,0.450000,0.000000,0.000000,180.000000*
21,1,0.200000,0.650000,0.000000,0.000000,180.000000*
%
%ADD117PS117*%
%AMPS114*
1,1,0.200000,0.225000,0.100000*
1,1,0.200000,-0.225000,-0.100000*
1,1,0.200000,0.225000,-0.100000*
1,1,0.200000,-0.225000,0.100000*
21,1,0.400000,0.450000,0.000000,0.000000,270.000000*
21,1,0.200000,0.650000,0.000000,0.000000,270.000000*
%
%ADD114PS114*%
%AMPS20*
1,1,0.200000,-0.070000,0.475000*
1,1,0.200000,0.070000,-0.475000*
1,1,0.200000,0.070000,0.475000*
1,1,0.200000,-0.070000,-0.475000*
21,1,0.340000,0.950000,0.000000,0.000000,0.000000*
21,1,0.140000,1.150000,0.000000,0.000000,0.000000*
%
%ADD20PS20*%
%AMPS18*
1,1,0.200000,-0.475000,-0.070000*
1,1,0.200000,0.475000,0.070000*
1,1,0.200000,-0.475000,0.070000*
1,1,0.200000,0.475000,-0.070000*
21,1,0.340000,0.950000,0.000000,0.000000,90.000000*
21,1,0.140000,1.150000,0.000000,0.000000,90.000000*
%
%ADD18PS18*%
%AMPS17*
1,1,0.200000,0.070000,-0.475000*
1,1,0.200000,-0.070000,0.475000*
1,1,0.200000,-0.070000,-0.475000*
1,1,0.200000,0.070000,0.475000*
21,1,0.340000,0.950000,0.000000,0.000000,180.000000*
21,1,0.140000,1.150000,0.000000,0.000000,180.000000*
%
%ADD17PS17*%
%AMPS19*
1,1,0.200000,0.475000,0.070000*
1,1,0.200000,-0.475000,-0.070000*
1,1,0.200000,0.475000,-0.070000*
1,1,0.200000,-0.475000,0.070000*
21,1,0.340000,0.950000,0.000000,0.000000,270.000000*
21,1,0.140000,1.150000,0.000000,0.000000,270.000000*
%
%ADD19PS19*%
%AMPS69*
1,1,0.300000,-0.490000,0.825000*
1,1,0.300000,0.490000,-0.825000*
1,1,0.300000,0.490000,0.825000*
1,1,0.300000,-0.490000,-0.825000*
21,1,1.280000,1.650000,0.000000,0.000000,0.000000*
21,1,0.980000,1.950000,0.000000,0.000000,0.000000*
%
%ADD69PS69*%
%AMPS83*
1,1,0.300000,0.650000,-1.150000*
1,1,0.300000,-0.650000,1.150000*
1,1,0.300000,-0.650000,-1.150000*
1,1,0.300000,0.650000,1.150000*
21,1,1.600000,2.300000,0.000000,0.000000,180.000000*
21,1,1.300000,2.600000,0.000000,0.000000,180.000000*
%
%ADD83PS83*%
%AMPS34*
1,1,0.200000,-0.100000,0.285000*
1,1,0.200000,0.100000,-0.285000*
1,1,0.200000,0.100000,0.285000*
1,1,0.200000,-0.100000,-0.285000*
21,1,0.400000,0.570000,0.000000,0.000000,0.000000*
21,1,0.200000,0.770000,0.000000,0.000000,0.000000*
%
%ADD34PS34*%
%AMPS35*
1,1,0.200000,0.100000,-0.285000*
1,1,0.200000,-0.100000,0.285000*
1,1,0.200000,-0.100000,-0.285000*
1,1,0.200000,0.100000,0.285000*
21,1,0.400000,0.570000,0.000000,0.000000,180.000000*
21,1,0.200000,0.770000,0.000000,0.000000,180.000000*
%
%ADD35PS35*%
%AMPS100*
1,1,0.300000,-1.300000,-0.300000*
1,1,0.300000,1.300000,0.300000*
1,1,0.300000,-1.300000,0.300000*
1,1,0.300000,1.300000,-0.300000*
21,1,0.900000,2.600000,0.000000,0.000000,90.000000*
21,1,0.600000,2.900000,0.000000,0.000000,90.000000*
%
%ADD100PS100*%
%AMPS70*
1,1,0.300000,-0.050000,0.825000*
1,1,0.300000,0.050000,-0.825000*
1,1,0.300000,0.050000,0.825000*
1,1,0.300000,-0.050000,-0.825000*
21,1,0.400000,1.650000,0.000000,0.000000,0.000000*
21,1,0.100000,1.950000,0.000000,0.000000,0.000000*
%
%ADD70PS70*%
%AMPS82*
1,1,0.300000,-0.150000,-0.275000*
1,1,0.300000,0.150000,0.275000*
1,1,0.300000,-0.150000,0.275000*
1,1,0.300000,0.150000,-0.275000*
21,1,0.850000,0.300000,0.000000,0.000000,90.000000*
21,1,0.550000,0.600000,0.000000,0.000000,90.000000*
%
%ADD82PS82*%
%AMPS101*
1,1,0.300000,-1.600000,0.550000*
1,1,0.300000,1.600000,-0.550000*
1,1,0.300000,1.600000,0.550000*
1,1,0.300000,-1.600000,-0.550000*
21,1,3.500000,1.100000,0.000000,0.000000,0.000000*
21,1,3.200000,1.400000,0.000000,0.000000,0.000000*
%
%ADD101PS101*%
%AMPS102*
1,1,0.300000,1.600000,-0.550000*
1,1,0.300000,-1.600000,0.550000*
1,1,0.300000,-1.600000,-0.550000*
1,1,0.300000,1.600000,0.550000*
21,1,3.500000,1.100000,0.000000,0.000000,180.000000*
21,1,3.200000,1.400000,0.000000,0.000000,180.000000*
%
%ADD102PS102*%
%AMPS88*
1,1,0.200000,-0.070000,0.375000*
1,1,0.200000,0.070000,-0.375000*
1,1,0.200000,0.070000,0.375000*
1,1,0.200000,-0.070000,-0.375000*
21,1,0.340000,0.750000,0.000000,0.000000,0.000000*
21,1,0.140000,0.950000,0.000000,0.000000,0.000000*
%
%ADD88PS88*%
%AMPS89*
1,1,0.200000,-0.375000,-0.070000*
1,1,0.200000,0.375000,0.070000*
1,1,0.200000,-0.375000,0.070000*
1,1,0.200000,0.375000,-0.070000*
21,1,0.340000,0.750000,0.000000,0.000000,90.000000*
21,1,0.140000,0.950000,0.000000,0.000000,90.000000*
%
%ADD89PS89*%
%AMPS90*
1,1,0.200000,0.070000,-0.375000*
1,1,0.200000,-0.070000,0.375000*
1,1,0.200000,-0.070000,-0.375000*
1,1,0.200000,0.070000,0.375000*
21,1,0.340000,0.750000,0.000000,0.000000,180.000000*
21,1,0.140000,0.950000,0.000000,0.000000,180.000000*
%
%ADD90PS90*%
%AMPS91*
1,1,0.200000,0.375000,0.070000*
1,1,0.200000,-0.375000,-0.070000*
1,1,0.200000,0.375000,-0.070000*
1,1,0.200000,-0.375000,0.070000*
21,1,0.340000,0.750000,0.000000,0.000000,270.000000*
21,1,0.140000,0.950000,0.000000,0.000000,270.000000*
%
%ADD91PS91*%
%AMPS23*
1,1,0.200000,-0.450000,-0.162500*
1,1,0.200000,0.450000,0.162500*
1,1,0.200000,-0.450000,0.162500*
1,1,0.200000,0.450000,-0.162500*
21,1,0.525000,0.900000,0.000000,0.000000,90.000000*
21,1,0.325000,1.100000,0.000000,0.000000,90.000000*
%
%ADD23PS23*%
%AMPS24*
1,1,0.200000,0.450000,0.162500*
1,1,0.200000,-0.450000,-0.162500*
1,1,0.200000,0.450000,-0.162500*
1,1,0.200000,-0.450000,0.162500*
21,1,0.525000,0.900000,0.000000,0.000000,270.000000*
21,1,0.325000,1.100000,0.000000,0.000000,270.000000*
%
%ADD24PS24*%
%AMPS68*
1,1,0.300000,-0.050000,0.525000*
1,1,0.300000,0.050000,-0.525000*
1,1,0.300000,0.050000,0.525000*
1,1,0.300000,-0.050000,-0.525000*
21,1,0.400000,1.050000,0.000000,0.000000,0.000000*
21,1,0.100000,1.350000,0.000000,0.000000,0.000000*
%
%ADD68PS68*%
%AMPS76*
1,1,0.300000,-0.350000,-0.100000*
1,1,0.300000,0.350000,0.100000*
1,1,0.300000,-0.350000,0.100000*
1,1,0.300000,0.350000,-0.100000*
21,1,0.500000,0.700000,0.000000,0.000000,90.000000*
21,1,0.200000,1.000000,0.000000,0.000000,90.000000*
%
%ADD76PS76*%
%AMPS77*
1,1,0.300000,0.350000,0.100000*
1,1,0.300000,-0.350000,-0.100000*
1,1,0.300000,0.350000,-0.100000*
1,1,0.300000,-0.350000,0.100000*
21,1,0.500000,0.700000,0.000000,0.000000,270.000000*
21,1,0.200000,1.000000,0.000000,0.000000,270.000000*
%
%ADD77PS77*%
%AMPS10*
1,1,6.200000,0.000000,0.000000*
%
%ADD10PS10*%
%AMPS11*
1,1,6.200000,0.000000,0.000000*
%
%ADD11PS11*%
%AMPS51*
1,1,0.400000,0.000000,0.250000*
4,1,4,
-0.200000,-0.450000,
-0.200000,0.250000,
0.200000,0.250000,
0.200000,-0.450000,
-0.200000,-0.450000,
0
*
%
%ADD51PS51*%
%AMPS50*
1,1,0.400000,-0.250000,0.000000*
4,1,4,
0.450000,-0.200000,
-0.250000,-0.200000,
-0.250000,0.200000,
0.450000,0.200000,
0.450000,-0.200000,
0
*
%
%ADD50PS50*%
%AMPS49*
1,1,0.400000,0.000000,-0.250000*
4,1,4,
0.200000,0.450000,
0.200000,-0.250000,
-0.200000,-0.250000,
-0.200000,0.450000,
0.200000,0.450000,
0
*
%
%ADD49PS49*%
%AMPS48*
1,1,0.400000,0.250000,0.000000*
4,1,4,
-0.450000,0.200000,
0.250000,0.200000,
0.250000,-0.200000,
-0.450000,-0.200000,
-0.450000,0.200000,
0
*
%
%ADD48PS48*%
%AMPS92*
21,1,6.000000,6.000000,0.000000,0.000000,270.000000*
%
%ADD92PS92*%
G01*
%LPD*%
G36*
X12000000Y36500000D02*
X12000000Y38000000D01*
X12500000Y38000000D01*
X12500000Y36500000D01*
X12000000Y36500000D01*
D02*
G37*
%LPD*%
G36*
X11750000Y68250000D02*
X11750000Y69750000D01*
X12250000Y69750000D01*
X12250000Y68250000D01*
X11750000Y68250000D01*
D02*
G37*
%LPD*%
G36*
X8500000Y33500000D02*
X8500000Y35000000D01*
X9000000Y35000000D01*
X9000000Y33500000D01*
X8500000Y33500000D01*
D02*
G37*
%LPD*%
G36*
X15750000Y33500000D02*
X15750000Y35000000D01*
X16250000Y35000000D01*
X16250000Y33500000D01*
X15750000Y33500000D01*
D02*
G37*
%LPD*%
G36*
X17250000Y33500000D02*
X17250000Y35000000D01*
X17750000Y35000000D01*
X17750000Y33500000D01*
X17250000Y33500000D01*
D02*
G37*
%LPD*%
G36*
X10000000Y33500000D02*
X10000000Y35000000D01*
X10500000Y35000000D01*
X10500000Y33500000D01*
X10000000Y33500000D01*
D02*
G37*
%LPD*%
G36*
X-3750000Y10000000D02*
X-2250000Y10000000D01*
X-2250000Y9500000D01*
X-3750000Y9500000D01*
X-3750000Y10000000D01*
D02*
G37*
%LPD*%
G36*
X-2250000Y8000000D02*
X-3750000Y8000000D01*
X-3750000Y8500000D01*
X-2250000Y8500000D01*
X-2250000Y8000000D01*
D02*
G37*
G01*
%LPD*%
G75*
D10*
X-25000000Y70000000D03*
D11*
X-25000000Y10000000D03*
D11*
X20000000Y10000000D03*
D10*
X20000000Y70000000D03*
D12*
X17300000Y42500000D03*
D12*
X15700000Y42500000D03*
D13*
X3700000Y16750000D03*
D13*
X4800000Y16750000D03*
D14*
X-18500000Y42050000D03*
D14*
X-18500000Y40950000D03*
D15*
X-18500000Y30700000D03*
D15*
X-18500000Y31800000D03*
D16*
X7000000Y42750000D03*
D17*
X9000000Y45580000D03*
D18*
X9830000Y43750000D03*
D18*
X9830000Y44250000D03*
D19*
X4170000Y43250000D03*
D17*
X8500000Y45580000D03*
D19*
X4170000Y41250000D03*
D18*
X9830000Y40750000D03*
D19*
X4170000Y42750000D03*
D17*
X7500000Y45580000D03*
D19*
X4170000Y40750000D03*
D20*
X8500000Y39920000D03*
D17*
X6500000Y45580000D03*
D17*
X7000000Y45580000D03*
D18*
X9830000Y43250000D03*
D19*
X4170000Y42250000D03*
D20*
X5000000Y39920000D03*
D17*
X6000000Y45580000D03*
D17*
X5000000Y45580000D03*
D19*
X4170000Y43750000D03*
D20*
X9000000Y39920000D03*
D17*
X5500000Y45580000D03*
D19*
X4170000Y44750000D03*
D18*
X9830000Y41750000D03*
D18*
X9830000Y42750000D03*
D20*
X6500000Y39920000D03*
D17*
X8000000Y45580000D03*
D20*
X7500000Y39920000D03*
D19*
X4170000Y41750000D03*
D20*
X7000000Y39920000D03*
D18*
X9830000Y42250000D03*
D18*
X9830000Y41250000D03*
D18*
X9830000Y44750000D03*
D19*
X4170000Y44250000D03*
D20*
X6000000Y39920000D03*
D20*
X5500000Y39920000D03*
D20*
X8000000Y39920000D03*
D14*
X-15250000Y7800000D03*
D14*
X-15250000Y6700000D03*
D21*
X-18350000Y60500000D03*
D21*
X-18350000Y61500000D03*
D21*
X-19650000Y61000000D03*
D22*
X3750000Y15500000D03*
D22*
X5250000Y15500000D03*
D12*
X-24200000Y62500000D03*
D12*
X-25800000Y62500000D03*
D23*
X-16850000Y53850000D03*
D24*
X-18650000Y54500000D03*
D23*
X-16850000Y55150000D03*
D24*
X-18650000Y55150000D03*
D24*
X-18650000Y53850000D03*
D14*
X10250000Y21050000D03*
D14*
X10250000Y19950000D03*
D25*
X-23730000Y51890000D03*
D26*
X-26270000Y46810000D03*
D27*
X-23730000Y34110000D03*
D25*
X-23730000Y44270000D03*
D25*
X-23730000Y31570000D03*
D28*
X-23730000Y41730000D03*
D29*
X-26270000Y34110000D03*
D27*
X-26270000Y54430000D03*
D28*
X-23730000Y54430000D03*
D26*
X-26270000Y49350000D03*
D26*
X-23730000Y39190000D03*
D30*
X-26270000Y44270000D03*
D26*
X-26270000Y31570000D03*
D28*
X-26270000Y39190000D03*
D29*
X-23730000Y46810000D03*
D25*
X-26270000Y41730000D03*
D28*
X-23730000Y36650000D03*
D28*
X-26270000Y36650000D03*
D25*
X-26270000Y51890000D03*
D27*
X-23730000Y49350000D03*
D31*
X12000000Y72200000D03*
D31*
X12000000Y73800000D03*
D32*
X11800000Y29250000D03*
D32*
X10700000Y29250000D03*
D33*
X-2250000Y66750000D03*
D33*
X-2250000Y69750000D03*
D34*
X-14500000Y53510000D03*
D35*
X-15000000Y54990000D03*
D34*
X-15000000Y53510000D03*
D34*
X-15500000Y53510000D03*
D35*
X-14500000Y54990000D03*
D35*
X-15500000Y54990000D03*
D36*
X1800000Y22250000D03*
D36*
X3700000Y22250000D03*
D37*
X19500000Y16950000D03*
D37*
X19500000Y16050000D03*
D13*
X13200000Y35000000D03*
D13*
X14300000Y35000000D03*
D13*
X2950000Y47000000D03*
D13*
X4050000Y47000000D03*
D37*
X5250000Y59450000D03*
D37*
X5250000Y58550000D03*
D15*
X-18500000Y43200000D03*
D15*
X-18500000Y44300000D03*
D38*
X13000000Y12900000D03*
D38*
X12000000Y12900000D03*
D38*
X12500000Y11600000D03*
D39*
X10000000Y12050000D03*
D39*
X10000000Y12950000D03*
D40*
X19350000Y29899998D03*
D40*
X17650000Y29899998D03*
D40*
X17650000Y28599998D03*
D40*
X19350000Y28599998D03*
D14*
X9500000Y48050000D03*
D14*
X9500000Y46950000D03*
D41*
X-50000Y8750000D03*
D41*
X-950000Y8750000D03*
D32*
X-2700000Y35250000D03*
D32*
X-3800000Y35250000D03*
D34*
X-500000Y58510000D03*
D35*
X-1000000Y59990000D03*
D34*
X-1000000Y58510000D03*
D34*
X-1500000Y58510000D03*
D35*
X-500000Y59990000D03*
D35*
X-1500000Y59990000D03*
D13*
X13200000Y60000000D03*
D13*
X14300000Y60000000D03*
D39*
X5500000Y9300000D03*
D39*
X5500000Y10200000D03*
D29*
X21270000Y60080000D03*
D26*
X18730000Y55000000D03*
D25*
X21270000Y52460000D03*
D29*
X21270000Y49920000D03*
D29*
X18730000Y62620000D03*
D25*
X21270000Y62620000D03*
D29*
X18730000Y57540000D03*
D28*
X21270000Y47380000D03*
D28*
X18730000Y52460000D03*
D25*
X18730000Y47380000D03*
D26*
X21270000Y55000000D03*
D26*
X18730000Y49920000D03*
D28*
X18730000Y60080000D03*
D29*
X21270000Y57540000D03*
D37*
X9250000Y38200000D03*
D37*
X9250000Y37300000D03*
D37*
X13500000Y69950000D03*
D37*
X13500000Y69050000D03*
D42*
X-10700000Y13550000D03*
D43*
X-11100000Y13550000D03*
D42*
X-9900000Y14450000D03*
D42*
X-9900000Y13550000D03*
D42*
X-11100000Y14450000D03*
D42*
X-10700000Y14450000D03*
D42*
X-10300000Y13550000D03*
D42*
X-10300000Y14450000D03*
D32*
X-3200000Y29250000D03*
D32*
X-4300000Y29250000D03*
D32*
X-13700000Y51750000D03*
D32*
X-14800000Y51750000D03*
D44*
X14550000Y55200000D03*
D45*
X14550000Y55600000D03*
D44*
X15450000Y54400000D03*
D44*
X14550000Y54400000D03*
D44*
X15450000Y55600000D03*
D44*
X15450000Y55200000D03*
D44*
X14550000Y54800000D03*
D44*
X15450000Y54800000D03*
D41*
X21950000Y34750000D03*
D41*
X21050000Y34750000D03*
D46*
X-5750000Y52675000D03*
D46*
X-4750000Y52675000D03*
D47*
X-5250000Y53825000D03*
D47*
X-4750000Y53825000D03*
D47*
X-6250000Y53825000D03*
D46*
X-6250000Y52675000D03*
D47*
X-5750000Y53825000D03*
D46*
X-5250000Y52675000D03*
D48*
X7000000Y15750000D03*
D48*
X7000000Y15250000D03*
D49*
X9250000Y17500000D03*
D50*
X10000000Y15750000D03*
D51*
X9250000Y14500000D03*
D50*
X10000000Y15250000D03*
D49*
X8250000Y17500000D03*
D48*
X7000000Y16750000D03*
D51*
X8250000Y14500000D03*
D51*
X8750000Y14500000D03*
D50*
X10000000Y16750000D03*
D49*
X7750000Y17500000D03*
D48*
X7000000Y16250000D03*
D49*
X8750000Y17500000D03*
D51*
X7750000Y14500000D03*
D50*
X10000000Y16250000D03*
D52*
X8500000Y16000000D03*
D53*
X-6450000Y14750000D03*
D53*
X-5550000Y14750000D03*
D13*
X-8550000Y9250000D03*
D13*
X-7450000Y9250000D03*
D54*
X3000000Y4000000D03*
D54*
X1500000Y4000000D03*
D55*
X3500000Y64750000D03*
D55*
X2000000Y64750000D03*
D56*
X12250000Y37750000D03*
D56*
X12250000Y36750000D03*
D57*
X15500000Y8050000D03*
D57*
X15500000Y6450000D03*
D28*
X-17000000Y16270000D03*
D25*
X-17000000Y13730000D03*
D58*
X-13700056Y57250008D03*
D58*
X-15700056Y57250008D03*
D44*
X14550000Y63700000D03*
D45*
X14550000Y64100000D03*
D44*
X15450000Y62900000D03*
D44*
X14550000Y62900000D03*
D44*
X15450000Y64100000D03*
D44*
X15450000Y63700000D03*
D44*
X14550000Y63300000D03*
D44*
X15450000Y63300000D03*
D59*
X-18570000Y66960000D03*
D60*
X-13000000Y64250000D03*
D61*
X-11000000Y64250000D03*
D61*
X-15500000Y64250000D03*
D62*
X-8500000Y64250000D03*
D63*
X-5430000Y66960000D03*
D64*
X-20250008Y14999944D03*
D64*
X-20250008Y12999944D03*
D56*
X12000000Y69500000D03*
D56*
X12000000Y68500000D03*
D53*
X-6450000Y12250000D03*
D53*
X-5550000Y12250000D03*
D14*
X-1500000Y25050000D03*
D14*
X-1500000Y23950000D03*
D14*
X-8750000Y15800000D03*
D14*
X-8750000Y14700000D03*
D23*
X-7100000Y6600000D03*
D24*
X-8900000Y7250000D03*
D23*
X-7100000Y7900000D03*
D24*
X-8900000Y7900000D03*
D24*
X-8900000Y6600000D03*
D32*
X16550000Y61250000D03*
D32*
X15450000Y61250000D03*
D56*
X8750000Y34750000D03*
D56*
X8750000Y33750000D03*
D65*
X-8759818Y39922320D03*
D65*
X-11159818Y40872320D03*
D65*
X-8759818Y38972320D03*
D65*
X-11159818Y38972320D03*
D65*
X-8759818Y40872320D03*
D66*
X-1725000Y50525000D03*
D66*
X-5625000Y50525000D03*
D67*
X-4325000Y44975000D03*
D67*
X-4975000Y44975000D03*
D66*
X-3675000Y50525000D03*
D67*
X-3675000Y44975000D03*
D67*
X-5625000Y44975000D03*
D66*
X-2375000Y50525000D03*
D66*
X-4975000Y50525000D03*
D67*
X-2375000Y44975000D03*
D66*
X-6275000Y50525000D03*
D67*
X-1725000Y44975000D03*
D67*
X-6275000Y44975000D03*
D66*
X-3025000Y50525000D03*
D66*
X-4325000Y50525000D03*
D67*
X-3025000Y44975000D03*
D15*
X16250000Y28699998D03*
D15*
X16250000Y29799998D03*
D32*
X13050000Y42500000D03*
D32*
X11950000Y42500000D03*
D68*
X-2250000Y1125000D03*
D68*
X-750000Y1125000D03*
D68*
X2250000Y1125000D03*
D68*
X250000Y1125000D03*
D69*
X-3640000Y1125000D03*
D70*
X2750000Y1125000D03*
D68*
X-250000Y1125000D03*
D68*
X-1250000Y1125000D03*
D69*
X3640000Y1125000D03*
D68*
X1250000Y1125000D03*
D70*
X-2750000Y1125000D03*
D68*
X-1750000Y1125000D03*
D68*
X750000Y1125000D03*
D68*
X1750000Y1125000D03*
D13*
X13200000Y61250000D03*
D13*
X14300000Y61250000D03*
D71*
X640000Y58500000D03*
D72*
X2860000Y58500000D03*
D13*
X2700000Y48500000D03*
D13*
X3800000Y48500000D03*
D41*
X19950000Y14250000D03*
D41*
X19050000Y14250000D03*
D56*
X16000000Y34750000D03*
D56*
X16000000Y33750000D03*
D55*
X3500000Y24750000D03*
D55*
X2000000Y24750000D03*
D73*
X-25800000Y64000000D03*
D73*
X-24200000Y64000000D03*
D22*
X3750000Y18000000D03*
D22*
X5250000Y18000000D03*
D15*
X-17000000Y30700000D03*
D15*
X-17000000Y31800000D03*
D58*
X-9250056Y32000008D03*
D58*
X-11250056Y32000008D03*
D15*
X20750000Y28699998D03*
D15*
X20750000Y29799998D03*
D53*
X-22950000Y62500000D03*
D53*
X-22050000Y62500000D03*
D13*
X-11300000Y18000000D03*
D13*
X-10200000Y18000000D03*
D37*
X13500000Y72200000D03*
D37*
X13500000Y71300000D03*
D74*
X-1249944Y62999992D03*
D74*
X750056Y62999992D03*
D75*
X3000008Y50000056D03*
D75*
X3000008Y52000056D03*
D37*
X18250000Y16950000D03*
D37*
X18250000Y16050000D03*
D58*
X6499944Y35750008D03*
D58*
X4499944Y35750008D03*
D31*
X-18250000Y8950000D03*
D31*
X-18250000Y10550000D03*
D13*
X17200000Y18000000D03*
D13*
X18300000Y18000000D03*
D76*
X7600000Y20650000D03*
D77*
X5400000Y19350000D03*
D77*
X5400000Y20650000D03*
D76*
X7600000Y20000000D03*
D76*
X7600000Y19350000D03*
D77*
X5400000Y20000000D03*
D41*
X21950000Y33500000D03*
D41*
X21050000Y33500000D03*
D58*
X-5500056Y35500008D03*
D58*
X-7500056Y35500008D03*
D53*
X3800000Y14000000D03*
D53*
X4700000Y14000000D03*
D39*
X20000000Y23800000D03*
D39*
X20000000Y24700000D03*
D32*
X6800000Y53500000D03*
D32*
X5700000Y53500000D03*
D15*
X-17000000Y43200000D03*
D15*
X-17000000Y44300000D03*
D45*
X15450000Y49050000D03*
D44*
X15450000Y48650000D03*
D45*
X14550000Y49850000D03*
D45*
X15450000Y49850000D03*
D45*
X14550000Y48650000D03*
D45*
X14550000Y49050000D03*
D45*
X15450000Y49450000D03*
D45*
X14550000Y49450000D03*
D14*
X-250000Y52550000D03*
D14*
X-250000Y51450000D03*
D78*
X-3520000Y14770000D03*
D78*
X-980000Y12230000D03*
D79*
X-3520000Y12230000D03*
D78*
X-980000Y14770000D03*
D56*
X17500000Y34750000D03*
D56*
X17500000Y33750000D03*
D39*
X15500000Y9300000D03*
D39*
X15500000Y10200000D03*
D53*
X-22950000Y61000000D03*
D53*
X-22050000Y61000000D03*
D14*
X-17000000Y42050000D03*
D14*
X-17000000Y40950000D03*
D73*
X-25800000Y65500000D03*
D73*
X-24200000Y65500000D03*
D37*
X-16000000Y19950000D03*
D37*
X-16000000Y19050000D03*
D55*
X8000000Y64750000D03*
D55*
X6500000Y64750000D03*
D57*
X13000000Y8050000D03*
D57*
X13000000Y6450000D03*
D15*
X-13500000Y47950000D03*
D15*
X-13500000Y49050000D03*
D64*
X-11250008Y37249944D03*
D64*
X-11250008Y35249944D03*
D56*
X10250000Y34750000D03*
D56*
X10250000Y33750000D03*
D39*
X8000000Y9300000D03*
D39*
X8000000Y10200000D03*
D80*
X5180000Y23250000D03*
D81*
X7820000Y24250000D03*
D80*
X5180000Y24250000D03*
D81*
X7820000Y23750000D03*
D82*
X7800000Y22500000D03*
D81*
X7820000Y23250000D03*
D83*
X6500000Y23500000D03*
D82*
X5200000Y22500000D03*
D80*
X5180000Y24750000D03*
D80*
X5180000Y23750000D03*
D81*
X7820000Y24750000D03*
D13*
X-9550000Y30500000D03*
D13*
X-8450000Y30500000D03*
D13*
X-2050000Y42500000D03*
D13*
X-950000Y42500000D03*
D13*
X-18300000Y56500000D03*
D13*
X-17200000Y56500000D03*
D41*
X-50000Y10000000D03*
D41*
X-950000Y10000000D03*
D22*
X-7250000Y37250000D03*
D22*
X-5750000Y37250000D03*
D57*
X10500000Y8050000D03*
D57*
X10500000Y6450000D03*
D22*
X-11000000Y33750000D03*
D22*
X-9500000Y33750000D03*
D15*
X8000000Y36200000D03*
D15*
X8000000Y37300000D03*
D39*
X2000000Y60300000D03*
D39*
X2000000Y61200000D03*
D22*
X4750000Y11500000D03*
D22*
X6250000Y11500000D03*
D45*
X15450000Y57550000D03*
D44*
X15450000Y57150000D03*
D45*
X14550000Y58350000D03*
D45*
X15450000Y58350000D03*
D45*
X14550000Y57150000D03*
D45*
X14550000Y57550000D03*
D45*
X15450000Y57950000D03*
D45*
X14550000Y57950000D03*
D13*
X5200000Y12750000D03*
D13*
X6300000Y12750000D03*
D58*
X7499944Y30000008D03*
D58*
X5499944Y30000008D03*
D39*
X13000000Y9300000D03*
D39*
X13000000Y10200000D03*
D84*
X-3900000Y33600000D03*
D84*
X-3900000Y31900000D03*
D84*
X-2600000Y31900000D03*
D84*
X-2600000Y33600000D03*
D45*
X-12300000Y10050000D03*
D44*
X-12300000Y9650000D03*
D45*
X-13200000Y10850000D03*
D45*
X-12300000Y10850000D03*
D45*
X-13200000Y9650000D03*
D45*
X-13200000Y10050000D03*
D45*
X-12300000Y10450000D03*
D45*
X-13200000Y10450000D03*
D34*
X-15000000Y35760000D03*
D35*
X-15500000Y37240000D03*
D34*
X-15500000Y35760000D03*
D34*
X-16000000Y35760000D03*
D35*
X-15000000Y37240000D03*
D35*
X-16000000Y37240000D03*
D78*
X23000000Y22770000D03*
D85*
X23000000Y15150000D03*
D79*
X23000000Y17690000D03*
D86*
X23000000Y25310000D03*
D85*
X23000000Y20230000D03*
D86*
X23000000Y27850000D03*
D87*
X13000000Y30850000D03*
D87*
X14000000Y30850000D03*
D87*
X13500000Y32150000D03*
D44*
X-18200000Y34200000D03*
D45*
X-18200000Y34600000D03*
D44*
X-17300000Y33400000D03*
D44*
X-18200000Y33400000D03*
D44*
X-17300000Y34600000D03*
D44*
X-17300000Y34200000D03*
D44*
X-18200000Y33800000D03*
D44*
X-17300000Y33800000D03*
D15*
X-8750000Y12450000D03*
D15*
X-8750000Y13550000D03*
D32*
X-4950000Y17750000D03*
D32*
X-6050000Y17750000D03*
D32*
X16550000Y60000000D03*
D32*
X15450000Y60000000D03*
D45*
X-17300000Y38550000D03*
D44*
X-17300000Y38150000D03*
D45*
X-18200000Y39350000D03*
D45*
X-17300000Y39350000D03*
D45*
X-18200000Y38150000D03*
D45*
X-18200000Y38550000D03*
D45*
X-17300000Y38950000D03*
D45*
X-18200000Y38950000D03*
D73*
X18700000Y42500000D03*
D73*
X20300000Y42500000D03*
D15*
X13550000Y67500000D03*
D14*
X14950000Y67500000D03*
D88*
X-6000000Y19570000D03*
D89*
X-3320000Y24750000D03*
D88*
X-10000000Y19570000D03*
D90*
X-6000000Y27430000D03*
D89*
X-3320000Y20250000D03*
D88*
X-7000000Y19570000D03*
D88*
X-8000000Y19570000D03*
D91*
X-11180000Y22750000D03*
D89*
X-3320000Y21250000D03*
D88*
X-6500000Y19570000D03*
D89*
X-3320000Y23750000D03*
D91*
X-11180000Y21750000D03*
D91*
X-11180000Y26250000D03*
D89*
X-3320000Y20750000D03*
D88*
X-9500000Y19570000D03*
D91*
X-11180000Y23250000D03*
D89*
X-3320000Y26250000D03*
D89*
X-3320000Y21750000D03*
D91*
X-11180000Y26750000D03*
D89*
X-3320000Y22750000D03*
D91*
X-11180000Y24750000D03*
D90*
X-7000000Y27430000D03*
D91*
X-11180000Y21250000D03*
D89*
X-3320000Y25750000D03*
D91*
X-11180000Y25750000D03*
D88*
X-5000000Y19570000D03*
D89*
X-3320000Y23250000D03*
D88*
X-9000000Y19570000D03*
D89*
X-3320000Y24250000D03*
D90*
X-8000000Y27430000D03*
D90*
X-5000000Y27430000D03*
D92*
X-7250000Y23500000D03*
D89*
X-3320000Y26750000D03*
D91*
X-11180000Y22250000D03*
D88*
X-8500000Y19570000D03*
D91*
X-11180000Y24250000D03*
D90*
X-4000000Y27430000D03*
D91*
X-11180000Y20750000D03*
D89*
X-3320000Y25250000D03*
D88*
X-5500000Y19570000D03*
D91*
X-11180000Y23750000D03*
D90*
X-8500000Y27430000D03*
D90*
X-10000000Y27430000D03*
D90*
X-6500000Y27430000D03*
D88*
X-4000000Y19570000D03*
D91*
X-11180000Y20250000D03*
D88*
X-10500000Y19570000D03*
D88*
X-7500000Y19570000D03*
D90*
X-5500000Y27430000D03*
D90*
X-7500000Y27430000D03*
D89*
X-3320000Y22250000D03*
D90*
X-9000000Y27430000D03*
D90*
X-10500000Y27430000D03*
D90*
X-9500000Y27430000D03*
D91*
X-11180000Y25250000D03*
D88*
X-4500000Y19570000D03*
D90*
X-4500000Y27430000D03*
D32*
X6800000Y49250000D03*
D32*
X5700000Y49250000D03*
D93*
X19700000Y37865000D03*
D93*
X19700000Y40405000D03*
D94*
X14300000Y37865000D03*
D93*
X19700000Y36595000D03*
D93*
X19700000Y39135000D03*
D94*
X14300000Y40405000D03*
D94*
X14300000Y39135000D03*
D94*
X14300000Y36595000D03*
D46*
X-2750000Y52675000D03*
D46*
X-1750000Y52675000D03*
D47*
X-2250000Y53825000D03*
D47*
X-1750000Y53825000D03*
D47*
X-3250000Y53825000D03*
D46*
X-3250000Y52675000D03*
D47*
X-2750000Y53825000D03*
D46*
X-2250000Y52675000D03*
D32*
X16550000Y52750000D03*
D32*
X15450000Y52750000D03*
D73*
X18700000Y43750000D03*
D73*
X20300000Y43750000D03*
D31*
X-20250000Y72200000D03*
D31*
X-20250000Y73800000D03*
D13*
X-11800000Y43250000D03*
D13*
X-10700000Y43250000D03*
D15*
X20000000Y25700000D03*
D15*
X20000000Y26800000D03*
D13*
X13200000Y51500000D03*
D13*
X14300000Y51500000D03*
D95*
X-2500000Y9750000D03*
D95*
X-3500000Y9750000D03*
D44*
X-18200000Y46700000D03*
D45*
X-18200000Y47100000D03*
D44*
X-17300000Y45900000D03*
D44*
X-18200000Y45900000D03*
D44*
X-17300000Y47100000D03*
D44*
X-17300000Y46700000D03*
D44*
X-18200000Y46300000D03*
D44*
X-17300000Y46300000D03*
D35*
X-15500000Y49240000D03*
D34*
X-15000000Y47760000D03*
D35*
X-15000000Y49240000D03*
D35*
X-14500000Y49240000D03*
D34*
X-15500000Y47760000D03*
D34*
X-14500000Y47760000D03*
D38*
X15500000Y12900000D03*
D38*
X14500000Y12900000D03*
D38*
X15000000Y11600000D03*
D53*
X11550000Y33750000D03*
D53*
X12450000Y33750000D03*
D96*
X14000000Y15500000D03*
D96*
X15500000Y15500000D03*
D97*
X-7000000Y59250000D03*
D97*
X-7000000Y60750000D03*
D98*
X-13250000Y61700000D03*
D98*
X-12300000Y59300000D03*
D98*
X-14200000Y59300000D03*
D98*
X-12300000Y61700000D03*
D98*
X-13250000Y59300000D03*
D98*
X-14200000Y61700000D03*
D32*
X16550000Y51500000D03*
D32*
X15450000Y51500000D03*
D32*
X-11200000Y12000000D03*
D32*
X-12300000Y12000000D03*
D32*
X-450000Y61250000D03*
D32*
X-1550000Y61250000D03*
D57*
X8000000Y8050000D03*
D57*
X8000000Y6450000D03*
D99*
X-7000000Y30250000D03*
D99*
X-7000000Y31750000D03*
D13*
X-7800000Y33000000D03*
D13*
X-6700000Y33000000D03*
D24*
X-18650000Y52150000D03*
D23*
X-16850000Y51500000D03*
D24*
X-18650000Y50850000D03*
D23*
X-16850000Y50850000D03*
D23*
X-16850000Y52150000D03*
D39*
X10500000Y9300000D03*
D39*
X10500000Y10200000D03*
D100*
X-23100000Y18230000D03*
D100*
X-23100000Y22040000D03*
D100*
X-23100000Y19500000D03*
D100*
X-23100000Y20770000D03*
D100*
X-26900000Y20770000D03*
D100*
X-26900000Y19500000D03*
D100*
X-23100000Y16960000D03*
D100*
X-26900000Y16960000D03*
D100*
X-26900000Y22040000D03*
D38*
X-20250000Y65400000D03*
D38*
X-21250000Y65400000D03*
D38*
X-20750000Y64100000D03*
D13*
X-9550000Y62750000D03*
D13*
X-8450000Y62750000D03*
D101*
X-4250000Y58950000D03*
D102*
X-4250000Y61050000D03*
D54*
X-500000Y41250000D03*
D54*
X-2000000Y41250000D03*
D13*
X13200000Y52750000D03*
D13*
X14300000Y52750000D03*
D31*
X-16750000Y8950000D03*
D31*
X-16750000Y10550000D03*
D12*
X17300000Y43750000D03*
D12*
X15700000Y43750000D03*
D103*
X2500000Y66690000D03*
D103*
X6750000Y68390000D03*
D103*
X5750000Y68390000D03*
D103*
X7500000Y66690000D03*
D103*
X5500000Y66690000D03*
D104*
X380000Y72860000D03*
D103*
X4750000Y68390000D03*
D103*
X3750000Y68390000D03*
D103*
X7000000Y66690000D03*
D103*
X3000000Y66690000D03*
D103*
X8000000Y66690000D03*
D103*
X3500000Y66690000D03*
D105*
X8050000Y68390000D03*
D103*
X2750000Y68390000D03*
D103*
X3250000Y68390000D03*
D105*
X1950000Y68390000D03*
D103*
X6250000Y68390000D03*
D106*
X9640000Y72860000D03*
D103*
X6500000Y66690000D03*
D103*
X4000000Y66690000D03*
D103*
X2000000Y66690000D03*
D103*
X4250000Y68390000D03*
D107*
X9320000Y67500000D03*
D108*
X680000Y67500000D03*
D103*
X4500000Y66690000D03*
D103*
X5250000Y68390000D03*
D103*
X7250000Y68390000D03*
D103*
X6000000Y66690000D03*
D109*
X-9365000Y50450000D03*
D109*
X-11905000Y50450000D03*
D110*
X-9365000Y45050000D03*
D109*
X-8095000Y50450000D03*
D109*
X-10635000Y50450000D03*
D110*
X-11905000Y45050000D03*
D110*
X-10635000Y45050000D03*
D110*
X-8095000Y45050000D03*
D41*
X-6050000Y42250000D03*
D41*
X-6950000Y42250000D03*
D37*
X10500000Y38200000D03*
D37*
X10500000Y37300000D03*
D13*
X-3675000Y30375000D03*
D13*
X-2575000Y30375000D03*
D12*
X-24200000Y61000000D03*
D12*
X-25800000Y61000000D03*
D75*
X-6481239Y38872383D03*
D75*
X-6481239Y40872383D03*
D64*
X-10250008Y61499944D03*
D64*
X-10250008Y59499944D03*
D111*
X5300000Y27250000D03*
D111*
X7700000Y28200000D03*
D111*
X7700000Y26300000D03*
D111*
X5300000Y28200000D03*
D111*
X7700000Y27250000D03*
D111*
X5300000Y26300000D03*
D13*
X5450000Y37250000D03*
D13*
X6550000Y37250000D03*
D15*
X8750000Y11700000D03*
D15*
X8750000Y12800000D03*
D13*
X12700000Y28250000D03*
D13*
X13800000Y28250000D03*
D112*
X4900000Y50600000D03*
D112*
X6600000Y50600000D03*
D112*
X6600000Y51900000D03*
D112*
X4900000Y51900000D03*
D24*
X-13650000Y7900000D03*
D23*
X-11850000Y7250000D03*
D24*
X-13650000Y6600000D03*
D23*
X-11850000Y6600000D03*
D23*
X-11850000Y7900000D03*
D41*
X17950000Y14250000D03*
D41*
X17050000Y14250000D03*
D113*
X-3500000Y8250000D03*
D113*
X-2500000Y8250000D03*
D22*
X2000000Y26250000D03*
D22*
X3500000Y26250000D03*
D37*
X-20250000Y70700000D03*
D37*
X-20250000Y69800000D03*
D57*
X5500000Y8050000D03*
D57*
X5500000Y6450000D03*
D15*
X4250000Y37450000D03*
D15*
X4250000Y38550000D03*
D39*
X-17250000Y60550000D03*
D39*
X-17250000Y61450000D03*
D23*
X11400000Y30600000D03*
D24*
X9600000Y31250000D03*
D23*
X11400000Y31900000D03*
D24*
X9600000Y31900000D03*
D24*
X9600000Y30600000D03*
D32*
X-17200000Y49500000D03*
D32*
X-18300000Y49500000D03*
D99*
X9250000Y27250000D03*
D99*
X9250000Y28750000D03*
D37*
X750000Y61200000D03*
D37*
X750000Y60300000D03*
D14*
X-12750000Y27550000D03*
D14*
X-12750000Y26450000D03*
D114*
X11625000Y22000000D03*
D115*
X12750000Y19875000D03*
D115*
X13750000Y19875000D03*
D116*
X18375000Y21500000D03*
D115*
X14250000Y19875000D03*
D115*
X17250000Y19875000D03*
D115*
X17750000Y19875000D03*
D117*
X14250000Y26625000D03*
D115*
X14750000Y19875000D03*
D115*
X16750000Y19875000D03*
D114*
X11625000Y21000000D03*
D117*
X15250000Y26625000D03*
D116*
X18375000Y24000000D03*
D116*
X18375000Y23000000D03*
D115*
X16250000Y19875000D03*
D116*
X18375000Y20500000D03*
D116*
X18375000Y24500000D03*
D116*
X18375000Y22500000D03*
D114*
X11625000Y23000000D03*
D117*
X17750000Y26625000D03*
D116*
X18375000Y26000000D03*
D115*
X15750000Y19875000D03*
D114*
X11625000Y25000000D03*
D114*
X11625000Y24500000D03*
D114*
X11625000Y24000000D03*
D114*
X11625000Y21500000D03*
D114*
X11625000Y23500000D03*
D117*
X12250000Y26625000D03*
D116*
X18375000Y21000000D03*
D116*
X18375000Y25500000D03*
D114*
X11625000Y26000000D03*
D116*
X18375000Y23500000D03*
D117*
X12750000Y26625000D03*
D117*
X17250000Y26625000D03*
D116*
X18375000Y22000000D03*
D117*
X16250000Y26625000D03*
D117*
X16750000Y26625000D03*
D115*
X15250000Y19875000D03*
D117*
X14750000Y26625000D03*
D114*
X11625000Y25500000D03*
D117*
X13750000Y26625000D03*
D118*
X15000000Y23250000D03*
D115*
X12250000Y19875000D03*
D114*
X11625000Y20500000D03*
D117*
X15750000Y26625000D03*
D117*
X13250000Y26625000D03*
D114*
X11625000Y22500000D03*
D115*
X13250000Y19875000D03*
D116*
X18375000Y25000000D03*
D13*
X-18300000Y36750000D03*
D13*
X-17200000Y36750000D03*
D14*
X-13500000Y13300000D03*
D14*
X-13500000Y12200000D03*
D99*
X1000000Y48500000D03*
D99*
X1000000Y50000000D03*
D13*
X12950000Y29250000D03*
D13*
X14050000Y29250000D03*
D14*
X4000000Y59550000D03*
D14*
X4000000Y58450000D03*
D46*
X-10250000Y53675000D03*
D46*
X-9250000Y53675000D03*
D47*
X-9750000Y54825000D03*
D47*
X-9250000Y54825000D03*
D47*
X-10750000Y54825000D03*
D46*
X-10750000Y53675000D03*
D47*
X-10250000Y54825000D03*
D46*
X-9750000Y53675000D03*
D96*
X-11750000Y57500000D03*
D96*
X-10250000Y57500000D03*
D53*
X-3050000Y38000000D03*
D53*
X-2150000Y38000000D03*
D53*
X-11700000Y52250000D03*
D53*
X-10800000Y52250000D03*
D39*
X11500000Y14800000D03*
D39*
X11500000Y15700000D03*
D119*
X7000000Y42750000D03*
D120*
X9000000Y15500000D03*
D121*
X-6375000Y20875000D03*
D122*
X17750000Y27500000D03*
D119*
X8250000Y42750000D03*
D119*
X-6375000Y24375000D03*
D120*
X6500000Y22750000D03*
D119*
X-8125000Y20875000D03*
D123*
X-8125000Y26125000D03*
D121*
X-9875000Y24375000D03*
D119*
X-8125000Y24375000D03*
D120*
X8000000Y16500000D03*
D121*
X-4625000Y26125000D03*
D119*
X-4625000Y22625000D03*
D121*
X7000000Y41500000D03*
D119*
X8250000Y41500000D03*
D119*
X-6375000Y22625000D03*
D119*
X-6375000Y26125000D03*
D124*
X5750000Y44000000D03*
D119*
X5750000Y41500000D03*
D125*
X-4625000Y20875000D03*
D125*
X-4625000Y24375000D03*
D124*
X-8125000Y22625000D03*
D126*
X6500000Y24250000D03*
D119*
X8250000Y44000000D03*
D121*
X-9875000Y22625000D03*
D127*
X-8000000Y10250000D03*
D123*
X-9875000Y20875000D03*
D119*
X-9875000Y26125000D03*
D128*
X7000000Y44000000D03*
D121*
X5750000Y42750000D03*
D129*
X14750000Y19000000D03*
M02*
