%FSLAX46Y46*%
%MOMM*%
%AMPS19*
1,1,1.500000,0.000000,0.000000*
%
%ADD19PS19*%
%AMPS13*
1,1,1.800000,0.000000,0.000000*
%
%ADD13PS13*%
%AMPS28*
1,1,1.800000,0.000000,0.000000*
%
%ADD28PS28*%
%AMPS14*
1,1,1.800000,0.000000,0.000000*
%
%ADD14PS14*%
%AMPS27*
1,1,1.800000,0.000000,0.000000*
%
%ADD27PS27*%
%AMPS21*
1,1,1.500000,0.000000,0.000000*
%
%ADD21PS21*%
%AMPS17*
1,1,1.800000,0.000000,0.000000*
%
%ADD17PS17*%
%AMPS20*
1,1,1.500000,0.000000,0.000000*
%
%ADD20PS20*%
%AMPS16*
1,1,1.800000,0.000000,0.000000*
%
%ADD16PS16*%
%AMPS29*
1,1,1.800000,0.000000,0.000000*
%
%ADD29PS29*%
%AMPS15*
1,1,1.800000,0.000000,0.000000*
%
%ADD15PS15*%
%AMPS26*
1,1,1.800000,0.000000,0.000000*
%
%ADD26PS26*%
%AMPS12*
1,1,1.800000,0.000000,0.000000*
%
%ADD12PS12*%
%AMPS35*
1,1,0.400000,0.000000,0.000000*
%
%ADD35PS35*%
%AMPS42*
1,1,0.700000,0.000000,0.000000*
%
%ADD42PS42*%
%AMPS37*
1,1,0.500000,0.000000,0.000000*
%
%ADD37PS37*%
%AMPS39*
1,1,0.600000,0.000000,0.000000*
%
%ADD39PS39*%
%AMPS40*
1,1,0.600000,0.000000,0.000000*
%
%ADD40PS40*%
%AMPS41*
1,1,0.400000,0.000000,0.000000*
%
%ADD41PS41*%
%AMPS43*
1,1,0.600000,0.000000,0.000000*
%
%ADD43PS43*%
%AMPS36*
1,1,0.600000,0.000000,0.000000*
%
%ADD36PS36*%
%AMPS34*
1,1,0.600000,0.000000,0.000000*
%
%ADD34PS34*%
%AMPS38*
1,1,0.600000,0.000000,0.000000*
%
%ADD38PS38*%
%AMPS44*
1,1,0.700000,0.000000,0.000000*
%
%ADD44PS44*%
%AMPS30*
21,1,1.500000,1.200000,0.000000,0.000000,270.000000*
1,1,1.200000,0.000000,-0.750000*
1,1,1.200000,0.000000,0.750000*
%
%ADD30PS30*%
%AMPS31*
21,1,1.500000,1.200000,0.000000,0.000000,270.000000*
1,1,1.200000,0.000000,-0.750000*
1,1,1.200000,0.000000,0.750000*
%
%ADD31PS31*%
%AMPS33*
21,1,1.000000,1.200000,0.000000,0.000000,270.000000*
1,1,1.200000,0.000000,-0.500000*
1,1,1.200000,0.000000,0.500000*
%
%ADD33PS33*%
%AMPS32*
21,1,1.000000,1.200000,0.000000,0.000000,270.000000*
1,1,1.200000,0.000000,-0.500000*
1,1,1.200000,0.000000,0.500000*
%
%ADD32PS32*%
%AMPS18*
21,1,1.640000,1.600000,0.000000,0.000000,270.000000*
1,1,1.600000,0.000000,-0.820000*
1,1,1.600000,0.000000,0.820000*
%
%ADD18PS18*%
%AMPS22*
21,1,1.640000,1.600000,0.000000,0.000000,270.000000*
1,1,1.600000,0.000000,-0.820000*
1,1,1.600000,0.000000,0.820000*
%
%ADD22PS22*%
%AMPS23*
1,1,0.300000,-0.050000,0.525000*
1,1,0.300000,0.050000,-0.525000*
1,1,0.300000,0.050000,0.525000*
1,1,0.300000,-0.050000,-0.525000*
21,1,0.400000,1.050000,0.000000,0.000000,0.000000*
21,1,0.100000,1.350000,0.000000,0.000000,0.000000*
%
%ADD23PS23*%
%AMPS25*
1,1,0.300000,-0.490000,0.825000*
1,1,0.300000,0.490000,-0.825000*
1,1,0.300000,0.490000,0.825000*
1,1,0.300000,-0.490000,-0.825000*
21,1,1.280000,1.650000,0.000000,0.000000,0.000000*
21,1,0.980000,1.950000,0.000000,0.000000,0.000000*
%
%ADD25PS25*%
%AMPS24*
1,1,0.300000,-0.050000,0.825000*
1,1,0.300000,0.050000,-0.825000*
1,1,0.300000,0.050000,0.825000*
1,1,0.300000,-0.050000,-0.825000*
21,1,0.400000,1.650000,0.000000,0.000000,0.000000*
21,1,0.100000,1.950000,0.000000,0.000000,0.000000*
%
%ADD24PS24*%
%AMPS10*
1,1,6.200000,0.000000,0.000000*
%
%ADD10PS10*%
%AMPS11*
1,1,6.200000,0.000000,0.000000*
%
%ADD11PS11*%
G01*
%LPD*%
G36*
X-10750000Y20000000D02*
X-10750000Y27000000D01*
X-3750000Y27000000D01*
X-3750000Y20000000D01*
X-10750000Y20000000D01*
D02*
G37*
%LPD*%
G36*
X5000000Y40750000D02*
X5000000Y44750000D01*
X9000000Y44750000D01*
X9000000Y40750000D01*
X5000000Y40750000D01*
D02*
G37*
G01*
%LPD*%
G75*
D10*
X-25000000Y70000000D03*
D11*
X-25000000Y10000000D03*
D11*
X20000000Y10000000D03*
D10*
X20000000Y70000000D03*
D12*
X-23730000Y51890000D03*
D13*
X-26270000Y46810000D03*
D14*
X-23730000Y34110000D03*
D12*
X-23730000Y44270000D03*
D12*
X-23730000Y31570000D03*
D15*
X-23730000Y41730000D03*
D16*
X-26270000Y34110000D03*
D14*
X-26270000Y54430000D03*
D15*
X-23730000Y54430000D03*
D13*
X-26270000Y49350000D03*
D13*
X-23730000Y39190000D03*
D17*
X-26270000Y44270000D03*
D13*
X-26270000Y31570000D03*
D15*
X-26270000Y39190000D03*
D16*
X-23730000Y46810000D03*
D12*
X-26270000Y41730000D03*
D15*
X-23730000Y36650000D03*
D15*
X-26270000Y36650000D03*
D12*
X-26270000Y51890000D03*
D14*
X-23730000Y49350000D03*
D16*
X21270000Y60080000D03*
D13*
X18730000Y55000000D03*
D12*
X21270000Y52460000D03*
D16*
X21270000Y49920000D03*
D16*
X18730000Y62620000D03*
D12*
X21270000Y62620000D03*
D16*
X18730000Y57540000D03*
D15*
X21270000Y47380000D03*
D15*
X18730000Y52460000D03*
D12*
X18730000Y47380000D03*
D13*
X21270000Y55000000D03*
D13*
X18730000Y49920000D03*
D15*
X18730000Y60080000D03*
D16*
X21270000Y57540000D03*
D15*
X-17000000Y16270000D03*
D12*
X-17000000Y13730000D03*
D18*
X-18570000Y66960000D03*
D19*
X-13000000Y64250000D03*
D20*
X-11000000Y64250000D03*
D20*
X-15500000Y64250000D03*
D21*
X-8500000Y64250000D03*
D22*
X-5430000Y66960000D03*
D23*
X-249996Y1125000D03*
D23*
X-1249996Y1125000D03*
D23*
X-1749996Y1125000D03*
D24*
X2750004Y1125000D03*
D24*
X-2749996Y1125000D03*
D25*
X3640004Y1125000D03*
D23*
X1750004Y1125000D03*
D23*
X750004Y1125000D03*
D23*
X-749996Y1125000D03*
D23*
X2250004Y1125000D03*
D23*
X1250004Y1125000D03*
D23*
X-2249996Y1125000D03*
D25*
X-3639996Y1125000D03*
D23*
X250004Y1125000D03*
D26*
X-3520000Y14770000D03*
D26*
X-980000Y12230000D03*
D27*
X-3520000Y12230000D03*
D26*
X-980000Y14770000D03*
D26*
X23000000Y22770000D03*
D28*
X23000000Y15150000D03*
D27*
X23000000Y17690000D03*
D29*
X23000000Y25310000D03*
D28*
X23000000Y20230000D03*
D29*
X23000000Y27850000D03*
D30*
X380000Y72860000D03*
D31*
X9640000Y72860000D03*
D32*
X9320000Y67500000D03*
D33*
X680000Y67500000D03*
D34*
X7000000Y42750000D03*
D35*
X9000000Y15500000D03*
D36*
X-6375000Y20875000D03*
D37*
X17750000Y27500000D03*
D34*
X8250000Y42750000D03*
D34*
X-6375000Y24375000D03*
D35*
X6500000Y22750000D03*
D34*
X-8125000Y20875000D03*
D38*
X-8125000Y26125000D03*
D36*
X-9875000Y24375000D03*
D34*
X-8125000Y24375000D03*
D35*
X8000000Y16500000D03*
D36*
X-4625000Y26125000D03*
D34*
X-4625000Y22625000D03*
D36*
X7000000Y41500000D03*
D34*
X8250000Y41500000D03*
D34*
X-6375000Y22625000D03*
D34*
X-6375000Y26125000D03*
D39*
X5750000Y44000000D03*
D34*
X5750000Y41500000D03*
D40*
X-4625000Y20875000D03*
D40*
X-4625000Y24375000D03*
D39*
X-8125000Y22625000D03*
D41*
X6500000Y24250000D03*
D34*
X8250000Y44000000D03*
D36*
X-9875000Y22625000D03*
D42*
X-8000000Y10250000D03*
D38*
X-9875000Y20875000D03*
D34*
X-9875000Y26125000D03*
D43*
X7000000Y44000000D03*
D36*
X5750000Y42750000D03*
D44*
X14750000Y19000000D03*
M02*
