M48
FMAT,2
METRIC,TZ
T6C0.200
T8C0.300
T7C0.400
T5C0.600
T3C0.800
T4C0.900
T2C1.000
T1C3.200
%
G90
G05
M71
T6
X-17.000Y57.250
X11.500Y43.500
X-16.000Y7.000
X-18.250Y32.750
X3.000Y2.750
X-0.263Y54.737
X15.500Y56.250
X-17.250Y35.250
X-26.750Y65.500
X-19.250Y9.000
X12.000Y67.750
X5.750Y38.750
X14.500Y59.250
X9.000Y15.500
X-8.000Y14.750
X-15.500Y59.750
X4.000Y11.500
X-18.250Y37.500
X-27.000Y18.250
X7.750Y38.250
X5.750Y54.500
X16.425Y50.490
X-1.000Y39.750
X15.000Y66.000
X11.500Y14.000
X6.532Y54.532
X3.750Y13.250
X8.263Y38.763
X13.250Y59.250
X5.750Y33.000
X14.250Y42.500
X-2.250Y23.000
X0.250Y55.250
X9.250Y38.750
X-5.250Y47.750
X-19.500Y53.750
X16.500Y53.500
X9.500Y49.000
X9.750Y45.750
X2.000Y47.000
X14.500Y53.500
X-1.750Y44.000
X-12.750Y57.250
X-8.500Y35.500
X-12.500Y56.250
X3.503Y32.253
X-10.750Y46.500
X-20.750Y17.000
X5.500Y64.750
X-18.250Y11.500
X20.750Y28.000
X-12.250Y12.750
X-12.250Y35.250
X12.500Y24.500
X-1.250Y64.750
X6.250Y17.500
X-14.750Y44.250
X-13.500Y27.500
X15.500Y62.000
X-3.000Y44.000
X19.250Y20.250
X-17.750Y43.250
X-7.750Y17.750
X-19.000Y49.500
X4.750Y36.750
X0.750Y61.750
X6.500Y22.750
X8.750Y11.000
X11.500Y39.750
X-4.500Y47.000
X-7.500Y29.250
X12.250Y47.000
X-13.500Y51.000
X-4.250Y41.250
X5.500Y16.750
X2.750Y16.750
X2.000Y61.750
X-15.968Y55.782
X12.250Y46.250
X-1.500Y4.750
X17.000Y19.000
X15.500Y48.000
X-15.500Y20.500
X-16.750Y58.000
X10.250Y32.750
X17.250Y61.250
X10.500Y38.750
X-0.497Y45.753
X11.000Y42.550
X17.500Y24.500
X2.000Y48.500
X-17.250Y36.000
X3.500Y37.500
X9.250Y29.425
X-1.500Y25.750
X15.500Y13.750
X10.000Y11.500
X12.000Y28.250
X-13.500Y15.000
X-21.000Y34.500
X-9.250Y29.500
X-10.500Y11.750
X-11.218Y18.718
X-2.750Y49.250
X-10.250Y58.500
X10.250Y17.750
X-17.250Y32.750
X12.500Y20.750
X-13.500Y14.000
X8.750Y36.250
X8.750Y20.000
X20.000Y41.250
X-7.500Y28.500
X11.500Y32.750
X4.250Y69.500
X-4.250Y10.000
X9.250Y25.750
X13.500Y49.750
X13.000Y13.750
X-2.250Y21.500
X4.899Y53.219
X-4.000Y36.250
X-14.000Y9.250
X6.500Y20.500
X15.500Y59.250
X-17.250Y47.750
X-12.000Y33.750
X15.500Y53.500
X12.500Y35.000
X4.250Y19.250
X14.250Y35.750
X8.750Y19.250
X12.500Y25.750
X-2.250Y25.750
X13.500Y63.000
X15.500Y50.750
X17.500Y23.250
X-4.250Y28.500
X-10.500Y11.000
X-19.500Y55.250
X-14.250Y62.750
X-7.710Y40.922
X6.500Y55.500
X-13.500Y50.000
X-2.250Y70.750
X-13.500Y18.000
X8.000Y16.500
X-10.500Y62.750
X15.000Y23.250
X-11.000Y15.500
X-7.000Y18.000
X-2.000Y55.250
X13.000Y48.250
X9.500Y18.500
X11.250Y28.250
X5.058Y54.192
X17.500Y22.000
X-14.500Y38.000
X-12.100Y60.250
X-6.500Y13.500
X-6.250Y48.500
X3.500Y65.750
X13.250Y15.500
X-4.000Y40.000
X-1.487Y54.737
X16.250Y15.500
X-1.500Y8.750
X3.500Y36.250
X3.750Y30.250
X-7.750Y42.250
X-4.250Y62.250
X4.500Y12.750
X17.500Y20.750
X-3.750Y2.750
X11.000Y26.250
X-11.250Y10.750
X-0.250Y50.750
X-2.750Y36.000
X5.250Y60.250
X7.750Y12.750
X-14.250Y24.250
X-15.000Y25.250
X12.500Y58.250
X13.750Y25.750
X-11.250Y9.750
X-17.750Y30.750
X-8.000Y15.750
X-2.250Y23.750
X15.000Y69.250
X-3.250Y28.500
X2.000Y65.750
X-4.925Y31.750
X13.250Y50.750
X11.750Y12.000
X16.500Y55.750
X-15.000Y55.750
X12.250Y44.750
X-8.500Y33.250
X7.141Y54.925
X13.250Y53.500
X-13.250Y22.750
X0.500Y41.750
X5.750Y14.500
X-18.500Y59.500
X11.486Y18.507
X-8.500Y17.500
X13.750Y23.250
X6.263Y38.237
X17.000Y17.250
X15.000Y24.500
X20.250Y22.000
X16.000Y18.250
X-13.500Y26.500
X11.500Y44.250
X15.000Y20.750
X-16.750Y52.750
X-12.500Y23.500
X-3.237Y55.263
X-20.750Y18.250
X20.000Y34.000
X-14.175Y36.500
X-11.250Y38.250
X0.000Y10.750
X12.500Y54.500
X-4.750Y18.500
X15.500Y64.750
X-15.000Y50.000
X4.500Y65.750
X-8.250Y37.250
X13.750Y27.500
X-11.500Y54.750
X1.750Y20.000
X-12.250Y32.000
X-15.250Y38.250
X4.250Y28.250
X-19.750Y62.500
X-16.000Y18.000
X16.000Y32.750
X-4.000Y18.250
X-23.250Y64.000
X18.750Y41.500
X-0.250Y53.250
X6.500Y24.250
X-13.500Y11.500
X-26.750Y62.500
X-20.250Y33.500
X-14.500Y35.000
X6.500Y18.500
X7.750Y32.500
X-17.250Y48.750
X-16.750Y11.500
X3.750Y27.250
X-0.247Y43.247
X6.750Y28.250
X-7.000Y44.000
X18.250Y15.500
X-9.250Y18.000
X8.000Y10.750
X-1.500Y10.000
X-7.710Y39.922
X13.750Y20.750
X1.750Y63.000
X-6.250Y18.500
X-10.250Y17.250
X12.500Y23.250
X13.250Y62.000
X-0.003Y46.247
X-8.000Y13.500
X-18.250Y40.000
X12.000Y30.000
X13.500Y55.500
X20.750Y26.750
X-4.750Y39.000
X-23.250Y65.500
X-9.250Y9.250
X13.000Y17.750
X-12.250Y55.500
X8.000Y21.750
X17.250Y60.000
X-20.750Y19.500
X5.000Y38.750
X21.000Y14.250
X3.997Y32.747
X-1.250Y17.250
X15.000Y25.750
X-16.250Y54.250
X18.000Y19.000
X-17.250Y45.250
X17.500Y32.750
X-2.000Y22.250
X11.000Y58.250
X4.500Y22.500
X16.250Y30.425
X14.250Y8.250
X-14.250Y45.750
X-0.250Y40.000
X8.750Y20.750
X-27.000Y23.500
X-11.750Y46.500
X-8.250Y46.500
X-2.000Y43.250
X14.500Y56.500
X-7.750Y59.500
X2.000Y46.000
X-17.750Y42.000
X12.500Y22.000
X22.000Y35.750
X-20.750Y22.000
X-6.250Y56.000
X0.247Y42.753
X-0.250Y39.000
X21.000Y23.000
X-6.750Y9.250
X6.500Y48.500
X-2.250Y65.750
X-2.750Y48.500
X-12.500Y21.500
X14.250Y16.750
X-22.000Y65.750
X5.250Y69.500
X1.750Y52.000
X7.332Y56.332
X1.500Y2.750
X-1.500Y37.500
X17.500Y25.750
X19.500Y15.500
X-13.250Y62.750
X-16.500Y61.500
X-22.000Y38.000
X-10.000Y6.500
X8.750Y46.750
X11.000Y20.000
X-0.250Y16.500
X13.500Y64.000
X14.250Y12.000
X-15.250Y8.500
X-7.710Y38.922
X14.500Y50.750
X15.000Y22.000
X-15.250Y46.750
X-3.750Y54.750
X-1.500Y3.750
X-14.500Y47.000
X-15.250Y34.750
X5.500Y52.750
X12.250Y45.500
X-8.750Y11.750
X-14.250Y52.500
X-5.250Y7.675
X-12.000Y27.000
X-0.075Y34.000
X17.250Y41.500
X11.500Y52.750
X-10.000Y15.500
X-18.250Y45.250
X16.500Y14.250
X20.750Y25.750
X8.000Y65.750
X16.000Y35.750
X-15.425Y52.250
X-6.250Y57.000
X-3.000Y2.750
X15.500Y18.750
X-17.250Y40.000
X8.750Y32.750
X9.250Y8.250
X-15.987Y50.013
X12.250Y18.500
X1.750Y50.000
X-21.250Y46.000
X12.000Y27.250
X-10.250Y30.500
X8.500Y18.500
X4.000Y60.250
X3.750Y2.750
X-20.750Y20.750
X14.500Y62.000
X-9.750Y11.000
T8
X17.750Y27.500
X-8.000Y10.250
X14.750Y19.000
T7
X7.000Y42.750
X-6.375Y20.875
X8.250Y42.750
X-6.375Y24.375
X-8.125Y20.875
X-8.125Y26.125
X-9.875Y24.375
X-8.125Y24.375
X-4.625Y26.125
X-4.625Y22.625
X7.000Y41.500
X8.250Y41.500
X-6.375Y22.625
X-6.375Y26.125
X5.750Y44.000
X5.750Y41.500
X-4.625Y20.875
X-4.625Y24.375
X-8.125Y22.625
X8.250Y44.000
X-9.875Y22.625
X-9.875Y20.875
X-9.875Y26.125
X7.000Y44.000
X5.750Y42.750
T5
X0.380Y73.610G85X0.380Y72.110
X9.640Y73.610G85X9.640Y72.110
X9.320Y68.000G85X9.320Y67.000
X0.680Y68.000G85X0.680Y67.000
T3
X-18.570Y67.760G85X-18.570Y66.160
X-5.430Y67.730G85X-5.430Y66.190
T4
X-13.000Y64.250
X-11.000Y64.250
X-15.500Y64.250
X-8.500Y64.250
T2
X-23.730Y51.890
X-26.270Y46.810
X-23.730Y34.110
X-23.730Y44.270
X-23.730Y31.570
X-23.730Y41.730
X-26.270Y34.110
X-26.270Y54.430
X-23.730Y54.430
X-26.270Y49.350
X-23.730Y39.190
X-26.270Y44.270
X-26.270Y31.570
X-26.270Y39.190
X-23.730Y46.810
X-26.270Y41.730
X-23.730Y36.650
X-26.270Y36.650
X-26.270Y51.890
X-23.730Y49.350
X21.270Y60.080
X18.730Y55.000
X21.270Y52.460
X21.270Y49.920
X18.730Y62.620
X21.270Y62.620
X18.730Y57.540
X21.270Y47.380
X18.730Y52.460
X18.730Y47.380
X21.270Y55.000
X18.730Y49.920
X18.730Y60.080
X21.270Y57.540
X-17.000Y16.270
X-17.000Y13.730
X-3.520Y14.770
X-0.980Y12.230
X-3.520Y12.230
X-0.980Y14.770
X23.000Y22.770
X23.000Y15.150
X23.000Y17.690
X23.000Y25.310
X23.000Y20.230
X23.000Y27.850
T1
X-25.000Y70.000
X-25.000Y10.000
X20.000Y10.000
X20.000Y70.000
M30
